<svg width="143" height="52" viewBox="0 0 143 52" fill="none" xmlns="http://www.w3.org/2000/svg">
<path d="M0.656509 0H142.995C143.002 17.0418 143.002 34.0904 142.995 51.1321H0V0H0.656509ZM141.682 1.31984H1.31984V49.8191H141.682V1.31984Z" fill="white"/>
<path d="M50.1749 37.38V37.9065H46.1128V32.169H50.0518V32.6955H46.7214V34.7403H49.6894V35.26H46.7214V37.3937H50.1749V37.38ZM57.4922 37.9544C57.0682 37.9544 56.6579 37.886 56.2681 37.7492C55.8783 37.6125 55.5774 37.4347 55.3586 37.209L55.5979 36.744C55.8031 36.9491 56.0835 37.1201 56.4254 37.25C56.7673 37.38 57.1229 37.4415 57.4922 37.4415C58.0051 37.4415 58.3949 37.3458 58.6479 37.1611C58.9078 36.9697 59.0309 36.7303 59.0309 36.4294C59.0309 36.1969 58.9625 36.0191 58.8189 35.8823C58.6821 35.7455 58.5112 35.643 58.306 35.5677C58.1008 35.4925 57.8205 35.4104 57.458 35.3284C57.0272 35.219 56.6784 35.1164 56.4254 35.0138C56.1655 34.9112 55.9467 34.7608 55.7621 34.5488C55.5774 34.3436 55.4885 34.0564 55.4885 33.7008C55.4885 33.4136 55.5637 33.1469 55.721 32.9075C55.8715 32.6682 56.1108 32.4767 56.4254 32.3399C56.74 32.1963 57.1366 32.1279 57.6085 32.1279C57.9367 32.1279 58.2581 32.1758 58.5727 32.2647C58.8873 32.3536 59.1608 32.4767 59.3865 32.6408L59.1813 33.1264C58.942 32.9691 58.6821 32.846 58.4086 32.7708C58.135 32.6887 57.8683 32.6545 57.6016 32.6545C57.0956 32.6545 56.7195 32.7502 56.4664 32.9486C56.2134 33.14 56.0835 33.3931 56.0835 33.7008C56.0835 33.9333 56.1518 34.118 56.2955 34.2547C56.4322 34.3915 56.61 34.5009 56.822 34.5762C57.034 34.6514 57.3144 34.7334 57.67 34.8155C58.094 34.9181 58.4291 35.0207 58.689 35.1232C58.9488 35.2258 59.1677 35.3763 59.3523 35.5814C59.5301 35.7866 59.6258 36.067 59.6258 36.4157C59.6258 36.703 59.5506 36.9696 59.3933 37.209C59.2361 37.4483 58.9967 37.633 58.6753 37.7766C58.3607 37.886 57.9641 37.9544 57.4922 37.9544ZM66.2935 32.6887H64.2761V32.1621H68.9195V32.6887H66.9021V37.9065H66.2935V32.6887ZM77.5088 36.3747H74.3083L73.6176 37.9065H72.9885L75.6145 32.169H76.2163L78.8423 37.9065H78.1995L77.5088 36.3747ZM77.2899 35.8823L75.9154 32.7981L74.5408 35.8823H77.2899ZM84.9218 32.6887H82.9044V32.1621H87.5478V32.6887H85.5304V37.9065H84.9218V32.6887ZM96.8825 37.38V37.9065H92.8204V32.169H96.7594V32.6955H93.429V34.7403H96.3969V35.26H93.429V37.3937H96.8825V37.38Z" fill="white"/>
<path d="M40.2456 34.6714C40.4303 34.6714 40.5876 34.8218 40.5876 35.0133C40.5876 35.198 40.4371 35.3552 40.2456 35.3552H19.1144C18.9297 35.3552 18.7725 35.2048 18.7725 35.0133C18.7725 34.8287 18.9229 34.6714 19.1144 34.6714H40.2456ZM123.888 34.6714C124.073 34.6714 124.23 34.8218 124.23 35.0133C124.23 35.198 124.08 35.3552 123.888 35.3552H102.757C102.573 35.3552 102.415 35.2048 102.415 35.0133C102.415 34.8287 102.566 34.6714 102.757 34.6714H123.888Z" fill="white"/>
<path d="M27.5599 14.245H24.4347V24.5508H22.1575V14.245H19.0322V12.296H27.5599V14.245ZM34.5011 24.8243C33.3933 24.8243 32.3743 24.5576 31.4306 24.0242C30.4869 23.4908 29.7346 22.7317 29.1807 21.7538C28.6199 20.7759 28.3464 19.668 28.3464 18.4234C28.3464 17.1787 28.6268 16.0709 29.1807 15.093C29.7415 14.1151 30.4869 13.356 31.4306 12.8226C32.3743 12.2892 33.4001 12.0225 34.5011 12.0225C35.609 12.0225 36.6279 12.2892 37.5716 12.8226C38.5154 13.356 39.2676 14.1151 39.8215 15.093C40.3823 16.0709 40.6558 17.1787 40.6558 18.4234C40.6558 19.668 40.3755 20.7759 39.8215 21.7538C39.2608 22.7317 38.5154 23.4908 37.5716 24.0242C36.6279 24.5576 35.6021 24.8243 34.5011 24.8243ZM34.5011 22.7043C35.1439 22.7043 35.7526 22.5402 36.3202 22.212C36.8878 21.8837 37.3528 21.3982 37.7084 20.7553C38.064 20.1125 38.2418 19.3329 38.2418 18.4234C38.2418 17.5138 38.064 16.7411 37.7084 16.0914C37.3528 15.4486 36.8878 14.9631 36.3202 14.6348C35.7526 14.3066 35.1439 14.1424 34.5011 14.1424C33.8583 14.1424 33.2496 14.3066 32.682 14.6348C32.1144 14.9631 31.6494 15.4486 31.3007 16.0914C30.9519 16.7343 30.7741 17.5138 30.7741 18.4234C30.7741 19.3329 30.9519 20.1057 31.3007 20.7553C31.6494 21.3982 32.1144 21.8837 32.682 22.212C33.2496 22.5402 33.8514 22.7043 34.5011 22.7043ZM47.0499 12.296C48.4792 12.296 49.5939 12.6379 50.4077 13.3286C51.2214 14.0193 51.6249 15.0451 51.6249 16.3992C51.6249 17.3224 51.4403 18.1156 51.0642 18.779C50.6881 19.4492 50.1546 19.9552 49.4708 20.3177C48.7801 20.6733 47.9731 20.8511 47.0568 20.8511H45.2445V24.5439H42.9468V12.2892H47.0499V12.296ZM46.6328 19.0799C47.4466 19.0799 48.0757 18.861 48.5065 18.4302C48.9374 17.9994 49.1562 17.3907 49.1562 16.6111C49.1562 15.8384 48.9374 15.2434 48.4997 14.8263C48.062 14.4091 47.4397 14.1971 46.6328 14.1971H45.2377V19.0799H46.6328ZM63.9823 18.2661C65.6645 18.608 66.5057 19.5517 66.5057 21.0973C66.5057 22.2256 66.1227 23.0805 65.3568 23.6686C64.5909 24.2567 63.5446 24.5508 62.2247 24.5508H57.6155V12.296H61.7392C63.0249 12.296 64.0506 12.5627 64.8097 13.0961C65.5688 13.6295 65.9518 14.4433 65.9518 15.5375C65.9449 16.9189 65.2884 17.8284 63.9823 18.2661ZM59.9065 14.1082V17.5754H61.493C62.8539 17.5754 63.5309 17.001 63.5309 15.8521C63.5309 15.2503 63.3531 14.8126 62.9975 14.5322C62.6419 14.2518 62.1427 14.1082 61.493 14.1082H59.9065ZM61.958 22.7385C62.594 22.7385 63.0932 22.5881 63.4694 22.2803C63.8455 21.9726 64.0301 21.5213 64.0301 20.9263C64.0301 20.3382 63.8386 19.8937 63.4625 19.5859C63.0796 19.2782 62.5804 19.1277 61.958 19.1277H59.9065V22.7385H61.958ZM72.4553 20.0441H71.0944V24.5508H68.7966V12.296H73.1665C74.5957 12.296 75.7104 12.6037 76.5242 13.2192C77.338 13.8347 77.7415 14.7716 77.7415 16.023C77.7415 17.0146 77.4885 17.8353 76.9824 18.4918C76.4764 19.1483 75.7651 19.5996 74.8624 19.839L78.0355 24.5508H75.3412L72.4553 20.0441ZM71.0876 18.3687H72.8314C73.611 18.3687 74.2128 18.1909 74.6231 17.8421C75.0402 17.4933 75.2454 16.9668 75.2454 16.2624C75.2454 14.9015 74.4385 14.2245 72.8314 14.2245H71.0876V18.3687ZM85.5717 24.8243C84.4638 24.8243 83.4449 24.5576 82.5012 24.0242C81.5574 23.4908 80.8052 22.7317 80.2513 21.7538C79.6905 20.7759 79.417 19.668 79.417 18.4234C79.417 17.1787 79.6973 16.0709 80.2513 15.093C80.812 14.1151 81.5574 13.356 82.5012 12.8226C83.4449 12.2892 84.4707 12.0225 85.5717 12.0225C86.6795 12.0225 87.6985 12.2892 88.6422 12.8226C89.5859 13.356 90.3382 14.1151 90.8921 15.093C91.4529 16.0709 91.7264 17.1787 91.7264 18.4234C91.7264 19.668 91.446 20.7759 90.8921 21.7538C90.3313 22.7317 89.5859 23.4908 88.6422 24.0242C87.6985 24.5576 86.6795 24.8243 85.5717 24.8243ZM85.5717 22.7043C86.2145 22.7043 86.8231 22.5402 87.3907 22.212C87.9584 21.8837 88.4234 21.3982 88.779 20.7553C89.1346 20.1125 89.3124 19.3329 89.3124 18.4234C89.3124 17.5138 89.1346 16.7411 88.779 16.0914C88.4234 15.4486 87.9584 14.9631 87.3907 14.6348C86.8231 14.3066 86.2145 14.1424 85.5717 14.1424C84.9289 14.1424 84.3202 14.3066 83.7526 14.6348C83.185 14.9631 82.72 15.4486 82.3712 16.0914C82.0225 16.7343 81.8446 17.5138 81.8446 18.4234C81.8446 19.3329 82.0225 20.1057 82.3712 20.7553C82.72 21.3982 83.185 21.8837 83.7526 22.212C84.3202 22.5402 84.9289 22.7043 85.5717 22.7043ZM97.4298 19.6475L96.3083 21.0631V24.5508H94.0105V12.296H96.3083V18.0609L100.678 12.296H103.318L99.0232 17.8011L103.667 24.5508H100.856L97.4298 19.6475ZM107.77 14.2245V17.3155H111.668V19.1277H107.77V22.6154H112.311V24.5508H105.472V12.296H112.311V14.2313H107.77V14.2245ZM118.404 20.0441H117.043V24.5508H114.745V12.296H119.115C120.544 12.296 121.659 12.6037 122.473 13.2192C123.286 13.8347 123.69 14.7716 123.69 16.023C123.69 17.0146 123.437 17.8353 122.931 18.4918C122.425 19.1483 121.714 19.5996 120.811 19.839L123.984 24.5508H121.29L118.404 20.0441ZM117.036 18.3687H118.78C119.559 18.3687 120.161 18.1909 120.572 17.8421C120.989 17.4933 121.194 16.9668 121.194 16.2624C121.194 14.9015 120.387 14.2245 118.78 14.2245H117.036V18.3687Z" fill="white"/>
</svg>
