<svg width="210" height="75" viewBox="0 0 210 75" fill="none" xmlns="http://www.w3.org/2000/svg">
<path d="M0.960007 0H209.1C209.11 24.92 209.11 49.85 209.1 74.77H0V0H0.960007ZM207.18 1.92999H1.92999V72.85H207.18V1.92999Z" fill="black"/>
<path d="M73.3702 54.66V55.43H67.4302V47.04H73.1902V47.81H68.3202V50.8H72.6602V51.56H68.3202V54.68H73.3702V54.66ZM84.0702 55.5C83.4502 55.5 82.8502 55.4 82.2802 55.2C81.7102 55 81.2702 54.74 80.9502 54.41L81.3002 53.73C81.6002 54.03 82.0102 54.28 82.5102 54.47C83.0102 54.66 83.5302 54.75 84.0702 54.75C84.8202 54.75 85.3902 54.61 85.7602 54.34C86.1402 54.06 86.3202 53.71 86.3202 53.27C86.3202 52.93 86.2202 52.67 86.0102 52.47C85.8102 52.27 85.5602 52.12 85.2602 52.01C84.9602 51.9 84.5502 51.78 84.0202 51.66C83.3902 51.5 82.8802 51.35 82.5102 51.2C82.1302 51.05 81.8102 50.83 81.5402 50.52C81.2702 50.22 81.1402 49.8 81.1402 49.28C81.1402 48.86 81.2502 48.47 81.4802 48.12C81.7002 47.77 82.0502 47.49 82.5102 47.29C82.9702 47.08 83.5502 46.98 84.2402 46.98C84.7202 46.98 85.1902 47.05 85.6502 47.18C86.1102 47.31 86.5102 47.49 86.8402 47.73L86.5402 48.44C86.1902 48.21 85.8102 48.03 85.4102 47.92C85.0102 47.8 84.6202 47.75 84.2302 47.75C83.4902 47.75 82.9402 47.89 82.5702 48.18C82.2002 48.46 82.0102 48.83 82.0102 49.28C82.0102 49.62 82.1102 49.89 82.3202 50.09C82.5202 50.29 82.7802 50.45 83.0902 50.56C83.4002 50.67 83.8102 50.79 84.3302 50.91C84.9502 51.06 85.4402 51.21 85.8202 51.36C86.2002 51.51 86.5202 51.73 86.7902 52.03C87.0502 52.33 87.1902 52.74 87.1902 53.25C87.1902 53.67 87.0802 54.06 86.8502 54.41C86.6202 54.76 86.2702 55.03 85.8002 55.24C85.3402 55.4 84.7602 55.5 84.0702 55.5ZM96.9402 47.8H93.9902V47.03H100.78V47.8H97.8302V55.43H96.9402V47.8ZM113.34 53.19H108.66L107.65 55.43H106.73L110.57 47.04H111.45L115.29 55.43H114.35L113.34 53.19ZM113.02 52.47L111.01 47.96L109 52.47H113.02ZM124.18 47.8H121.23V47.03H128.02V47.8H125.07V55.43H124.18V47.8ZM141.67 54.66V55.43H135.73V47.04H141.49V47.81H136.62V50.8H140.96V51.56H136.62V54.68H141.67V54.66Z" fill="black"/>
<path d="M58.8502 50.7C59.1202 50.7 59.3502 50.92 59.3502 51.2C59.3502 51.47 59.1302 51.7 58.8502 51.7H27.9502C27.6802 51.7 27.4502 51.48 27.4502 51.2C27.4502 50.93 27.6702 50.7 27.9502 50.7H58.8502ZM181.16 50.7C181.43 50.7 181.66 50.92 181.66 51.2C181.66 51.47 181.44 51.7 181.16 51.7H150.26C149.99 51.7 149.76 51.48 149.76 51.2C149.76 50.93 149.98 50.7 150.26 50.7H181.16Z" fill="black"/>
<path d="M40.3001 20.8301H35.7301V35.9001H32.4001V20.8301H27.8301V17.9801H40.3001V20.8301ZM50.4501 36.3001C48.8301 36.3001 47.3401 35.9101 45.9601 35.1301C44.5801 34.3501 43.4801 33.2401 42.6701 31.8101C41.8501 30.3801 41.4501 28.7601 41.4501 26.9401C41.4501 25.1201 41.8601 23.5001 42.6701 22.0701C43.4901 20.6401 44.5801 19.5301 45.9601 18.7501C47.3401 17.9701 48.8401 17.5801 50.4501 17.5801C52.0701 17.5801 53.5601 17.9701 54.9401 18.7501C56.3201 19.5301 57.4201 20.6401 58.2301 22.0701C59.0501 23.5001 59.4501 25.1201 59.4501 26.9401C59.4501 28.7601 59.0401 30.3801 58.2301 31.8101C57.4101 33.2401 56.3201 34.3501 54.9401 35.1301C53.5601 35.9101 52.0601 36.3001 50.4501 36.3001ZM50.4501 33.2001C51.3901 33.2001 52.2801 32.9601 53.1101 32.4801C53.9401 32.0001 54.6201 31.2901 55.1401 30.3501C55.6601 29.4101 55.9201 28.2701 55.9201 26.9401C55.9201 25.6101 55.6601 24.4801 55.1401 23.5301C54.6201 22.5901 53.9401 21.8801 53.1101 21.4001C52.2801 20.9201 51.3901 20.6801 50.4501 20.6801C49.5101 20.6801 48.6201 20.9201 47.7901 21.4001C46.9601 21.8801 46.2801 22.5901 45.7701 23.5301C45.2601 24.4701 45.0001 25.6101 45.0001 26.9401C45.0001 28.2701 45.2601 29.4001 45.7701 30.3501C46.2801 31.2901 46.9601 32.0001 47.7901 32.4801C48.6201 32.9601 49.5001 33.2001 50.4501 33.2001ZM68.8001 17.9801C70.8901 17.9801 72.5201 18.4801 73.7101 19.4901C74.9001 20.5001 75.4901 22.0001 75.4901 23.9801C75.4901 25.3301 75.2201 26.4901 74.6701 27.4601C74.1201 28.4401 73.3401 29.1801 72.3401 29.7101C71.3301 30.2301 70.1501 30.4901 68.8101 30.4901H66.1601V35.8901H62.8001V17.9701H68.8001V17.9801ZM68.1901 27.9001C69.3801 27.9001 70.3001 27.5801 70.9301 26.9501C71.5601 26.3201 71.8801 25.4301 71.8801 24.2901C71.8801 23.1601 71.5601 22.2901 70.9201 21.6801C70.2801 21.0701 69.3701 20.7601 68.1901 20.7601H66.1501V27.9001H68.1901ZM93.5601 26.7101C96.0201 27.2101 97.2501 28.5901 97.2501 30.8501C97.2501 32.5001 96.6901 33.7501 95.5701 34.6101C94.4501 35.4701 92.9201 35.9001 90.9901 35.9001H84.2501V17.9801H90.2801C92.1601 17.9801 93.6601 18.3701 94.7701 19.1501C95.8801 19.9301 96.4401 21.1201 96.4401 22.7201C96.4301 24.7401 95.4701 26.0701 93.5601 26.7101ZM87.6001 20.6301V25.7001H89.9201C91.9101 25.7001 92.9001 24.8601 92.9001 23.1801C92.9001 22.3001 92.6401 21.6601 92.1201 21.2501C91.6001 20.8401 90.8701 20.6301 89.9201 20.6301H87.6001ZM90.6001 33.2501C91.5301 33.2501 92.2601 33.0301 92.8101 32.5801C93.3601 32.1301 93.6301 31.4701 93.6301 30.6001C93.6301 29.7401 93.3501 29.0901 92.8001 28.6401C92.2401 28.1901 91.5101 27.9701 90.6001 27.9701H87.6001V33.2501H90.6001ZM105.95 29.3101H103.96V35.9001H100.6V17.9801H106.99C109.08 17.9801 110.71 18.4301 111.9 19.3301C113.09 20.2301 113.68 21.6001 113.68 23.4301C113.68 24.8801 113.31 26.0801 112.57 27.0401C111.83 28.0001 110.79 28.6601 109.47 29.0101L114.11 35.9001H110.17L105.95 29.3101ZM103.95 26.8601H106.5C107.64 26.8601 108.52 26.6001 109.12 26.0901C109.73 25.5801 110.03 24.8101 110.03 23.7801C110.03 21.7901 108.85 20.8001 106.5 20.8001H103.95V26.8601ZM125.13 36.3001C123.51 36.3001 122.02 35.9101 120.64 35.1301C119.26 34.3501 118.16 33.2401 117.35 31.8101C116.53 30.3801 116.13 28.7601 116.13 26.9401C116.13 25.1201 116.54 23.5001 117.35 22.0701C118.17 20.6401 119.26 19.5301 120.64 18.7501C122.02 17.9701 123.52 17.5801 125.13 17.5801C126.75 17.5801 128.24 17.9701 129.62 18.7501C131 19.5301 132.1 20.6401 132.91 22.0701C133.73 23.5001 134.13 25.1201 134.13 26.9401C134.13 28.7601 133.72 30.3801 132.91 31.8101C132.09 33.2401 131 34.3501 129.62 35.1301C128.24 35.9101 126.75 36.3001 125.13 36.3001ZM125.13 33.2001C126.07 33.2001 126.96 32.9601 127.79 32.4801C128.62 32.0001 129.3 31.2901 129.82 30.3501C130.34 29.4101 130.6 28.2701 130.6 26.9401C130.6 25.6101 130.34 24.4801 129.82 23.5301C129.3 22.5901 128.62 21.8801 127.79 21.4001C126.96 20.9201 126.07 20.6801 125.13 20.6801C124.19 20.6801 123.3 20.9201 122.47 21.4001C121.64 21.8801 120.96 22.5901 120.45 23.5301C119.94 24.4701 119.68 25.6101 119.68 26.9401C119.68 28.2701 119.94 29.4001 120.45 30.3501C120.96 31.2901 121.64 32.0001 122.47 32.4801C123.3 32.9601 124.19 33.2001 125.13 33.2001ZM142.47 28.7301L140.83 30.8001V35.9001H137.47V17.9801H140.83V26.4101L147.22 17.9801H151.08L144.8 26.0301L151.59 35.9001H147.48L142.47 28.7301ZM157.59 20.8001V25.3201H163.29V27.9701H157.59V33.0701H164.23V35.9001H154.23V17.9801H164.23V20.8101L157.59 20.8001ZM173.14 29.3101H171.15V35.9001H167.79V17.9801H174.18C176.27 17.9801 177.9 18.4301 179.09 19.3301C180.28 20.2301 180.87 21.6001 180.87 23.4301C180.87 24.8801 180.5 26.0801 179.76 27.0401C179.02 28.0001 177.98 28.6601 176.66 29.0101L181.3 35.9001H177.36L173.14 29.3101ZM171.14 26.8601H173.69C174.83 26.8601 175.71 26.6001 176.31 26.0901C176.92 25.5801 177.22 24.8101 177.22 23.7801C177.22 21.7901 176.04 20.8001 173.69 20.8001H171.14V26.8601Z" fill="black"/>
</svg>
