<svg width="210" height="74" viewBox="0 0 210 74" fill="none" xmlns="http://www.w3.org/2000/svg">
<path fill-rule="evenodd" clip-rule="evenodd" d="M0 0H209.12V73.53H0V0ZM73.08 54.2V54.97H67.09V46.5H72.9V47.27H67.99V50.28H72.37V51.04H67.99V54.19H73.08V54.2ZM58.43 50.2C58.71 50.2 58.93 50.42 58.93 50.7C58.93 50.98 58.71 51.2 58.43 51.2H27.24C26.96 51.2 26.74 50.98 26.74 50.7C26.74 50.42 26.96 50.2 27.24 50.2H58.43ZM40.3 20.2H35.73V35.27H32.4V20.2H27.83V17.35H40.3V20.2ZM50.45 35.68C48.83 35.68 47.34 35.29 45.96 34.51C44.58 33.73 43.48 32.62 42.67 31.19C41.85 29.76 41.45 28.14 41.45 26.32C41.45 24.5 41.86 22.88 42.67 21.45C43.49 20.02 44.58 18.91 45.96 18.13C47.34 17.35 48.84 16.96 50.45 16.96C52.07 16.96 53.56 17.35 54.94 18.13C56.32 18.91 57.42 20.02 58.23 21.45C59.05 22.88 59.45 24.5 59.45 26.32C59.45 28.14 59.04 29.76 58.23 31.19C57.41 32.62 56.32 33.73 54.94 34.51C53.56 35.29 52.06 35.68 50.45 35.68ZM50.45 32.57C51.39 32.57 52.28 32.33 53.11 31.85C53.94 31.37 54.62 30.66 55.14 29.72C55.66 28.78 55.92 27.64 55.92 26.31C55.92 24.98 55.66 23.85 55.14 22.9C54.62 21.96 53.94 21.25 53.11 20.77C52.28 20.29 51.39 20.05 50.45 20.05C49.51 20.05 48.62 20.29 47.79 20.77C46.96 21.25 46.28 21.96 45.77 22.9C45.26 23.84 45 24.98 45 26.31C45 27.64 45.26 28.77 45.77 29.72C46.28 30.66 46.96 31.37 47.79 31.85C48.62 32.33 49.5 32.57 50.45 32.57ZM68.8 17.35C70.89 17.35 72.52 17.85 73.71 18.86C74.9 19.87 75.49 21.37 75.49 23.35C75.49 24.7 75.22 25.86 74.67 26.83C74.12 27.81 73.34 28.55 72.34 29.08C71.33 29.6 70.15 29.86 68.81 29.86H66.16V35.26H62.8V17.34H68.8V17.35ZM68.19 27.27C69.38 27.27 70.3 26.95 70.93 26.32C71.56 25.69 71.88 24.8 71.88 23.66C71.88 22.53 71.56 21.66 70.92 21.05C70.28 20.44 69.37 20.13 68.19 20.13H66.15V27.27H68.19ZM93.56 26.09C96.02 26.59 97.25 27.97 97.25 30.23C97.25 31.88 96.69 33.13 95.57 33.99C94.45 34.85 92.92 35.28 90.99 35.28H84.25V17.36H90.28C92.16 17.36 93.66 17.75 94.77 18.53C95.88 19.31 96.44 20.5 96.44 22.1C96.43 24.12 95.47 25.45 93.56 26.09ZM87.6 20V25.07H89.92C91.91 25.07 92.9 24.23 92.9 22.55C92.9 21.67 92.64 21.03 92.12 20.62C91.6 20.21 90.87 20 89.92 20H87.6ZM90.6 32.62C91.53 32.62 92.26 32.4 92.81 31.95C93.36 31.5 93.63 30.84 93.63 29.97C93.63 29.11 93.35 28.46 92.8 28.01C92.24 27.56 91.51 27.34 90.6 27.34H87.6V32.62H90.6ZM105.95 28.69H103.96V35.28H100.6V17.36H106.99C109.08 17.36 110.71 17.81 111.9 18.71C113.09 19.61 113.68 20.98 113.68 22.81C113.68 24.26 113.31 25.46 112.57 26.42C111.83 27.38 110.79 28.04 109.47 28.39L114.11 35.28H110.17L105.95 28.69ZM103.95 26.24H106.5C107.64 26.24 108.52 25.98 109.12 25.47C109.73 24.96 110.03 24.19 110.03 23.16C110.03 21.17 108.85 20.18 106.5 20.18H103.95V26.24ZM125.13 35.68C123.51 35.68 122.02 35.29 120.64 34.51C119.26 33.73 118.16 32.62 117.35 31.19C116.53 29.76 116.13 28.14 116.13 26.32C116.13 24.5 116.54 22.88 117.35 21.45C118.17 20.02 119.26 18.91 120.64 18.13C122.02 17.35 123.52 16.96 125.13 16.96C126.75 16.96 128.24 17.35 129.62 18.13C131 18.91 132.1 20.02 132.91 21.45C133.73 22.88 134.13 24.5 134.13 26.32C134.13 28.14 133.72 29.76 132.91 31.19C132.09 32.62 131 33.73 129.62 34.51C128.24 35.29 126.75 35.68 125.13 35.68ZM125.13 32.57C126.07 32.57 126.96 32.33 127.79 31.85C128.62 31.37 129.3 30.66 129.82 29.72C130.34 28.78 130.6 27.64 130.6 26.31C130.6 24.98 130.34 23.85 129.82 22.9C129.3 21.96 128.62 21.25 127.79 20.77C126.96 20.29 126.07 20.05 125.13 20.05C124.19 20.05 123.3 20.29 122.47 20.77C121.64 21.25 120.96 21.96 120.45 22.9C119.94 23.84 119.68 24.98 119.68 26.31C119.68 27.64 119.94 28.77 120.45 29.72C120.96 30.66 121.64 31.37 122.47 31.85C123.3 32.33 124.19 32.57 125.13 32.57ZM142.47 28.11L140.83 30.18V35.28H137.47V17.36H140.83V25.79L147.22 17.36H151.08L144.8 25.41L151.59 35.28H147.48L142.47 28.11ZM157.59 20.18V24.7H163.29V27.35H157.59V32.45H164.23V35.28H154.23V17.36H164.23V20.19H157.59V20.18ZM173.14 28.69H171.15V35.28H167.79V17.36H174.18C176.27 17.36 177.9 17.81 179.09 18.71C180.28 19.61 180.87 20.98 180.87 22.81C180.87 24.26 180.5 25.46 179.76 26.42C179.02 27.38 177.98 28.04 176.66 28.39L181.3 35.28H177.36L173.14 28.69ZM171.14 26.24H173.69C174.83 26.24 175.71 25.98 176.31 25.47C176.92 24.96 177.22 24.19 177.22 23.16C177.22 21.17 176.04 20.18 173.69 20.18H171.14V26.24ZM181.89 50.2C182.17 50.2 182.39 50.42 182.39 50.7C182.39 50.98 182.17 51.2 181.89 51.2H150.7C150.42 51.2 150.2 50.98 150.2 50.7C150.2 50.42 150.42 50.2 150.7 50.2H181.89ZM83.89 55.05C83.26 55.05 82.66 54.95 82.08 54.75C81.5 54.55 81.06 54.28 80.74 53.95L81.09 53.26C81.4 53.57 81.8 53.82 82.31 54C82.82 54.19 83.34 54.28 83.88 54.28C84.64 54.28 85.21 54.14 85.59 53.86C85.97 53.58 86.16 53.22 86.16 52.78C86.16 52.44 86.06 52.17 85.85 51.97C85.64 51.77 85.39 51.61 85.09 51.5C84.79 51.39 84.38 51.27 83.84 51.14C83.2 50.98 82.69 50.82 82.31 50.67C81.93 50.52 81.61 50.29 81.34 49.99C81.07 49.68 80.93 49.27 80.93 48.74C80.93 48.31 81.04 47.92 81.27 47.57C81.5 47.22 81.84 46.94 82.31 46.73C82.78 46.52 83.36 46.42 84.05 46.42C84.53 46.42 85.01 46.49 85.47 46.62C85.93 46.75 86.34 46.94 86.67 47.17L86.37 47.88C86.02 47.65 85.64 47.47 85.23 47.35C84.83 47.23 84.43 47.17 84.04 47.17C83.3 47.17 82.74 47.31 82.36 47.6C81.98 47.89 81.8 48.26 81.8 48.71C81.8 49.05 81.9 49.32 82.11 49.53C82.32 49.74 82.57 49.89 82.88 50C83.19 50.11 83.61 50.23 84.13 50.36C84.75 50.51 85.25 50.66 85.64 50.81C86.02 50.96 86.35 51.19 86.61 51.49C86.88 51.79 87.01 52.2 87.01 52.72C87.01 53.15 86.9 53.54 86.67 53.89C86.44 54.24 86.09 54.52 85.61 54.73C85.16 54.95 84.58 55.05 83.89 55.05ZM96.88 47.28H93.9V46.51H100.75V47.28H97.77V54.98H96.87V47.28H96.88ZM113.43 52.71H108.71L107.69 54.97H106.76L110.63 46.5H111.51L115.38 54.97H114.44L113.43 52.71ZM113.1 51.99L111.07 47.44L109.04 51.99H113.1ZM124.37 47.28H121.39V46.51H128.24V47.28H125.26V54.98H124.36V47.28H124.37ZM142.03 54.2V54.97H136.04V46.5H141.85V47.27H136.94V50.28H141.32V51.04H136.94V54.19H142.03V54.2Z" fill="black"/>
</svg>
