<svg width="310" height="103" viewBox="0 0 310 103" fill="none" xmlns="http://www.w3.org/2000/svg">
<rect width="310" height="103" fill="white"/>
<path d="M75.7268 50.7364C75.7268 50.7364 80.2265 48.8233 80.2265 43.8418C80.2265 38.8603 75.5714 36.3893 71.8155 36.3893H60V67.5941H71.1881C75.9229 67.5941 81.3218 65.8413 81.3218 59.1444C81.3218 52.4476 75.7268 50.7343 75.7268 50.7343V50.7364ZM71.1105 66.2576H63.0652V37.605H71.0533C74.0041 37.605 77.0142 39.7866 77.0142 43.5608C77.0142 47.3349 74.7561 50.2826 71.6316 50.2826H68.5071L67.986 51.2256H71.464C73.6546 51.2256 78.1544 53.6487 78.1544 58.7093C78.1544 63.77 74.4373 66.2597 71.1125 66.2597L71.1105 66.2576Z" fill="#2C2C2C"/>
<path d="M115.791 45.3052C115.791 37.3739 108.827 36.3914 105.517 36.3914H94.0996V67.5961H97.0688V37.8381H105.288C109.912 37.8381 112.65 41.4291 112.65 45.3031C112.65 49.1772 110.309 52.7244 105.355 52.7244H102.082L101.34 54.1296H103.69L111.966 67.5941H115.789L107.284 54.1296C107.284 54.1296 115.789 53.2344 115.789 45.3031L115.791 45.3052Z" fill="#2C2C2C"/>
<path d="M148.537 56.0864C148.537 61.6341 146.849 66.8384 139.881 66.8384C132.912 66.8384 131.564 61.3323 131.564 55.6118V36.3893H128.312V55.6118C128.312 64.3862 131.86 68 139.84 68C147.82 68 149.72 61.7632 149.72 55.8699V36.3893H148.537C148.327 36.3893 148.537 50.5366 148.537 56.0864Z" fill="#2C2C2C"/>
<path d="M175.018 50.6948C170.239 48.6443 166.213 46.5064 166.213 42.7073C166.213 38.2212 169.652 37.4114 173.089 37.4114C178.247 37.4114 181.057 40.2737 181.057 40.2737L181.854 39.2433C181.854 39.2433 178.123 36.0021 172.922 36.0021C167.721 36.0021 162.482 38.0942 162.482 42.9217C162.482 47.7491 166.045 49.4561 168.353 50.6948C170.66 51.9334 179.549 54.7104 179.549 60.1353C179.549 65.5602 175.65 66.8842 172.17 66.8842C165.964 66.8842 162.898 63.2475 162.898 63.2475L162.191 64.3695C162.191 64.3695 164.844 68.0021 171.888 68.0021C178.932 68.0021 183.031 64.1072 183.031 59.6648C183.031 55.2225 179.498 52.6141 175.023 50.6948H175.018Z" fill="#2C2C2C"/>
<path d="M209.099 36C203.024 36 195.085 39.466 195.085 50.9654C195.085 63.2454 200.059 68.0021 209.291 68.0021C217.997 68.0021 222.78 62.7104 222.78 52.0021C222.78 41.2938 217.373 36 209.099 36ZM208.932 66.8488C204.555 66.8488 198.479 64.6068 198.479 52C198.479 39.3932 204.698 37.3698 208.932 37.3698C213.166 37.3698 219.527 39.3682 219.527 52C219.527 64.6318 213.117 66.8488 208.932 66.8488Z" fill="#2C2C2C"/>
<path d="M254.709 36.5787L246.006 65.9329H245.464L236.763 36.5787H233.224C233.224 36.5787 242.614 67.4817 242.718 67.5878C242.822 67.694 246.59 67.5878 246.59 67.5878L256 36.5787H254.709Z" fill="#2C2C2C"/>
</svg>
