<svg width="310" height="103" viewBox="0 0 310 103" fill="none" xmlns="http://www.w3.org/2000/svg">
<rect width="310" height="103" fill="white"/>
<path d="M88.3773 29.9974C88.3773 35.2887 90.3133 37.6996 91.2812 38.905C94.1851 42.5179 97.1341 42.5179 98.612 42.5179C104.347 42.5179 107.702 38.7263 109.378 36.8271C109.412 36.792 109.589 36.5783 109.679 36.4696C109.943 36.1507 109.992 36.0772 110.016 36.0421V36.757C108.989 37.8643 108.704 38.1271 108.562 38.2603C103.57 42.8368 100.239 42.8368 98.5773 42.8368C92.5892 42.8017 89.9004 40.3102 88.5543 39.0627C84.5159 35.3273 84.5159 31.774 84.5159 29.9974C84.5159 26.6333 85.6018 24.7516 86.1465 23.8089C87.7737 20.981 89.7096 19.8387 90.6776 19.264C90.8198 19.1589 90.9967 19.0642 91.0869 19.0152C91.3506 18.8715 91.9057 18.6087 92.1833 18.479C93.0159 18.0831 93.6057 17.8833 93.9006 17.7817C94.7853 17.4768 95.6596 17.3226 96.0967 17.2456C97.4082 17.0108 98.2582 17.0108 98.6814 17.0108C100.843 16.9407 102.258 17.2736 102.966 17.4418C104.031 17.6555 104.715 17.8693 105.058 17.9779C106.085 18.3003 106.685 18.5491 106.987 18.6753C107.889 19.0502 108.056 19.0993 108.139 19.1238L108.316 25.4174C107.785 23.879 107.49 23.2342 107.341 22.9154C106.897 21.9482 106.213 21.1492 105.87 20.7498C104.843 19.5513 103.899 19.0012 103.428 18.7278C99.2504 16.2258 96.062 17.5855 94.4661 18.2653C91.5622 19.5163 90.5006 21.7555 89.9698 22.8768C88.3773 26.2409 88.3773 28.7429 88.3773 29.9974ZM168.61 42.4408V17.3997H168.257V37.7171L150.299 17.3997H145.591L147.291 19.0082V42.4022H147.714V19.5093L168.041 42.4408H168.61ZM225.484 42.0098V42.4408H207.211V17.3997H210.538V42.0098H225.484ZM126.103 21.2649L133.046 33.6417H119.019L126.103 21.2649ZM137.931 42.4022H141.969L127.557 17.3997H122.95L125.857 20.8689L113.423 42.4408H113.992L118.703 34.0692H133.327L137.931 42.4022ZM179.234 33.6417H193.257L186.315 21.2649L179.234 33.6417ZM193.541 34.0692H178.914L174.203 42.4408H173.638L186.068 20.8689L183.164 17.3997H187.768L202.184 42.4022H198.145L193.541 34.0692ZM92.1694 71.9042V46.8666H88.9463V58.8475H73.2231V46.8666H70V71.9042H73.1884L73.2231 59.2785H88.9463V71.9042H92.1694ZM187.557 71.9042V59.2785H171.833L171.799 71.9042H168.61V46.8666H171.833V58.8475H187.557V46.8666H190.78V71.9042H187.557ZM119.165 47.2941V46.8666H100.503V71.9042H119.165V71.4766H103.795V59.2785H117.891V58.8475H103.795V47.2941H119.165ZM208.515 47.2941V71.9042H205.15V47.2941H195.731V46.8666H217.973V47.2941H208.515ZM157.741 59.8357L155.51 62.5549L160.36 62.5935C160.35 63.4485 160.326 65.1656 158.643 67.3662C158.081 68.0986 156.96 69.5668 154.622 70.7302C153.845 71.1157 152.287 71.8901 150.091 71.8901C148.602 71.8901 145.629 71.8901 142.566 68.2983C141.542 67.0999 139.502 64.703 139.502 59.4782C139.502 58.1326 139.502 55.4379 141.483 52.1474C142.146 51.0506 143.468 48.857 146.514 47.641C147.707 47.1399 150.091 46.1377 153.456 47.2801C153.869 47.4027 154.695 47.641 155.614 48.2473C155.923 48.4505 156.537 48.857 157.193 49.7681C157.408 50.073 157.845 50.6792 158.199 51.359C158.317 51.5868 158.553 52.0388 159.049 53.2022C159.215 53.5877 159.545 54.3656 159.795 54.8667L159.618 48.5696C159.618 48.5696 159.583 48.5696 157.741 47.8723C157.127 47.641 155.899 47.175 154.445 46.8876C153.737 46.7229 152.322 46.3865 150.16 46.4601C149.737 46.4601 148.887 46.4601 147.576 46.6914C147.138 46.7685 146.264 46.9227 145.379 47.2275C145.084 47.3292 144.495 47.5324 143.662 47.9249C143.384 48.058 142.829 48.3208 142.566 48.461C142.476 48.5101 142.299 48.6047 142.156 48.7133C141.178 49.2985 139.218 50.4654 137.608 53.2723C137.07 54.2079 135.995 56.0827 135.995 59.4432C135.995 60.6136 135.995 62.9509 137.82 65.8839C138.427 66.8616 139.641 68.817 142.881 70.5515C143.964 71.1297 146.122 72.2861 150.091 72.3212C152.169 72.2966 156.322 72.2511 160.645 68.3158C160.905 68.018 161.422 67.4223 161.814 66.8476C161.942 66.6584 162.202 66.2764 162.608 65.0254C162.744 64.6084 163.018 63.7709 163.122 62.0924V59.8357H157.741ZM128.872 71.9042H125.864V46.8666H128.872V71.9042ZM221.276 70.7092C221.678 70.972 222.48 71.4977 224.076 71.9988V70.4604C223.427 69.7456 222.126 68.3123 221.276 64.8782V70.7092ZM220.762 58.2798C221.432 58.8685 222.764 60.0494 226.837 61.4091C227.677 61.6964 229.352 62.2676 230.876 62.8773C231.382 63.0806 232.399 63.4835 233.939 64.3981C234.452 64.6995 235.479 65.3092 236.291 66.329C236.565 66.6689 237.107 67.3487 237.637 68.8485C237.818 69.3496 238.172 70.3518 238.241 72.3212C238.689 71.6659 239.587 70.3518 239.889 68.5822C239.99 67.99 240.187 66.8125 239.57 65.523C239.362 65.0955 238.949 64.237 238.012 63.1962C237.696 62.8528 237.072 62.1625 235.691 61.4266C235.23 61.1848 234.31 60.6942 233.353 60.2842C233.033 60.144 232.399 59.8707 231.51 59.6219L230.307 59.2259C228.017 58.441 223.437 56.8676 221.879 53.2548C221.501 52.3962 220.745 50.6792 222.695 48.7098C223.389 48.009 224.783 46.6003 228.714 46.7089L229.776 46.8526C230.13 46.8981 230.841 46.9928 232.308 47.6025C232.798 47.8057 233.779 48.2087 234.557 49.1408C235.067 49.8066 236.08 51.1417 237.214 54.5058V48.8885C236.34 48.1982 234.595 46.814 229.176 46.4917C227.864 46.4111 225.245 46.2429 222.199 48.3349C221.182 49.0322 219.152 50.4269 218.976 53.4685C218.903 54.4812 218.764 56.5102 220.762 58.2798ZM140.904 83.85H138.961C138.878 83.85 138.749 83.85 138.749 83.9761C138.749 84.1023 138.878 84.0918 138.971 84.0918C139.506 84.0918 139.596 84.1794 139.596 84.7225V85.525C139.596 85.7598 139.617 86.1768 139.422 86.338C139.166 86.5622 138.687 86.6113 138.375 86.6113C137.584 86.6113 136.911 86.387 136.387 85.7493C135.918 85.1886 135.724 84.5088 135.724 83.7729C135.724 83.0756 135.953 82.2521 136.387 81.7019C136.855 81.0922 137.507 80.8469 138.236 80.8469C139.863 80.8469 139.69 82.0979 140.002 82.0979C140.102 82.0979 140.141 81.9998 140.141 81.9052L140.102 81.4601C140.075 81.1412 140.175 80.966 139.863 80.8399C139.422 80.6542 138.85 80.5665 138.382 80.5665C136.616 80.5665 134.888 81.9052 134.888 83.8395C134.888 84.7716 135.273 85.525 135.953 86.1172C136.598 86.6674 137.372 86.8706 138.198 86.8706C138.871 86.8706 139.589 86.7269 140.158 86.338C140.37 86.1943 140.324 86.0892 140.324 85.8369V84.7225C140.324 84.5789 140.304 84.295 140.425 84.1899C140.488 84.1233 140.626 84.1233 140.71 84.1128L140.883 84.0918C140.966 84.0918 141.06 84.0813 141.06 83.9656C141.06 83.871 140.977 83.85 140.904 83.85ZM146.438 86.6884C146.438 86.7865 146.344 86.7935 146.271 86.7935H145.296C145.112 86.7935 145.057 86.6113 144.984 86.4641L144.082 84.5789C143.752 83.899 143.759 83.822 143.062 83.822C142.989 83.822 142.906 83.8114 142.857 83.871C142.805 83.9376 142.812 84.1689 142.812 84.2565V85.7493C142.812 86.3695 142.777 86.5447 143.412 86.5517C143.492 86.5517 143.648 86.5447 143.648 86.6674C143.648 86.776 143.575 86.7935 143.492 86.7935C143.142 86.7935 142.812 86.755 142.462 86.755C142.111 86.755 141.764 86.7935 141.414 86.7935C141.331 86.7935 141.258 86.776 141.258 86.6674C141.258 86.5447 141.407 86.5517 141.49 86.5517C142.132 86.5517 142.087 86.359 142.087 85.7493V81.7895C142.087 81.1693 142.132 80.9835 141.49 80.9835C141.407 80.9835 141.258 80.9835 141.258 80.8679C141.258 80.7628 141.324 80.7242 141.424 80.7242C141.719 80.7242 142.031 80.7628 142.326 80.7628C142.857 80.7628 143.374 80.7242 143.898 80.7242C144.772 80.7242 145.636 81.1798 145.636 82.196C145.636 83.0756 144.946 83.5907 144.182 83.6958C144.477 83.7449 144.616 84.0848 144.744 84.3336L145.49 85.8474C145.653 86.1838 145.792 86.5517 146.198 86.5517C146.271 86.5517 146.438 86.5517 146.438 86.6884ZM144.432 83.2893C144.734 83.0475 144.856 82.6901 144.856 82.3011C144.856 81.4111 144.349 80.924 143.53 80.924C142.829 80.924 142.812 81.0221 142.812 81.7019V83.433C142.812 83.6748 143.124 83.6082 143.28 83.6082C143.704 83.6082 144.082 83.5696 144.432 83.2893ZM149.223 80.9835C149.307 80.9835 149.463 80.9835 149.463 80.8574C149.463 80.7523 149.39 80.7242 149.307 80.7242H147.229C147.135 80.7242 147.072 80.7523 147.072 80.8574C147.072 80.9835 147.218 80.9835 147.301 80.9835C147.947 80.9835 147.898 81.1693 147.898 81.779V85.7493C147.898 86.359 147.947 86.5517 147.301 86.5517C147.218 86.5517 147.072 86.5447 147.072 86.6674C147.072 86.776 147.145 86.7935 147.229 86.7935H149.307C149.39 86.7935 149.463 86.776 149.463 86.6674C149.463 86.5447 149.307 86.5517 149.223 86.5517C148.589 86.5447 148.627 86.3695 148.627 85.7493V81.779C148.627 81.1693 148.582 80.9835 149.223 80.9835ZM152.936 83.8395C153.203 84.1514 153.376 84.5789 153.376 84.9924C153.376 85.5355 153.13 86.0191 152.734 86.3695C152.318 86.7269 151.794 86.8706 151.26 86.8706C150.812 86.8706 150.261 86.7375 149.872 86.4957C149.716 86.387 149.775 86.1558 149.775 85.9805C149.775 85.7282 149.744 85.4584 149.775 85.2061C149.786 85.129 149.813 85.0134 149.914 85.0134C150.032 85.0134 150.032 85.2552 150.042 85.3323C150.132 86.1663 150.556 86.6884 151.395 86.6884C152.082 86.6884 152.766 86.1943 152.766 85.4304C152.766 84.6665 152.266 84.2775 151.642 83.9867L151.173 83.7729C150.5 83.4645 149.838 83.065 149.838 82.203C149.838 81.1868 150.712 80.5665 151.614 80.5665C151.975 80.5665 152.506 80.6366 152.846 80.7803C153.022 80.8504 153.043 80.98 153.054 81.1553C153.064 81.4041 153.04 81.6423 153.054 81.8946C153.054 81.9612 153.016 82.0103 152.953 82.0103C152.849 82.0103 152.832 81.8561 152.804 81.786C152.603 81.1202 152.325 80.7628 151.61 80.7628C151.003 80.7628 150.424 81.0922 150.424 81.7965C150.424 82.6305 151.433 82.9704 152.03 83.2403C152.336 83.3874 152.721 83.5907 152.943 83.8395H152.936ZM156.995 80.5665C155.34 80.5665 153.786 81.9507 153.786 83.7168C153.786 85.4829 155.34 86.8706 156.995 86.8706C158.743 86.8706 160.197 85.5846 160.197 83.7168C160.197 81.8491 158.743 80.5665 156.995 80.5665ZM158.792 85.6722C158.348 86.2434 157.723 86.6008 157.016 86.6008C156.308 86.6008 155.673 86.2994 155.232 85.7388C154.778 85.1781 154.615 84.4422 154.615 83.7168C154.615 82.9915 154.771 82.2906 155.194 81.7405C155.635 81.1482 156.298 80.8294 157.016 80.8294C157.734 80.8294 158.313 81.1588 158.754 81.7124C159.212 82.3011 159.361 82.9704 159.361 83.7168C159.361 84.4632 159.222 85.0905 158.792 85.6722ZM166.647 83.9656C166.647 84.0848 166.553 84.0918 166.473 84.0918L166.296 84.1128C166.213 84.1233 166.078 84.1233 166.012 84.1899C165.89 84.295 165.911 84.5754 165.911 84.7225V85.8369C165.911 86.0892 165.956 86.1943 165.745 86.3415C165.176 86.7269 164.458 86.8706 163.788 86.8706C162.959 86.8706 162.185 86.6674 161.543 86.1172C160.86 85.525 160.475 84.7716 160.475 83.8395C160.475 81.9052 162.202 80.5665 163.968 80.5665C164.44 80.5665 165.009 80.6542 165.45 80.8399C165.762 80.966 165.703 81.1728 165.731 81.4917V81.9052C165.727 81.9998 165.689 82.0979 165.589 82.0979C165.276 82.0979 165.45 80.8469 163.823 80.8469C163.098 80.8469 162.442 81.0887 161.973 81.7019C161.543 82.2521 161.311 83.0756 161.311 83.7729C161.311 84.5088 161.505 85.1886 161.973 85.7493C162.497 86.387 163.17 86.6113 163.961 86.6113C164.274 86.6113 164.752 86.5622 165.009 86.3415C165.203 86.1733 165.183 85.7598 165.183 85.525V84.7225C165.183 84.1794 165.092 84.0918 164.558 84.0918C164.464 84.0918 164.336 84.1023 164.336 83.9761C164.336 83.85 164.464 83.85 164.548 83.85H166.491C166.563 83.85 166.647 83.871 166.647 83.9656ZM170.165 80.5665C168.51 80.5665 166.956 81.9507 166.956 83.7168C166.956 85.4829 168.51 86.8706 170.165 86.8706C171.913 86.8706 173.367 85.5846 173.367 83.7168C173.367 81.8491 171.913 80.5665 170.165 80.5665ZM171.958 85.6722C171.518 86.2434 170.893 86.6008 170.182 86.6008C169.471 86.6008 168.843 86.2994 168.399 85.7388C167.948 85.1781 167.785 84.4422 167.785 83.7168C167.785 82.9915 167.941 82.2906 168.361 81.7405C168.805 81.1482 169.467 80.8294 170.182 80.8294C170.897 80.8294 171.48 81.1588 171.924 81.7124C172.382 82.3011 172.531 82.9704 172.531 83.7168C172.531 84.4632 172.392 85.0905 171.958 85.6722ZM178.599 81.786V86.7094C178.599 86.755 178.616 86.8916 178.536 86.8916C178.432 86.8916 178.349 86.7374 178.304 86.6604L174.442 81.3725V85.7493C174.442 86.3485 174.397 86.5517 175.039 86.5517C175.122 86.5517 175.268 86.5237 175.268 86.6498C175.268 86.755 175.206 86.7935 175.112 86.7935H173.502C173.412 86.7935 173.339 86.755 173.339 86.6498C173.339 86.5237 173.495 86.5517 173.579 86.5517C174.22 86.5517 174.175 86.3485 174.175 85.7493V81.786C174.175 81.1763 174.22 80.9835 173.579 80.9835C173.495 80.9835 173.346 80.9835 173.346 80.8784C173.346 80.7312 173.468 80.7242 173.568 80.7242H174.71C174.9 80.7698 174.973 80.9065 175.084 81.0606L178.342 85.5075V81.786C178.342 81.1763 178.377 80.9835 177.735 80.9835C177.652 80.9835 177.506 80.9835 177.506 80.8784C177.506 80.7733 177.579 80.7242 177.669 80.7242H179.279C179.362 80.7242 179.435 80.7698 179.435 80.8784C179.435 80.987 179.289 80.9835 179.196 80.9835C178.561 80.9835 178.599 81.1868 178.599 81.786ZM182.318 80.5665C180.663 80.5665 179.109 81.9507 179.109 83.7168C179.109 85.4829 180.663 86.8706 182.318 86.8706C184.063 86.8706 185.52 85.5846 185.52 83.7168C185.52 81.8491 184.063 80.5665 182.318 80.5665ZM184.112 85.6722C183.671 86.2434 183.043 86.6008 182.335 86.6008C181.628 86.6008 180.993 86.2994 180.552 85.7388C180.101 85.1781 179.934 84.4422 179.934 83.7168C179.934 82.9915 180.091 82.2906 180.514 81.7405C180.954 81.1482 181.617 80.8294 182.335 80.8294C183.053 80.8294 183.633 81.1588 184.073 81.7124C184.535 82.3011 184.681 82.9704 184.681 83.7168C184.681 84.4632 184.542 85.0905 184.112 85.6722ZM132.432 83.3174C132.605 83.5451 132.733 83.9376 132.733 84.2425C132.733 84.316 132.716 84.3966 132.629 84.3966H129.996C129.726 84.3966 129.639 84.3791 129.639 84.6805C129.639 85.7072 130.274 86.5938 131.325 86.5938C132.178 86.5938 132.501 86.0016 132.612 86.0016C132.657 86.0016 132.681 86.0366 132.681 86.0717C132.681 86.1838 132.404 86.4291 132.345 86.4851C131.936 86.8531 131.509 87.0003 130.968 87.0003C129.83 87.0003 128.987 86.0366 128.987 84.8907C128.987 84.267 129.15 83.7834 129.611 83.3629C130.048 82.9599 130.586 82.7497 131.179 82.7497C131.648 82.7497 132.126 82.9214 132.432 83.3174ZM132.04 83.7379C132.04 83.5451 131.936 83.3349 131.811 83.1982C131.62 82.9845 131.335 82.9144 131.058 82.9144C130.61 82.9144 130.187 83.1421 129.923 83.5276C129.847 83.6257 129.708 83.9096 129.708 84.0567C129.708 84.2039 129.906 84.1759 130.003 84.1759H130.707C130.978 84.1759 131.464 84.1689 131.717 84.1023C131.908 84.0567 132.04 83.9586 132.04 83.7379ZM128.865 86.5938H128.483C128.317 86.5938 128.345 86.1382 128.345 86.0366L128.334 80.7242C128.334 80.6507 128.334 80.6296 128.248 80.6296C128.185 80.6296 127.401 80.5841 127.155 80.6296C127.103 80.6401 127.068 80.7207 127.068 80.7838C127.068 80.903 127.165 80.945 127.245 80.938C127.862 80.8749 127.744 81.4461 127.744 81.786V82.6551C127.744 82.7111 127.779 82.995 127.675 82.995C127.63 82.995 127.554 82.9599 127.509 82.9389C127.221 82.8198 126.898 82.7672 126.579 82.7497C126.02 82.7216 125.482 83.0125 125.09 83.4085C124.698 83.8009 124.48 84.3055 124.48 84.8802C124.48 85.9805 125.257 86.9968 126.36 86.9968C127.064 86.9968 127.627 86.5658 127.699 86.3835C127.734 86.2994 127.744 86.6498 127.744 86.6884C127.755 86.741 127.786 86.9337 127.883 86.9337C127.935 86.9337 128.91 86.9617 128.955 86.9337C128.955 86.9337 129.035 86.8356 129.042 86.7164C129.042 86.7164 128.928 86.5938 128.865 86.5938ZM127.658 86.1733C127.411 86.4746 126.985 86.6043 126.631 86.6043C125.663 86.6043 125.125 85.6617 125.125 84.7436C125.125 83.8255 125.691 83.0055 126.638 82.9144C126.926 82.8863 127.325 82.995 127.536 83.2052C127.762 83.426 127.744 83.7729 127.744 84.0567V85.7142C127.744 85.8999 127.769 86.0261 127.658 86.1733Z" fill="#2C2C2C"/>
</svg>
