<svg width="310" height="103" viewBox="0 0 310 103" fill="none" xmlns="http://www.w3.org/2000/svg">
<rect width="310" height="103" fill="white"/>
<path d="M132.975 69.1573H135.446V73.8457H136.06V69.1573H138.546V68.5867H132.975V69.1573Z" fill="#2C2C2C"/>
<path d="M156.873 73.0746L155.185 68.5867H154.54L152.836 73.0746L151.271 68.5867H150.58L152.499 73.8457H153.159L154.862 69.3424L156.535 73.8457H157.211L159.129 68.5867H158.454L156.873 73.0746Z" fill="#2C2C2C"/>
<path d="M163.227 71.4552H166.926V70.8692H163.227V69.1727H167.601V68.5867H162.598V73.8457H167.663V73.2596H163.227V71.4552Z" fill="#2C2C2C"/>
<path d="M181.338 30.7402H176.703V60.4745H181.338V30.7402Z" fill="#2C2C2C"/>
<path d="M111.148 60.3666C102.215 60.1969 94.4181 55.9712 94.4181 45.6691C94.4181 35.3669 102.231 30.7865 111.148 30.7865C114.356 30.7865 117.365 31.4034 119.928 32.7606L120.388 31.4651C120.112 31.4034 119.851 31.3417 119.621 31.2646C116.981 30.4781 114.326 30.0154 111.148 30.0154C99.6214 30.0154 89 36.3694 89 45.6691C89 54.9688 99.6214 61.2457 111.148 61.2457C114.817 61.2457 118.408 60.5671 121.493 59.3487L121.217 58.6239C117.933 59.9348 114.602 60.4283 111.148 60.3666Z" fill="#2C2C2C"/>
<path d="M167.079 60.4745V30.7402H162.443V40.811H158.821C154.615 40.811 150.502 41.906 146.941 43.9726L139.865 48.0904C136.749 49.7869 133.726 49.9102 133.311 49.9257V30.7402H128.676V60.4745H133.311V50.4037H136.949C141.032 50.4037 145.038 49.3704 148.522 47.4118L156.411 43.001C159.68 41.2583 162.09 41.2891 162.459 41.3046V60.49H167.079V60.4745Z" fill="#2C2C2C"/>
<path d="M220.738 58.6239C217.438 59.9348 214.108 60.4129 210.654 60.3512C201.721 60.1816 193.924 55.9558 193.924 45.6537C193.924 35.3516 201.737 30.7711 210.654 30.7711C213.862 30.7711 216.871 31.388 219.434 32.7452L219.894 31.4497C219.618 31.388 219.357 31.3263 219.127 31.2492C216.487 30.4627 213.831 30 210.654 30C199.127 30 188.506 36.354 188.506 45.6537C188.506 54.9534 199.127 61.2303 210.654 61.2303C214.323 61.2303 217.914 60.5517 220.999 59.3333L220.738 58.6239Z" fill="#2C2C2C"/>
<path d="M171.975 71.2393V69.1573H174.815C175.659 69.1573 176.227 69.4812 176.227 70.1906C176.227 70.9 175.659 71.2239 174.815 71.2239H171.975V71.2393ZM176.871 70.206C176.871 69.1727 176.027 68.5867 174.861 68.5867H171.346V73.8457H171.975V71.8254H174.462L176.196 73.8457H177.025L175.229 71.8099C176.211 71.6866 176.871 71.1159 176.871 70.206Z" fill="#2C2C2C"/>
<path d="M144.441 73.4138C142.906 73.4138 141.893 72.6273 141.893 71.2084C141.893 69.7896 142.89 69.003 144.441 69.003C145.991 69.003 146.989 69.7896 146.989 71.2084C146.989 72.6273 145.975 73.4138 144.441 73.4138ZM144.441 68.417C142.445 68.417 141.248 69.4966 141.248 71.2084C141.248 72.9203 142.445 73.9999 144.441 73.9999C146.436 73.9999 147.633 72.9203 147.633 71.2084C147.618 69.4966 146.421 68.417 144.441 68.417Z" fill="#2C2C2C"/>
</svg>
