<svg width="310" height="103" viewBox="0 0 310 103" fill="none" xmlns="http://www.w3.org/2000/svg">
<rect width="310" height="103" fill="white"/>
<path d="M224.67 34H212.42C208.83 34 205.78 34.74 203.26 36.2C200.74 37.67 198.93 39.72 197.83 42.37C197.13 44.05 196.93 45.59 197.23 46.96C197.59 48.41 198.48 49.45 199.92 50.08C201.23 50.65 203.44 50.93 206.52 50.93H217.5L218.6 48.24H212.41C209.43 48.24 207.44 47.86 206.45 47.09C205.37 46.26 205.49 44.34 206.33 42.3C207.81 38.78 210.89 36.58 215.15 36.58H219.94L218.84 39.23H222.48L224.65 34H224.67ZM181.94 44.17L189.33 36.98L190.87 44.17H181.95H181.94ZM119.09 44.2L126.29 37.32L127.59 44.2H119.09ZM188.7 34.02L184.19 34.03L166.87 50.23L173.64 34.03H166.22L157.25 41.05L152.63 44.84H152.42L154.59 39.32L151.95 34.03H144.49L137.71 50.26L133.81 34.03H125.64L107.59 50.94H112.1L116.71 46.52H128.08L128.99 50.94H141.07L145.44 40.49C145.66 39.97 145.87 39.36 146.08 38.69C146.1 39.24 146.25 39.81 146.52 40.43L150.36 49.15H151.01L162 40.46C162.41 40.13 163.04 39.54 163.87 38.69C163.44 39.48 163.15 40.08 162.97 40.49L158.6 50.94H166.58H174.99L179.55 46.5H191.36L192.31 50.94H196.46L192.42 34.02H188.7ZM112.83 42.39C113.93 39.75 113.84 37.7 112.54 36.23C111.26 34.77 108.82 34.03 105.23 34.03H93.09L91.99 36.68H100.35C104.61 36.68 105.85 38.8 104.38 42.32C103.53 44.35 102.78 46.23 101 47.06C99.38 47.82 97.7 48.05 94.71 48.05H90.85L93.74 41.19H90.1L86 50.94H97C100.08 50.94 102.52 50.65 104.32 50.09C106.29 49.46 108.05 48.42 109.6 46.98C111.05 45.6 112.13 44.08 112.83 42.39Z" fill="#2C2C2C"/>
<path d="M130.54 61.96H130.06C130.04 61.6 129.98 61.3 129.9 61.06C129.82 60.82 129.69 60.63 129.54 60.48C129.39 60.33 129.2 60.24 128.97 60.18C128.75 60.13 128.49 60.1 128.2 60.1C127.91 60.1 127.68 60.1 127.51 60.12C127.34 60.13 127.2 60.15 127.11 60.17C127.02 60.2 126.96 60.23 126.93 60.27C126.9 60.32 126.89 60.37 126.89 60.44V66.24C126.89 66.48 126.91 66.68 126.94 66.85C126.97 67.02 127.04 67.16 127.14 67.27C127.24 67.38 127.4 67.46 127.59 67.51C127.79 67.57 128.05 67.6 128.38 67.6V68.04H123.74V67.6C124.07 67.6 124.34 67.56 124.54 67.51C124.74 67.46 124.89 67.37 125 67.27C125.11 67.16 125.18 67.02 125.21 66.85C125.24 66.68 125.26 66.48 125.26 66.24V60.44C125.26 60.37 125.25 60.32 125.22 60.27C125.19 60.23 125.14 60.19 125.06 60.17C124.98 60.15 124.86 60.13 124.71 60.12C124.56 60.11 124.36 60.1 124.12 60.1C123.85 60.1 123.6 60.11 123.36 60.14C123.12 60.17 122.9 60.24 122.72 60.36C122.54 60.48 122.39 60.67 122.27 60.91C122.16 61.16 122.09 61.51 122.09 61.96H121.66L121.77 59.52H130.44L130.55 61.96H130.54Z" fill="#2C2C2C"/>
<path d="M140.051 67.4399C140.481 67.4399 140.871 67.3599 141.211 67.1899C141.561 67.0199 141.851 66.7899 142.101 66.4799C142.341 66.1699 142.531 65.7999 142.661 65.3599C142.791 64.9199 142.851 64.4299 142.851 63.8799C142.851 63.2999 142.791 62.7899 142.661 62.3199C142.531 61.8599 142.341 61.4599 142.101 61.1299C141.861 60.7999 141.561 60.5499 141.211 60.3799C140.861 60.2099 140.481 60.1199 140.051 60.1199C139.621 60.1199 139.221 60.2099 138.881 60.3799C138.541 60.5499 138.241 60.8099 138.001 61.1299C137.761 61.4599 137.571 61.8499 137.441 62.3199C137.311 62.7799 137.251 63.2999 137.251 63.8799C137.251 64.4599 137.321 64.9199 137.441 65.3599C137.571 65.7999 137.761 66.1699 138.001 66.4799C138.241 66.7899 138.541 67.0199 138.881 67.1899C139.221 67.3599 139.611 67.4399 140.051 67.4399ZM140.051 59.4099C140.721 59.4099 141.331 59.5199 141.911 59.7499C142.491 59.9799 142.991 60.2899 143.411 60.6899C143.841 61.0899 144.171 61.5599 144.411 62.0999C144.651 62.6399 144.781 63.2199 144.781 63.8499C144.781 64.4799 144.661 65.0099 144.411 65.5299C144.161 66.0599 143.831 66.5099 143.401 66.8999C142.971 67.2899 142.471 67.5899 141.901 67.8199C141.321 68.0399 140.711 68.1599 140.051 68.1599C139.391 68.1599 138.781 68.0499 138.201 67.8199C137.621 67.5899 137.121 67.2899 136.691 66.8999C136.261 66.5099 135.921 66.0599 135.681 65.5299C135.441 65.0099 135.311 64.4399 135.311 63.8499C135.311 63.2199 135.431 62.6399 135.681 62.0999C135.921 61.5599 136.261 61.0899 136.681 60.6899C137.101 60.2899 137.601 59.9799 138.181 59.7499C138.761 59.5199 139.381 59.4099 140.041 59.4099" fill="#2C2C2C"/>
<path d="M158.97 65.9L160.46 61.62C160.64 61.13 160.73 60.76 160.73 60.51C160.73 60.28 160.65 60.13 160.49 60.06C160.33 59.99 160.09 59.95 159.75 59.95V59.51H162.9V59.95C162.62 59.95 162.37 60.02 162.14 60.16C161.91 60.3 161.74 60.53 161.62 60.85L158.95 68.15H157.96L156.03 62.3L153.84 68.15H152.92L150.57 61.68C150.43 61.3 150.3 61 150.18 60.77C150.06 60.54 149.94 60.37 149.8 60.25C149.66 60.13 149.52 60.05 149.37 60.02C149.22 59.98 149.03 59.96 148.82 59.96V59.51H153.01V59.96C152.63 59.96 152.37 60 152.24 60.07C152.1 60.14 152.03 60.26 152.03 60.42C152.03 60.48 152.03 60.54 152.04 60.59C152.04 60.64 152.06 60.71 152.08 60.78C152.1 60.85 152.13 60.94 152.16 61.04C152.19 61.14 152.24 61.27 152.3 61.43L153.85 65.89L155.64 60.99C155.57 60.79 155.49 60.63 155.42 60.5C155.35 60.38 155.26 60.27 155.16 60.2C155.06 60.13 154.95 60.07 154.82 60.04C154.69 60.01 154.54 59.98 154.37 59.96V59.51H158.28V59.96C157.97 59.96 157.74 60 157.59 60.08C157.44 60.16 157.37 60.31 157.37 60.53C157.37 60.64 157.39 60.77 157.42 60.92C157.45 61.07 157.5 61.24 157.56 61.43L158.96 65.89L158.97 65.9Z" fill="#2C2C2C"/>
<path d="M170.13 63.33C170.6 63.33 170.98 63.31 171.27 63.29C171.56 63.26 171.78 63.2 171.94 63.11C172.1 63.02 172.21 62.88 172.28 62.71C172.35 62.53 172.4 62.29 172.43 61.99H172.84V65.24H172.43C172.39 64.95 172.33 64.71 172.25 64.53C172.18 64.35 172.06 64.22 171.89 64.13C171.73 64.04 171.51 63.98 171.23 63.95C170.95 63.92 170.58 63.91 170.12 63.91V66.19C170.12 66.43 170.15 66.63 170.21 66.79C170.27 66.95 170.38 67.08 170.53 67.18C170.68 67.28 170.87 67.35 171.12 67.39C171.36 67.43 171.66 67.45 172.02 67.45C172.44 67.45 172.8 67.42 173.09 67.36C173.38 67.3 173.62 67.2 173.81 67.05C174 66.9 174.16 66.71 174.28 66.46C174.4 66.21 174.5 65.9 174.58 65.52H175.02L174.84 68.06H167.33V67.62C167.57 67.62 167.77 67.59 167.93 67.55C168.08 67.51 168.2 67.45 168.28 67.36C168.36 67.27 168.42 67.15 168.45 66.98C168.48 66.82 168.49 66.61 168.49 66.35V61.23C168.49 60.97 168.48 60.76 168.45 60.61C168.42 60.45 168.37 60.32 168.3 60.23C168.23 60.14 168.12 60.07 167.98 60.04C167.84 60.01 167.66 59.98 167.44 59.97V59.53H174.44L174.52 61.7H174.04C174 61.39 173.93 61.13 173.83 60.93C173.73 60.73 173.6 60.56 173.43 60.44C173.26 60.32 173.04 60.23 172.77 60.18C172.5 60.13 172.17 60.11 171.78 60.11H170.53C170.34 60.11 170.22 60.13 170.18 60.18C170.14 60.23 170.11 60.34 170.11 60.52V63.33H170.13Z" fill="#2C2C2C"/>
<path d="M182.8 63.45H183.52C184.21 63.45 184.73 63.32 185.08 63.05C185.42 62.78 185.6 62.34 185.6 61.71C185.6 61.24 185.46 60.86 185.17 60.57C184.88 60.28 184.48 60.14 183.97 60.14H183.01C182.88 60.14 182.81 60.2 182.81 60.33V63.45H182.8ZM187.32 61.66C187.32 62.27 187.14 62.79 186.79 63.2C186.44 63.61 185.87 63.89 185.1 64.03L187.67 66.98C187.85 67.19 188.06 67.34 188.3 67.45C188.54 67.56 188.79 67.61 189.04 67.61V68.05H186.41L183.66 64.68C183.48 64.46 183.31 64.31 183.18 64.23C183.04 64.15 182.91 64.11 182.8 64.11V66.28C182.8 66.55 182.82 66.78 182.86 66.95C182.9 67.12 182.97 67.26 183.08 67.35C183.19 67.45 183.35 67.51 183.56 67.54C183.77 67.57 184.05 67.59 184.41 67.59V68.03H180.01V67.59C180.25 67.59 180.45 67.57 180.6 67.54C180.75 67.51 180.87 67.44 180.95 67.35C181.04 67.26 181.09 67.13 181.12 66.96C181.15 66.79 181.16 66.58 181.16 66.32V61.2C181.16 60.94 181.15 60.73 181.13 60.57C181.11 60.41 181.06 60.29 180.99 60.19C180.92 60.1 180.81 60.04 180.67 60C180.53 59.97 180.35 59.94 180.12 59.93V59.49H183.95C185.02 59.49 185.85 59.68 186.43 60.06C187.01 60.44 187.31 60.96 187.31 61.63" fill="#2C2C2C"/>
</svg>
