<svg width="310" height="103" viewBox="0 0 310 103" fill="none" xmlns="http://www.w3.org/2000/svg">
<rect width="310" height="103" fill="white"/>
<path d="M253.835 42.2193L253.934 42.0313H236.576C231.461 42.0313 227.105 43.0341 223.508 45.0082C219.911 47.0136 217.337 49.7711 215.753 53.3747C214.763 55.6621 214.466 57.7302 214.895 59.6104C215.39 61.5845 216.677 62.9632 218.723 63.8406C220.604 64.624 223.739 65 228.161 65H243.836L245.387 61.3651H236.576C232.319 61.3651 229.481 60.8324 228.062 59.7984C226.511 58.6703 226.676 56.0695 227.897 53.312C230.009 48.549 234.398 45.5722 240.503 45.5722H247.334L245.75 49.1444H250.964L254 42.2507H253.835V42.2193ZM193.049 55.7875L203.609 46.0422L205.787 55.7875H193.049ZM103.256 55.8188L113.552 46.4809L115.4 55.8188H103.256ZM202.718 42L196.283 42.0313L171.533 64.0286L181.202 42.0627H170.609L157.805 51.5886L151.205 56.7275H150.908L154.01 49.2384L150.215 42.0313H139.556L129.887 64.0286L124.277 42.0313H112.595L86.822 64.9687H93.257L99.857 58.9837H116.093L117.38 64.9687H134.639L140.876 50.7738C141.206 50.0531 141.503 49.2384 141.8 48.3297C141.833 49.0817 142.031 49.8651 142.427 50.6798L147.905 62.5245H148.829L164.537 50.7425C165.131 50.3038 166.022 49.4891 167.21 48.3297C166.616 49.3951 166.187 50.2098 165.923 50.7738L159.686 64.9687H183.083L189.584 58.9523H206.447L207.8 64.9687H213.74L207.965 42H202.718ZM89.693 59.579C91.772 57.6989 93.29 55.6308 94.313 53.3433C95.897 49.7711 95.765 46.9823 93.917 44.9768C92.069 43.0027 88.571 42 83.456 42H66.131L64.547 45.6035H76.493C82.598 45.6035 84.347 48.4864 82.235 53.2493C81.014 56.0068 79.958 58.545 77.417 59.673C75.107 60.7071 72.698 61.0204 68.441 61.0204H62.93L67.055 51.7452H61.841L56 64.9687H71.708C76.13 64.9687 79.595 64.5926 82.169 63.8093C84.974 62.9319 87.482 61.5531 89.693 59.579Z" fill="#2C2C2C"/>
</svg>
