<svg width="310" height="103" viewBox="0 0 310 103" fill="none" xmlns="http://www.w3.org/2000/svg">
<rect width="310" height="103" fill="white"/>
<path d="M116.57 58.0313L116.684 35.6875H113.381V67.5417H116.342L123.29 45.3125L123.176 67.4271H126.48V35.6875H123.404L116.57 58.0313ZM97.3203 47.4896H95.9535V35.6875H92.6503V67.5417H97.3203C101.193 67.5417 104.041 63.6458 104.041 57C104.155 51.6146 101.99 47.4896 97.3203 47.4896ZM95.9535 64.2188V50.6979H97.2064C99.8262 50.6979 100.851 53.4479 100.851 57.2292C100.851 61.0104 99.7123 64.2188 96.9786 64.2188H95.9535ZM68.9583 67.4271H72.3754C75.9064 59.0625 75.5647 38.8958 75.5647 38.8958H79.4374V67.4271H82.7406V35.6875H72.3754C72.1476 41.9896 72.831 57.5729 68.9583 67.4271ZM51.1893 58.0313L51.3032 35.6875H48V67.5417H51.0754L57.9096 45.1979V67.4271H61.2128V35.6875H58.1374L51.1893 58.0313ZM219.881 47.6042L224.893 38.7812V35.6875H213.502V39.0104H221.248L216.35 47.6042V50.9271H217.944C221.02 50.9271 222.387 53.9063 222.387 57.5729C222.387 61.8125 221.248 64.7917 219.197 64.7917C217.261 64.7917 216.122 62.3854 216.122 57.5729C216.122 55.3958 216.805 54.0208 216.805 54.0208H213.616C213.274 54.8229 212.933 56.8854 212.933 58.6042C212.933 63.5313 214.869 68 219.083 68C223.753 68 225.576 62.6146 225.576 57.4583C225.462 52.0729 223.867 48.5208 219.881 47.6042ZM258.95 50.125C259.975 47.9479 260.317 45.8854 260.317 43.5938C260.317 39.0104 258.152 35 254.394 35C250.635 35 248.357 38.5521 248.357 43.3646C248.357 45.5417 248.698 47.8333 249.724 50.125C248.129 52.3021 247.673 54.9375 247.673 58.1458C247.673 63.1875 249.724 67.8854 254.394 67.8854C259.064 67.8854 261 63.1875 261 58.0313C261 55.1667 260.544 52.0729 258.95 50.125ZM254.394 38.2083C256.33 38.2083 257.127 40.6146 257.127 43.4792C257.127 46.8021 256.444 48.0625 256.33 48.1771C254.507 47.2604 252.343 47.9479 252.229 48.0625C252.229 47.9479 251.432 46.6875 251.432 43.4792C251.546 40.5 252.571 38.2083 254.394 38.2083ZM254.394 64.6771C252.002 64.6771 250.863 61.8125 250.863 57.9167C250.863 54.25 251.888 51.0417 254.394 51.0417C256.899 51.0417 257.811 54.25 257.811 58.0313C257.811 61.8125 256.672 64.6771 254.394 64.6771ZM229.904 67.8854H233.549L242.889 35.5729H239.244L229.904 67.8854ZM146.299 49.2083H139.92V35.6875H136.617V67.5417H139.92V52.5312H146.299V67.5417H149.602V35.6875H146.299V49.2083ZM184.343 35.6875L179.673 67.5417H182.976L184.115 59.9792H190.266L191.291 67.5417H194.708L190.266 35.6875H184.343ZM184.457 56.6562L186.963 38.8958H187.304L189.81 56.6562H184.457ZM170.219 49.3229H166.688L172.383 35.5729H168.852L163.157 49.3229L162.929 49.7812V35.6875H159.626V67.5417H162.929V52.5312H166.802C166.688 59.9792 168.282 64.6771 169.421 67.5417H172.839C171.016 62.6146 169.649 57.2292 170.219 49.3229Z" fill="#2C2C2C"/>
</svg>
