<svg width="310" height="103" viewBox="0 0 310 103" fill="none" xmlns="http://www.w3.org/2000/svg">
<rect width="310" height="103" fill="white"/>
<path d="M82.5041 54.9546H78.9365V69.5176H82.5041V54.9546Z" fill="#2C2C2C"/>
<path d="M68.5675 34.1863H65V69.5176H68.5675V34.1863Z" fill="#2C2C2C"/>
<path d="M102.855 54.9546H99.2871V69.5176H102.855V54.9546Z" fill="#2C2C2C"/>
<path d="M148.509 34.1863H144.941V69.5176H148.509V34.1863Z" fill="#2C2C2C"/>
<path d="M162.211 34.1863H158.644V69.5176H162.211V34.1863Z" fill="#2C2C2C"/>
<path d="M225.788 34.1863H222.221V69.5176H225.788V34.1863Z" fill="#2C2C2C"/>
<path d="M244.793 69.5176H240.542L234.442 56.3575H238.692L244.793 69.5176Z" fill="#2C2C2C"/>
<path d="M235.235 54.3913H228.35V50.8132H235.235C238.624 50.8132 241.382 48.0553 241.382 44.6665V44.4367C241.382 41.0479 238.624 38.29 235.235 38.29H228.35V34.7135H235.235C240.598 34.7135 244.96 39.0757 244.96 44.4382V44.668C244.96 50.0306 240.598 54.3928 235.235 54.3928V54.3913Z" fill="#2C2C2C"/>
<path d="M170.57 69.1811H164.991V65.4934H170.57C175.164 65.4934 178.901 62.0266 178.901 57.765V45.4161C178.901 41.1546 175.164 37.6877 170.57 37.6877H164.991V34H170.57C177.197 34 182.59 39.1207 182.59 45.4161V57.765C182.59 64.0604 177.197 69.1811 170.57 69.1811Z" fill="#2C2C2C"/>
<path d="M202.22 69.396C195.609 69.396 190.231 64.0184 190.231 57.4075V46.409C190.231 39.7982 195.609 34.4206 202.22 34.4206C208.831 34.4206 214.208 39.7982 214.208 46.409H210.521C210.521 41.8321 206.797 38.1083 202.22 38.1083C197.643 38.1083 193.919 41.8321 193.919 46.409V57.4075C193.919 61.9845 197.643 65.7082 202.22 65.7082C206.797 65.7082 210.521 61.9845 210.521 57.4075H214.208C214.208 64.0184 208.831 69.396 202.22 69.396Z" fill="#2C2C2C"/>
<path d="M208.692 53.6913V50.1237H196.34V53.6913H208.692Z" fill="#2C2C2C"/>
<path d="M102.854 52.7104H99.1661V46.409C99.1661 41.8321 95.4423 38.1083 90.8654 38.1083C86.2884 38.1083 82.5647 41.8321 82.5647 46.409V52.7104H78.877V46.409C78.877 39.7982 84.2545 34.4206 90.8654 34.4206C97.4762 34.4206 102.854 39.7982 102.854 46.409V52.7104Z" fill="#2C2C2C"/>
<path d="M124.308 57.5758L120.623 57.412C120.623 57.394 120.691 54.4318 118.585 52.2628C116.51 50.1253 113.524 50.1012 113.419 50.1012C113.419 50.1012 113.417 50.1012 113.416 50.1012L111.532 50.1418L111.543 48.2566V45.9884C111.543 39.3776 116.92 34 123.531 34C130.142 34 135.52 39.3776 135.52 45.9884H131.832C131.832 41.4115 128.108 37.6877 123.531 37.6877C118.954 37.6877 115.23 41.4115 115.23 45.9884V46.5953C116.865 46.8942 119.268 47.6723 121.23 49.6926C124.468 53.0289 124.314 57.391 124.306 57.5743L124.308 57.5758Z" fill="#2C2C2C"/>
<path d="M123.533 69.8811C116.923 69.8811 111.545 64.5035 111.545 57.8927H115.233C115.233 62.4697 118.956 66.1934 123.533 66.1934C128.11 66.1934 131.834 62.4697 131.834 57.8927H135.522C135.522 64.5035 130.144 69.8811 123.533 69.8811Z" fill="#2C2C2C"/>
</svg>
