<svg width="310" height="103" viewBox="0 0 310 103" fill="none" xmlns="http://www.w3.org/2000/svg">
<rect width="310" height="103" fill="white"/>
<path d="M64.7966 32.9772H66.2991C67.9089 32.9772 68.9392 31.9045 68.9392 30.5529C68.9392 29.2013 67.9089 28.1287 66.2991 28.1287H63.4873V36.045H64.7966V32.9557V32.9772ZM64.7966 29.373H66.2991C67.1792 29.373 67.6514 29.9093 67.6514 30.5744C67.6514 31.2394 67.1792 31.7758 66.2991 31.7758H64.7966V29.3515V29.373Z" fill="#2C2C2C"/>
<path d="M78.0395 34.8007H74.5837V32.6554H77.0092V31.4111H74.5837V29.373H78.0395V28.1287H73.2744V36.045H78.0395V34.8007Z" fill="#2C2C2C"/>
<path d="M87.3126 33.7925C87.3126 32.9343 86.9048 32.1835 86.0462 31.8402C86.6472 31.4326 86.8618 30.7461 86.8618 30.1668C86.8618 28.7938 85.9389 28 84.4149 28C83.5993 28 82.9124 28.1502 82.4187 28.3862V29.6734C82.9553 29.373 83.5349 29.2014 84.2432 29.2014C85.1447 29.2014 85.5954 29.6519 85.5954 30.317C85.5954 30.982 85.2091 31.4111 84.4149 31.4111H83.5778V32.5267H84.5008C85.574 32.5267 86.0462 32.9772 86.0462 33.7067C86.0462 34.4361 85.4667 34.951 84.4364 34.951C83.7066 34.951 82.8051 34.6506 82.1826 34.2001V35.6589C82.7622 35.9807 83.5349 36.1953 84.5008 36.1953C86.0462 36.1953 87.3126 35.3371 87.3126 33.7925Z" fill="#2C2C2C"/>
<path d="M97.2498 36.0451H98.5592V28L93.1716 33.1918V28.1287H91.8623V36.1738L97.2713 30.982V36.0451H97.2498Z" fill="#2C2C2C"/>
<path d="M104.119 36.045H109.549V37.697H110.751V34.8007H109.743V28.1287H104.076V32.2907C104.076 34.3073 103.604 34.8007 103.067 34.8007H102.917V37.697H104.119V36.045ZM105.407 32.4408V29.3944H108.433V34.8222H104.935C105.235 34.3288 105.407 33.6637 105.407 32.4623V32.4408Z" fill="#2C2C2C"/>
<path d="M119.916 34.8007H116.461V32.6554H118.886V31.4111H116.461V29.373H119.916V28.1287H115.151V36.045H119.916V34.8007Z" fill="#2C2C2C"/>
<path d="M125.755 32.6554H129.683V36.045H130.992V28.1287H129.683V31.4111H125.755V28.1287H124.445V36.045H125.755V32.6554Z" fill="#2C2C2C"/>
<path d="M141.96 37.697H143.162V34.8007H142.153V28.1287H140.844V34.8007H137.302V28.1287H135.972V36.045H141.96V37.697Z" fill="#2C2C2C"/>
<path d="M153.014 36.0451H154.324V28L148.915 33.1918V28.1287H147.584V36.1738L152.993 30.982V36.0451H153.014Z" fill="#2C2C2C"/>
<path d="M164.734 36.0451H166.044V28L160.635 33.1918V28.1287H159.325V36.1738L164.734 30.982V36.0451Z" fill="#2C2C2C"/>
<path d="M182.485 36.0451H183.795V28L178.407 33.1918V28.1287H177.098V36.1738L182.507 30.982V36.0451H182.485Z" fill="#2C2C2C"/>
<path d="M200.472 33.7495C200.472 32.8056 199.979 32.0332 198.991 31.7543C199.442 31.3896 199.657 30.8748 199.657 30.2526C199.657 29.1799 198.734 28.1501 197.253 28.1501H194.827V36.0665H197.918C199.421 36.0665 200.472 35.0582 200.472 33.7495ZM196.136 29.3301H197.231C197.939 29.3301 198.39 29.8235 198.39 30.4028C198.39 31.0035 197.961 31.4755 197.231 31.4755H196.136V29.3301ZM196.136 34.8651V32.591H197.875C198.712 32.591 199.184 33.063 199.184 33.7281C199.184 34.3931 198.712 34.8651 197.875 34.8651H196.136Z" fill="#2C2C2C"/>
<path d="M210.324 36.0451H211.633V28L206.246 33.1918V28.1287H204.937V36.1738L210.346 30.982V36.0451H210.324Z" fill="#2C2C2C"/>
<path d="M218.631 33.7066V29.3944H221.658V36.0665H222.988V28.1287H217.322V33.535C217.322 34.672 217.064 34.9724 216.506 34.9724C216.335 34.9724 216.206 34.9724 216.077 34.9295L215.862 36.0879C216.077 36.1523 216.356 36.1952 216.699 36.1952C217.816 36.1952 218.653 35.4443 218.653 33.728L218.631 33.7066Z" fill="#2C2C2C"/>
<path d="M229.986 33.7066V29.3944H233.012V36.0665H234.343V28.1287H228.676V33.535C228.676 34.672 228.419 34.9724 227.861 34.9724C227.689 34.9724 227.56 34.9724 227.431 34.9295L227.217 36.0879C227.431 36.1523 227.71 36.1952 228.054 36.1952C229.17 36.1952 230.007 35.4443 230.007 33.728L229.986 33.7066Z" fill="#2C2C2C"/>
<path d="M244.817 33.5993C244.817 32.1405 243.722 31.1322 242.113 31.1322H240.675V28.1287H239.365V36.045H242.113C243.722 36.045 244.817 35.0367 244.817 33.5993ZM240.675 34.8222V32.355H242.091C242.993 32.355 243.529 32.7841 243.529 33.5993C243.529 34.4146 242.993 34.8222 242.091 34.8222H240.675Z" fill="#2C2C2C"/>
<path d="M246.942 28.1287H245.633V36.045H246.942V28.1287Z" fill="#2C2C2C"/>
<path d="M200.408 52.2855V76.6353H201.159L217.837 58.7645V76.6353H220.799V52.2855H220.048L203.37 70.3709V52.2855H200.408Z" fill="#2C2C2C"/>
<path d="M272.249 52.2855L255.571 70.3709V52.2855H252.609V76.6353H253.361L270.038 58.7645V76.6353H273V52.2855H272.249Z" fill="#2C2C2C"/>
<path d="M40.6489 76.6353L48.3761 66.5951L56.1032 76.6353H59.7522L50.3293 64.2137L59.3873 52.2855H55.7383L48.3975 62.0898L41.0353 52.2855H37.3864L46.4228 64.2137L37 76.6353H40.6489Z" fill="#2C2C2C"/>
<path d="M93.2795 58.8718L102.445 69.0408L111.224 58.9147V76.6353H114.186V52.2855H113.434L102.423 64.7715L91.0686 52.2855H90.3174V76.6353H93.2795V58.8718Z" fill="#2C2C2C"/>
<path d="M132.623 77C139.685 77 145.158 71.6795 145.158 64.4496C145.158 57.2198 139.685 51.8993 132.623 51.8993C125.561 51.8993 120.088 57.3914 120.088 64.4496C120.088 71.8511 125.561 77 132.623 77ZM132.623 54.7097C137.839 54.7097 142.046 58.8073 142.046 64.4711C142.046 70.1348 138.204 74.2325 132.623 74.2325C127.407 74.2325 123.2 70.0061 123.2 64.4711C123.2 58.8073 127.321 54.7097 132.623 54.7097Z" fill="#2C2C2C"/>
<path d="M68.0158 70.4138H79.5851L82.4827 76.6139H85.8956L74.1546 52.264H73.4033L61.9414 76.6139H65.204L68.0158 70.4138ZM73.7038 57.7776L78.2972 67.6248H69.2822L73.7253 57.7776H73.7038Z" fill="#2C2C2C"/>
<path d="M175.487 65.4365H189.332V76.6139H192.294V52.264H189.332V62.6476H175.487V52.264H172.525V76.6139H175.487V65.4365Z" fill="#2C2C2C"/>
<path d="M231.874 52.2855H228.912V76.6353H231.874V52.2855Z" fill="#2C2C2C"/>
<path d="M151.104 76.6353H157.973C162.91 76.6353 165.893 73.9536 165.893 69.9847C165.893 67.0241 164.391 64.6642 160.57 63.6988V63.5701C161.88 62.6476 163.532 60.9313 163.532 58.5071C163.532 54.8814 160.785 52.2855 156.234 52.2855H151.126V76.6353H151.104ZM154.067 54.9458H156.406C159.003 54.9458 160.527 56.469 160.527 58.8503C160.527 61.0386 158.896 62.7978 156.277 62.7978H154.045V54.9458H154.067ZM154.067 65.458H157.909C161.343 65.458 162.888 67.4103 162.888 69.7702C162.888 72.1301 161.279 73.9751 157.995 73.9751H154.067V65.458Z" fill="#2C2C2C"/>
<path d="M243.229 52.2855L232.947 63.6773V64.3853L244.989 76.6139H248.917L236.274 63.7846L246.942 52.264H243.229V52.2855Z" fill="#2C2C2C"/>
</svg>
