<svg width="310" height="103" viewBox="0 0 310 103" fill="none" xmlns="http://www.w3.org/2000/svg">
<rect width="310" height="103" fill="white"/>
<path d="M192.5 19.11L192.53 19.01H185.93C183.98 19.01 182.32 19.49 180.95 20.45C179.58 21.41 178.6 22.75 178 24.48C177.62 25.58 177.51 26.58 177.67 27.48C177.86 28.42 178.35 29.1 179.13 29.52C179.85 29.89 181.04 30.08 182.72 30.08H188.69L189.28 28.32H185.92C184.3 28.32 183.22 28.07 182.68 27.57C182.09 27.03 182.16 25.77 182.62 24.44C183.42 22.14 185.1 20.7 187.41 20.7H190.02L189.42 22.43H191.4L192.55 19.11H192.49H192.5ZM169.36 25.65L173.38 20.94L174.21 25.65H169.36ZM135.18 25.67L139.09 21.17L139.8 25.67H135.18ZM173.03 19H170.58L161.16 29.6L164.84 19.01H160.8L155.92 23.61L153.41 26.09H153.29L154.47 22.48L153.04 19.01H148.98L145.29 29.63L143.18 19.01H138.74L128.92 30.07H131.37L133.88 27.18H140.07L140.56 30.07H147.13L149.51 23.23C149.63 22.89 149.74 22.49 149.86 22.05C149.87 22.41 149.95 22.79 150.1 23.19L152.19 28.89H152.54L158.52 23.21C158.74 23 159.08 22.61 159.54 22.05C159.31 22.57 159.15 22.96 159.05 23.23L156.67 30.07H161.01H165.58L168.06 27.16H174.48L174.99 30.07H177.25L175.05 19H173.03ZM130.01 27.48C130.8 26.58 131.39 25.58 131.77 24.48C132.37 22.75 132.32 21.41 131.62 20.45C130.91 19.49 129.58 19.01 127.63 19.01H121.03L120.43 20.74H124.98C127.3 20.74 127.97 22.13 127.17 24.43C126.71 25.76 126.3 26.99 125.33 27.53C124.45 28.03 123.53 28.18 121.91 28.18H119.81L121.38 23.69H119.4L117.17 30.07H123.15C124.83 30.07 126.15 29.88 127.13 29.51C128.2 29.1 129.16 28.42 130 27.47L130.01 27.48Z" fill="#2C2C2C"/>
<path d="M95.4105 60.59C95.9405 61.12 96.6005 61.53 97.3705 61.83C98.1405 62.13 99.0105 62.28 99.9705 62.28C101.01 62.28 101.92 62.16 102.71 61.93C103.5 61.7 104.22 61.4 104.87 61.04C105.52 60.68 106.12 60.27 106.67 59.82C107.22 59.37 107.78 58.94 108.36 58.52C108.36 59.25 108.58 59.89 109.02 60.46C109.46 61.03 110 61.47 110.64 61.78H115.52C114.88 61.47 114.34 61.03 113.9 60.46C113.46 59.89 113.24 59.25 113.24 58.52V43.82C113.24 42.87 113.1 42.01 112.82 41.23C112.54 40.45 112.07 39.78 111.42 39.24C110.76 38.7 109.9 38.28 108.81 37.97C107.73 37.67 106.38 37.52 104.79 37.52C103.55 37.52 102.34 37.67 101.19 37.96C100.03 38.26 99.0005 38.68 98.0905 39.23C97.1805 39.78 96.4305 40.46 95.8305 41.27C95.2305 42.08 94.7405 44.01 94.7405 44.01C94.7405 44.01 97.0105 44.42 98.2605 43.85C99.3505 43.35 99.4705 42.71 99.7505 42.11C100.03 41.51 100.39 41 100.83 40.55C101.27 40.11 101.78 39.76 102.35 39.49C102.92 39.23 103.56 39.1 104.24 39.1C104.92 39.1 105.58 39.2 106.1 39.39C106.62 39.58 107.05 39.91 107.38 40.37C107.72 40.83 107.96 41.43 108.12 42.17C108.28 42.92 108.36 43.83 108.36 44.92V46.41C107.27 46.67 106.16 46.96 105.01 47.27C103.86 47.58 102.75 47.93 101.66 48.33C100.57 48.73 99.5505 49.18 98.5905 49.68C97.6305 50.18 96.7905 50.76 96.0605 51.4C95.3305 52.04 94.7605 52.78 94.3505 53.6C93.9305 54.42 93.7305 55.34 93.7305 56.37C93.7305 57.21 93.8805 57.99 94.1705 58.72C94.4605 59.45 94.8805 60.08 95.4105 60.61V60.59ZM99.0105 53.5C99.3005 52.99 99.6905 52.5 100.18 52.03C100.68 51.57 101.25 51.13 101.9 50.73C102.55 50.33 103.24 49.95 103.96 49.6C104.68 49.25 105.41 48.94 106.16 48.66C106.91 48.38 107.63 48.13 108.34 47.91V56.8C107.86 57.16 107.39 57.49 106.93 57.8C106.47 58.11 106.01 58.38 105.54 58.63C105.08 58.87 104.6 59.06 104.1 59.2C103.6 59.34 103.08 59.41 102.54 59.41C102.03 59.41 101.53 59.3 101.06 59.07C100.58 58.85 100.16 58.54 99.7905 58.14C99.4205 57.74 99.1305 57.29 98.9005 56.77C98.6805 56.25 98.5705 55.7 98.5705 55.11C98.5705 54.55 98.7105 54.02 99.0005 53.51L99.0105 53.5Z" fill="#2C2C2C"/>
<path d="M120.83 53.1C120.14 53.33 119.5 53.65 118.9 54.04C118.3 54.44 117.78 54.87 117.32 55.34C116.87 55.81 116.51 56.31 116.24 56.83C115.98 57.35 115.84 57.85 115.84 58.33C115.84 58.66 115.92 58.96 116.08 59.25C116.24 59.54 116.46 59.8 116.75 60.05C117.04 60.3 117.37 60.52 117.77 60.71C118.16 60.9 118.58 61.07 119.03 61.21C118.41 61.67 117.78 62.16 117.14 62.68C116.5 63.19 115.92 63.72 115.39 64.27C114.86 64.82 114.43 65.39 114.1 65.99C113.77 66.59 113.6 67.21 113.6 67.86C113.6 68.6 113.85 69.27 114.34 69.87C114.83 70.47 115.59 70.98 116.59 71.41C117.6 71.84 118.85 72.16 120.37 72.4C121.89 72.63 123.66 72.75 125.69 72.75C127.95 72.75 129.99 72.53 131.78 72.1C133.58 71.66 135.09 71.05 136.34 70.26C137.59 69.47 138.54 68.51 139.2 67.39C139.86 66.27 140.19 65.01 140.19 63.63C140.19 62.85 140.07 62.16 139.83 61.54C139.59 60.92 139.18 60.38 138.61 59.92C138.03 59.46 137.27 59.1 136.3 58.83C135.33 58.56 134.13 58.39 132.67 58.33L123.62 57.93C122.63 57.88 121.87 57.72 121.33 57.44C120.8 57.16 120.53 56.78 120.53 56.3C120.53 55.82 120.69 55.31 121.01 54.82C121.33 54.33 121.72 53.9 122.18 53.53C122.66 53.68 123.22 53.81 123.87 53.9C124.52 53.99 125.15 54.04 125.77 54.04C127.45 54.04 128.98 53.84 130.37 53.45C131.76 53.05 132.95 52.49 133.95 51.76C134.95 51.03 135.72 50.16 136.28 49.16C136.84 48.15 137.12 47.03 137.12 45.79C137.12 45 136.97 44.2 136.68 43.38C136.38 42.57 136.01 41.84 135.54 41.21H139.61V39.21H133.2C132.93 38.98 132.56 38.76 132.09 38.56C131.62 38.36 131.07 38.18 130.46 38.03C129.84 37.87 129.18 37.75 128.47 37.66C127.76 37.57 127.04 37.52 126.3 37.52C124.78 37.52 123.38 37.74 122.07 38.19C120.77 38.64 119.63 39.25 118.66 40.03C117.68 40.81 116.92 41.71 116.37 42.75C115.82 43.79 115.54 44.89 115.54 46.05C115.54 47.63 116.01 49.03 116.94 50.25C117.87 51.47 119.16 52.42 120.81 53.1H120.83ZM122.22 61.79C123 61.88 123.91 61.95 124.95 62.02C125.99 62.09 127.1 62.15 128.3 62.21C129.5 62.26 130.69 62.29 131.87 62.29C132.81 62.29 133.66 62.35 134.41 62.48C135.16 62.6 135.8 62.79 136.33 63.04C136.86 63.29 137.26 63.61 137.54 63.99C137.82 64.38 137.96 64.83 137.96 65.36C137.96 65.89 137.73 66.38 137.25 66.88C136.78 67.38 136.09 67.84 135.19 68.25C134.29 68.66 133.19 68.99 131.91 69.24C130.63 69.49 129.17 69.61 127.54 69.61C126.01 69.61 124.66 69.5 123.51 69.28C122.35 69.06 121.39 68.77 120.63 68.4C119.86 68.03 119.29 67.6 118.91 67.12C118.53 66.64 118.34 66.14 118.34 65.61C118.34 65.28 118.39 64.94 118.48 64.58C118.58 64.21 118.72 63.85 118.91 63.5C119.1 63.14 119.33 62.8 119.6 62.48C119.87 62.15 120.19 61.86 120.56 61.59C120.9 61.64 121.45 61.7 122.24 61.79H122.22ZM121.27 42.67C121.45 41.89 121.74 41.21 122.12 40.62C122.5 40.04 122.99 39.59 123.59 39.26C124.19 38.93 124.9 38.77 125.71 38.77C126.52 38.77 127.33 38.98 128.08 39.4C128.83 39.82 129.48 40.4 130.04 41.13C130.6 41.87 131.04 42.73 131.37 43.74C131.7 44.74 131.86 45.82 131.86 46.98C131.86 47.8 131.72 48.57 131.43 49.27C131.14 49.98 130.75 50.59 130.27 51.12C129.78 51.65 129.22 52.06 128.58 52.36C127.94 52.66 127.28 52.81 126.59 52.81C125.76 52.81 125 52.62 124.32 52.23C123.63 51.84 123.04 51.3 122.55 50.61C122.06 49.92 121.67 49.11 121.4 48.18C121.13 47.25 120.99 46.25 120.99 45.18C120.99 44.28 121.08 43.44 121.26 42.66L121.27 42.67Z" fill="#2C2C2C"/>
<path d="M137.189 50.19C137.189 51.86 137.509 53.43 138.159 54.9C138.809 56.37 139.699 57.65 140.849 58.74C141.999 59.83 143.359 60.7 144.939 61.33C146.519 61.97 148.249 62.28 150.139 62.28C152.029 62.28 153.729 61.93 155.299 61.25C156.869 60.56 158.229 59.62 159.379 58.44C160.529 57.25 161.429 55.87 162.069 54.28C162.719 52.69 163.039 51 163.039 49.2C163.039 47.57 162.719 46.05 162.069 44.63C161.419 43.21 160.529 41.98 159.379 40.92C158.229 39.86 156.869 39.03 155.299 38.43C153.729 37.83 152.009 37.52 150.139 37.52C148.269 37.52 146.519 37.85 144.939 38.51C143.359 39.17 141.989 40.07 140.849 41.22C139.699 42.37 138.799 43.71 138.159 45.26C137.509 46.8 137.189 48.45 137.189 50.2V50.19ZM143.149 44.62C143.499 43.56 143.969 42.63 144.549 41.84C145.129 41.05 145.809 40.43 146.579 39.97C147.339 39.51 148.139 39.28 148.949 39.28C150.529 39.28 151.869 39.6 152.969 40.25C154.069 40.89 154.959 41.77 155.649 42.89C156.339 44.01 156.829 45.32 157.129 46.82C157.429 48.32 157.589 49.94 157.589 51.66C157.589 52.85 157.429 53.99 157.109 55.06C156.789 56.13 156.339 57.07 155.769 57.89C155.199 58.7 154.509 59.35 153.709 59.83C152.909 60.31 152.029 60.55 151.079 60.55C149.739 60.55 148.549 60.22 147.499 59.56C146.449 58.9 145.569 58.01 144.839 56.87C144.109 55.74 143.559 54.41 143.189 52.89C142.809 51.37 142.629 49.74 142.629 48C142.629 46.81 142.809 45.68 143.159 44.61L143.149 44.62Z" fill="#2C2C2C"/>
<path d="M167.48 58.74C168.63 59.83 169.99 60.7 171.57 61.33C173.15 61.97 174.88 62.28 176.77 62.28C178.66 62.28 180.36 61.93 181.93 61.25C183.5 60.56 184.86 59.62 186.01 58.44C187.16 57.25 188.06 55.87 188.7 54.28C189.34 52.69 189.67 51 189.67 49.2C189.67 47.57 189.35 46.05 188.7 44.63C188.05 43.21 187.16 41.98 186.01 40.92C184.86 39.86 183.5 39.03 181.93 38.43C180.36 37.83 178.64 37.52 176.77 37.52C174.9 37.52 173.15 37.85 171.57 38.51C169.99 39.17 168.62 40.07 167.48 41.22C166.33 42.37 165.43 43.71 164.79 45.26C164.14 46.8 163.82 48.45 163.82 50.2C163.82 51.95 164.14 53.44 164.79 54.91C165.44 56.38 166.33 57.66 167.48 58.75V58.74ZM169.78 44.62C170.13 43.56 170.6 42.63 171.18 41.84C171.76 41.05 172.44 40.43 173.21 39.97C173.97 39.51 174.77 39.28 175.58 39.28C177.16 39.28 178.5 39.6 179.6 40.25C180.7 40.89 181.59 41.77 182.28 42.89C182.97 44.01 183.46 45.32 183.76 46.82C184.06 48.32 184.22 49.94 184.22 51.66C184.22 52.85 184.06 53.99 183.74 55.06C183.42 56.13 182.97 57.07 182.4 57.89C181.83 58.7 181.14 59.35 180.34 59.83C179.54 60.31 178.66 60.55 177.71 60.55C176.37 60.55 175.18 60.22 174.13 59.56C173.08 58.9 172.2 58.01 171.47 56.87C170.74 55.74 170.19 54.41 169.82 52.89C169.44 51.37 169.26 49.74 169.26 48C169.26 46.81 169.44 45.68 169.79 44.61L169.78 44.62Z" fill="#2C2C2C"/>
<path d="M195.621 58.42V44.15C196.161 43.64 196.731 43.17 197.321 42.75C197.911 42.33 198.511 41.97 199.101 41.67C199.701 41.37 200.281 41.13 200.861 40.96C201.441 40.79 201.981 40.7 202.491 40.7C203.071 40.7 203.591 40.8 204.061 41.01C204.531 41.22 204.941 41.53 205.291 41.93C205.641 42.33 205.911 42.83 206.101 43.43C206.291 44.03 206.391 44.72 206.391 45.51V61.77H211.251V44.7C211.251 43.71 211.091 42.77 210.771 41.9C210.451 41.02 210.011 40.26 209.451 39.61C208.891 38.96 208.241 38.45 207.501 38.07C206.761 37.7 205.951 37.51 205.091 37.51C203.451 37.51 201.831 37.91 200.231 38.71C198.631 39.51 197.091 40.71 195.611 42.33V37.51H194.221L190.721 38.84V61.78H192.151C194.061 61.78 195.611 60.28 195.611 58.42H195.621Z" fill="#2C2C2C"/>
<path d="M230.119 52.5001C229.709 51.7601 229.169 51.1001 228.499 50.5301C227.829 49.9601 227.059 49.4601 226.209 49.0301C225.359 48.6001 224.489 48.1901 223.599 47.8201C222.709 47.4501 221.839 47.0801 220.989 46.7301C220.139 46.3701 219.369 45.9801 218.699 45.5501C218.029 45.1201 217.489 44.6501 217.079 44.1201C216.669 43.5901 216.469 42.9701 216.469 42.2601C216.469 41.8301 216.589 41.4201 216.819 41.0301C217.049 40.6401 217.369 40.3101 217.779 40.0201C218.189 39.7301 218.679 39.5101 219.249 39.3401C219.779 39.1901 220.369 39.1201 221.019 39.1101C221.669 39.1201 222.269 39.2401 222.819 39.5001C223.389 39.7601 223.899 40.1201 224.339 40.5601C224.779 41.0001 225.139 41.5201 225.419 42.1201C225.699 42.7201 225.819 43.3601 226.909 43.8601C228.159 44.4301 230.429 44.0201 230.429 44.0201C230.429 44.0201 229.939 42.0801 229.339 41.2801C228.739 40.4701 227.989 39.7901 227.079 39.2401C226.169 38.6901 225.139 38.2701 223.979 37.9701C223.059 37.7401 222.119 37.5501 221.139 37.5501C221.079 37.5401 221.029 37.5501 220.969 37.5501C220.879 37.5501 220.779 37.5501 220.689 37.5501V37.5701C219.679 37.6101 218.729 37.7501 217.859 38.0301C216.839 38.3601 215.959 38.8201 215.219 39.4101C214.479 40.0001 213.909 40.7001 213.499 41.5101C213.089 42.3201 212.879 43.2101 212.879 44.1501C212.879 45.1601 213.069 46.0401 213.439 46.7901C213.809 47.5401 214.309 48.2101 214.919 48.7801C215.529 49.3501 216.229 49.8501 217.019 50.2801C217.799 50.7101 218.599 51.1101 219.409 51.4901C220.219 51.8701 221.019 52.2401 221.799 52.5901C222.579 52.9501 223.279 53.3401 223.899 53.7601C224.509 54.1901 225.009 54.6701 225.379 55.2101C225.759 55.7501 225.939 56.3901 225.939 57.1201C225.939 57.5701 225.829 58.0101 225.609 58.4401C225.389 58.8701 225.069 59.2401 224.659 59.5701C224.249 59.9001 223.769 60.1501 223.209 60.3501C222.649 60.5401 222.039 60.6401 221.389 60.6401C220.869 60.6401 220.379 60.5801 219.919 60.4901C219.749 60.4401 219.569 60.4001 219.399 60.3201C218.819 60.0501 218.319 59.7001 217.879 59.2601C217.439 58.8201 217.079 58.3001 216.799 57.7001C216.519 57.1001 216.399 56.4601 215.309 55.9601C214.059 55.3901 211.789 55.8001 211.789 55.8001C211.789 55.8001 212.279 57.7401 212.879 58.5401C213.479 59.3501 214.229 60.0201 215.139 60.5801C216.049 61.1301 217.079 61.5501 218.239 61.8501C219.239 62.1001 220.279 62.3101 221.339 62.2701C221.349 62.2701 221.369 62.2801 221.389 62.2801C222.969 62.2801 224.339 62.0901 225.509 61.7201C226.679 61.3501 227.639 60.8401 228.419 60.2001C229.189 59.5601 229.769 58.8001 230.159 57.9201C230.539 57.0401 230.739 56.1001 230.739 55.0901C230.739 54.0801 230.539 53.2301 230.129 52.4801L230.119 52.5001Z" fill="#2C2C2C"/>
<path d="M167.869 67.6802C180.929 65.5302 189.599 74.0502 202.429 72.5602C206.559 72.0602 210.299 70.5002 213.639 67.8102C210.199 69.0802 207.069 70.2302 202.369 70.2302C190.399 70.2802 178.359 61.6902 167.879 67.6802H167.869Z" fill="#2C2C2C"/>
<path d="M163.14 67.9002C156.91 65.9102 148.95 65.4202 143.01 71.2602C148.76 68.4402 154.55 69.0302 159.26 70.5202C163.53 72.0502 174.65 78.3402 186.97 72.2502C176.81 73.3202 170.34 70.8902 163.13 67.9002H163.14Z" fill="#2C2C2C"/>
<path d="M93.26 71.5101C89.93 69.8401 89.65 68.5201 89.65 66.5001V65.9901C89.65 65.9901 89.66 65.9401 89.66 65.9101V35.3501C89.71 31.6001 84.78 30.6001 84.78 30.6001V64.5901H84.76V64.8001C84.7 67.4201 82.52 69.3901 79.96 69.3901H79V70.1201C83.29 70.1901 87.86 71.3801 92.23 73.7001C114.01 85.2201 130.48 86.0001 141.52 71.6801C141.52 71.6801 123.83 86.8701 93.26 71.5101Z" fill="#2C2C2C"/>
</svg>
