<svg width="310" height="103" viewBox="0 0 310 103" fill="none" xmlns="http://www.w3.org/2000/svg">
<rect width="310" height="103" fill="white"/>
<path d="M54.3431 55.0494L49.8785 42.7717L48.1535 42.8732L43.283 55.3031C42.3191 57.6369 41.5581 59.4126 41 60.5795H42.4713C42.9786 59.0574 43.5874 57.3325 44.3485 55.4553L45.5153 52.462L45.8705 51.498L48.5087 44.6489L50.8932 51.498L51.2483 52.462L52.1108 54.9987C53.024 57.6369 53.5821 59.514 53.8358 60.5795H56.5754C56.1188 59.7677 55.4085 57.8905 54.3431 55.0494Z" fill="#2C2C2C"/>
<path d="M171.235 55.0494C171.235 56.1655 171.235 57.2817 171.286 58.3471C171.337 59.4125 171.337 60.1736 171.388 60.6302H168.952C169.003 60.3765 169.003 59.7169 169.054 58.5501C169.104 57.3832 169.104 56.267 169.104 55.0494V44.8011C168.191 46.1709 166.923 48.0988 165.299 50.6355C163.625 53.1215 162.408 55.0494 161.545 56.3177C159.617 59.1589 158.704 60.5794 158.704 60.6302H156.421C156.522 59.0067 156.573 57.1802 156.573 55.0494V48.4032C156.573 47.287 156.573 46.1709 156.522 45.1055C156.472 44.0401 156.472 43.279 156.421 42.8732H158.805C158.755 43.0761 158.704 43.7864 158.704 44.9533C158.653 46.1202 158.653 47.2363 158.653 48.4539V58.7023L163.473 51.5995C165.452 48.5554 166.72 46.5768 167.278 45.7143C168.496 43.8371 169.054 42.8732 169.054 42.9239H171.337C171.286 43.1268 171.286 43.8371 171.235 45.004C171.185 46.1709 171.185 47.3378 171.185 48.5047V55.0494H171.235Z" fill="#2C2C2C"/>
<path d="M148.404 48.4032C148.404 47.287 148.404 46.1708 148.353 45.1054C148.302 44.04 148.302 43.279 148.252 42.8224H150.636C150.636 43.279 150.585 44.04 150.535 45.1054C150.484 46.1708 150.484 47.287 150.484 48.4032V55.0493C150.484 56.1655 150.484 57.2817 150.535 58.3471C150.585 59.4125 150.585 60.1735 150.636 60.6301H126.791C126.791 60.1735 126.842 59.4632 126.892 58.3471C126.943 57.2817 126.943 56.1655 126.943 55.0493V48.4032C126.943 47.287 126.943 46.1708 126.892 45.1054C126.842 44.04 126.842 43.279 126.791 42.8224H129.176C129.176 43.279 129.125 44.04 129.074 45.1054C129.023 46.1708 129.023 47.287 129.023 48.4032V55.0493C129.023 56.064 129.074 57.4846 129.125 59.4632C130.038 59.5647 131.509 59.6154 133.539 59.6154H134.147C135.619 59.6154 136.786 59.5647 137.75 59.4632C137.8 58.1441 137.8 56.7236 137.8 55.0493V48.4032C137.8 47.1348 137.8 45.9679 137.75 45.004C137.699 43.9893 137.699 43.279 137.699 42.8224H139.779C139.779 43.279 139.728 44.04 139.678 45.1054C139.627 46.1708 139.627 47.287 139.627 48.4032V55.0493C139.627 56.9773 139.678 58.4485 139.728 59.4632C141.047 59.5647 142.468 59.6154 144.091 59.6154C145.918 59.6154 147.338 59.5647 148.353 59.4632C148.353 58.8037 148.353 58.2963 148.404 57.8397L148.455 55.0493V48.4032H148.404Z" fill="#2C2C2C"/>
<path d="M191.935 55.0493C191.935 57.1802 191.985 59.0066 192.087 60.6301H189.753C189.753 59.6154 189.753 58.8037 189.804 58.1949L189.854 55.3538V51.8024H189.043C187.571 51.7516 186.1 51.7516 184.629 51.7516C182.904 51.7516 181.382 51.7516 180.063 51.8024H179.403V55.1001C179.403 56.4699 179.454 58.2963 179.555 60.6301H177.171C177.171 60.4272 177.171 60.0213 177.222 59.311C177.272 56.8758 177.323 55.4552 177.323 55.1001V48.4032C177.323 47.0841 177.272 45.2069 177.171 42.8224H179.505C179.454 45.4606 179.403 47.2363 179.403 48.1495V50.6862H180.164C181.483 50.7369 182.955 50.7369 184.578 50.7369L189.804 50.6862V48.3524C189.804 46.2216 189.753 44.3444 189.652 42.8224H192.087C191.985 44.7503 191.935 46.6275 191.935 48.3524V55.0493Z" fill="#2C2C2C"/>
<path d="M210.504 60.1735C210.149 60.3765 209.54 60.5794 208.779 60.7316C208.018 60.8838 207.155 60.9853 206.242 60.9853C204.416 60.9853 202.488 60.5794 201.067 59.8184C199.647 59.0574 198.581 57.9412 197.769 56.5207C196.958 55.1001 196.603 53.4766 196.603 51.5995C196.603 49.6208 197.008 47.9466 197.871 46.5768C198.733 45.2069 199.9 44.1415 201.321 43.482C202.792 42.7717 204.669 42.4673 206.445 42.4673C207.307 42.4673 208.119 42.5688 208.88 42.721C209.641 42.8732 210.199 43.0254 210.605 43.2283L210.301 44.5981C209.946 44.2937 209.438 44.04 208.728 43.8371C208.068 43.5834 207.358 43.482 206.648 43.482C205.43 43.482 204.213 43.7356 203.046 44.2937C201.879 44.8518 200.864 45.765 200.103 46.9826C199.291 48.2003 198.936 49.773 198.936 51.7009C198.936 53.2229 199.241 54.6435 199.85 55.9119C200.458 57.1802 201.321 58.1949 202.488 58.9559C203.604 59.7169 204.923 60.0721 206.445 60.0721C207.206 60.0721 207.967 59.9706 208.677 59.7169C209.388 59.4633 209.895 59.2096 210.301 58.9559L210.504 60.1735Z" fill="#2C2C2C"/>
<path d="M248.147 55.0494C248.147 56.1655 248.147 57.2817 248.198 58.3471C248.249 59.4125 248.249 60.1736 248.3 60.6302H245.864C245.915 60.3765 245.915 59.7169 245.966 58.5501C246.017 57.3832 246.017 56.267 246.017 55.0494V44.8011C245.103 46.1709 243.835 48.0988 242.212 50.6355C240.537 53.1215 239.32 55.0494 238.457 56.3177C236.529 59.1589 235.616 60.5794 235.616 60.6302H233.333C233.434 59.0067 233.485 57.1802 233.485 55.0494V48.4032C233.485 47.287 233.485 46.1709 233.434 45.1055C233.384 44.0401 233.384 43.279 233.333 42.8732H235.718C235.667 43.0761 235.616 43.7864 235.616 44.9533C235.565 46.1202 235.565 47.2363 235.565 48.4539V58.7023L240.385 51.5995C242.364 48.5554 243.632 46.5768 244.19 45.7143C245.408 43.8371 245.966 42.8732 245.966 42.9239H248.249C248.198 43.1268 248.198 43.8371 248.147 45.004C248.097 46.1709 248.097 47.3378 248.097 48.5047V55.0494H248.147Z" fill="#2C2C2C"/>
<path d="M268.848 55.0494C268.848 56.1655 268.848 57.2817 268.898 58.3471C268.949 59.4125 268.949 60.1736 269 60.6302H266.565C266.615 60.3765 266.615 59.7169 266.666 58.5501C266.717 57.3832 266.717 56.267 266.717 55.0494V44.8011C265.804 46.1709 264.535 48.0988 262.912 50.6355C261.237 53.1215 260.02 55.0494 259.157 56.3177C257.229 59.1589 256.316 60.5794 256.316 60.6302H254.033C254.135 59.0067 254.185 57.1802 254.185 55.0494V48.4032C254.185 47.287 254.185 46.1709 254.135 45.1055C254.084 44.0401 254.084 43.279 254.033 42.8732H256.418C256.367 43.0761 256.367 43.7864 256.316 44.9533C256.266 46.1202 256.266 47.2363 256.266 48.4539V58.7023L261.085 51.5995C263.064 48.5554 264.332 46.5768 264.941 45.7143C266.159 43.8371 266.717 42.8732 266.717 42.9239H269C268.949 43.1268 268.949 43.8371 268.898 45.004C268.848 46.1709 268.848 47.3378 268.848 48.5047V55.0494Z" fill="#2C2C2C"/>
<path d="M85.4433 49.773C87.6756 49.3671 88.7918 48.0988 88.7918 46.1709C88.7918 44.3952 87.7263 43.279 85.5955 42.8731C85.1389 42.7717 84.5808 42.7209 83.972 42.7209C83.6169 42.7209 83.0081 42.7717 82.2978 42.7717C81.5875 42.8224 80.6743 42.8224 80.2684 42.8224H79.0508C79.1522 44.9025 79.203 46.526 79.203 47.7944V55.0494C79.203 56.267 79.1522 57.789 79.1015 59.2096C79.0508 59.9199 79.0508 60.3765 79.0508 60.6301H80.5728C80.9787 60.6301 81.9426 60.6809 82.7036 60.6809C83.5154 60.7316 84.0227 60.7316 84.2257 60.7316C86.2043 60.7316 87.8278 60.1228 89.0454 58.9559C90.2631 57.7383 90.8211 56.4192 90.8211 54.9479C90.9226 51.8531 88.741 49.9759 85.4433 49.773ZM83.8198 43.6849C85.9506 43.7864 87.0161 44.6488 87.0161 46.2723C87.0161 47.49 86.5595 48.5047 84.7838 49.3671C84.1749 49.6715 83.1603 49.9252 82.5007 50.2296C82.0441 50.4326 81.5368 50.7877 81.3338 51.0414V43.6849C81.9426 43.7356 83.2617 43.6342 83.8198 43.6849ZM87.6249 58.2964C86.6609 59.2603 85.5448 59.7169 84.2764 59.7169L81.4353 59.6155C81.4353 58.1442 81.3846 55.4552 81.3846 51.498C82.1963 50.9906 83.2617 50.5848 85.0882 50.5848C86.0014 50.5848 86.8131 50.9399 87.3205 51.2443C88.2844 51.8531 89.0962 53.1215 89.0962 54.7957C89.0454 56.2163 88.5888 57.3832 87.6249 58.2964Z" fill="#2C2C2C"/>
<path d="M121.566 42.8732C121.566 42.9746 121.363 43.4312 121.058 44.2937C120.754 45.1055 120.399 45.968 120.044 46.8304L116.441 55.2523L114.209 49.6208C113.702 48.3525 113.194 46.9319 112.636 45.3591C112.078 43.7864 111.825 42.9746 111.875 42.9239H109.034C109.136 43.0761 109.44 43.6342 109.846 44.5474C110.252 45.4606 110.708 46.4753 111.165 47.5915L115.072 57.3324C115.072 57.7383 114.919 58.1442 114.716 58.6008C114.513 59.0067 114.26 59.3618 113.955 59.6662C113.651 59.9706 113.347 60.0721 113.093 60.0721C112.839 60.0721 112.636 60.0214 112.484 59.9199L112.23 60.8838C112.535 60.9346 112.839 60.9853 113.093 60.9853C113.803 60.9853 114.412 60.7316 114.97 60.2243C115.528 59.7169 116.036 58.9052 116.492 57.7383L121.007 47.49C121.616 46.1202 122.327 44.5474 123.189 42.8732H121.566Z" fill="#2C2C2C"/>
<path d="M72.7093 55.0494L68.2447 42.7717L66.5197 42.8732L61.6493 55.3031C60.6853 57.6369 59.9243 59.4126 59.3662 60.6302H60.8375C61.0404 60.0721 61.2434 59.4633 61.4463 58.8545C61.8522 57.7383 62.9683 56.9266 65.6573 56.3685C68.5491 55.8104 68.8028 54.0855 68.8028 53.4767C68.8028 52.9693 68.7521 52.7664 68.7521 52.7664L68.6506 52.7156C68.3969 53.6289 68.2447 54.5421 65.2514 55.1002C63.8308 55.3538 62.8669 56.0641 62.2073 56.7744C62.3595 56.3685 62.5117 55.9119 62.7147 55.4553L63.8816 52.462L64.2367 51.498L66.8749 44.6489L69.2594 51.498L69.6145 52.462L70.477 54.9987C71.3902 57.6369 71.9483 59.514 72.202 60.5795H74.9416C74.485 59.7677 73.7747 57.8905 72.7093 55.0494Z" fill="#2C2C2C"/>
<path d="M228.463 59.9706C228.21 59.8184 227.905 59.5647 227.652 59.1589C227.347 58.753 227.043 58.1442 226.738 57.2817C226.637 57.0788 226.485 56.7744 226.332 56.267C225.876 55.1001 225.368 54.1362 224.912 53.3244C224.455 52.5127 223.796 51.7517 223.035 51.0414C222.223 50.3311 221.208 49.8745 220.041 49.6208C220.041 49.6208 219.889 49.5701 219.737 49.5701L223.085 45.5621C224.151 44.243 224.912 43.3805 225.419 42.8732H223.491C223.441 42.9746 223.085 43.4312 222.477 44.2937C221.868 45.1562 221.31 45.9172 220.802 46.526L218.469 49.4179L217.454 50.6862V42.8732H215.171C215.272 45.2577 215.323 47.1348 215.323 48.4539V55.1001C215.323 55.4553 215.272 56.8758 215.222 59.3111C215.171 60.0214 215.171 60.4272 215.171 60.6302H217.555C217.454 58.2964 217.403 56.4192 217.403 55.1001V52.4112L219.027 50.3818C219.23 50.4326 219.433 50.4833 219.686 50.5848C220.041 50.737 220.346 50.8892 220.599 51.0414C221.056 51.3458 221.513 51.8531 222.02 52.5127C222.527 53.223 222.984 54.0347 223.39 54.9987C223.542 55.3538 223.644 55.6075 223.694 55.7597C224.303 57.1295 224.76 58.1949 225.216 58.9052C225.622 59.6155 226.13 60.1228 226.738 60.478C227.246 60.6809 227.702 60.7824 228.108 60.7824H228.159C228.615 60.7824 229.275 60.7316 229.478 60.6302L229.529 60.4272C229.072 60.2243 228.717 60.0721 228.463 59.9706Z" fill="#2C2C2C"/>
<path d="M106.143 45.765C105.636 44.8518 104.875 44.1415 103.86 43.5834C102.845 43.0254 101.679 42.7209 100.309 42.7209C100.156 42.7209 99.6999 42.7209 98.9896 42.7717C98.1271 42.8224 97.4676 42.8224 97.011 42.8224H95.1338C95.1338 43.0254 95.1338 43.4312 95.1845 44.1415C95.2353 46.5768 95.286 47.9973 95.286 48.3525V55.6075C95.286 56.8758 95.2353 58.4993 95.1338 60.5794H97.4168V56.5714C97.4168 56.0133 98.533 55.1508 100.004 54.745C102.693 53.984 104.418 53.1722 105.433 52.2083C106.448 51.295 107.006 49.9759 107.006 48.4539C106.904 47.5914 106.65 46.6782 106.143 45.765ZM102.592 52.7663C101.12 53.5781 97.9242 54.2376 97.3154 55.4552C97.3154 49.5193 97.3154 45.6128 97.3661 43.7356L100.207 43.6342C101.07 43.6342 101.831 43.8371 102.592 44.2937C103.353 44.7503 103.911 45.3084 104.367 46.0694C104.824 46.8304 105.027 47.7436 105.027 48.6569C105.027 50.5848 104.012 51.9546 102.592 52.7663Z" fill="#2C2C2C"/>
<path d="M195.436 37.0894C195.436 37.0894 224.151 24 243.988 24C263.825 24 261.492 37.0894 261.492 37.0894C261.492 37.0894 260.375 26.8411 243.988 26.8411C227.601 26.8411 195.436 37.0894 195.436 37.0894Z" fill="#2C2C2C"/>
<path d="M124.508 68.0881C124.508 68.0881 93.7635 80.2136 75.9558 80.2136C58.1481 80.2136 58.4525 68.0881 58.4525 68.0881C58.4525 68.0881 59.5686 78.3365 75.9558 78.3365C92.343 78.3365 124.508 68.0881 124.508 68.0881Z" fill="#2C2C2C"/>
</svg>
