<svg width="310" height="103" viewBox="0 0 310 103" fill="none" xmlns="http://www.w3.org/2000/svg">
<rect width="310" height="103" fill="white"/>
<path d="M165.57 75.0599C161.57 75.1299 157.73 73.5099 154.99 70.5899C159.64 66.4099 162.5 59.9999 162.5 52.4799C162.5 43.6899 159.74 37.5699 155.09 33.9199C157.71 31.6999 161.06 30.5399 164.49 30.6499C174.49 30.6499 180.82 39.6499 180.82 54.4699C180.82 68.4699 174.09 75.0599 165.57 75.0599ZM140.46 74.9499C135.5 74.9499 131.9 73.1199 131.9 70.2499V31.6699C134.79 31.0699 137.73 30.7299 140.68 30.6699C145.21 30.6699 149.3 31.7899 152.42 34.4699C147.81 38.7199 145.2 45.4099 145.2 53.2499C145.2 60.5799 147.68 67.0599 152.2 71.1799C148.56 74.3199 144.01 74.9099 140.42 74.9099M149.04 51.6299C149.04 44.3799 150.63 39.0199 153.46 35.5199C156.65 38.9199 158.58 44.2799 158.58 52.2199C158.58 60.6699 156.68 66.0099 153.95 69.3699C150.82 65.3699 149.04 59.3699 149.04 51.6299ZM164.94 29.7499C161.03 29.6899 157.21 30.8699 154.02 33.1299C150.29 30.7899 145.95 29.6099 141.55 29.7499C138.55 29.7499 134.17 30.0699 128.83 30.0699C126.33 30.0999 123.83 29.9899 121.34 29.7499V30.2899C123.98 30.7699 128.08 31.9099 128.08 34.8699V70.2499C128.08 73.2499 123.98 74.7199 121.34 75.2499V75.7899C121.34 75.7899 126.34 75.4099 129.53 75.4099C133.68 75.4099 136.21 75.7899 141.28 75.7899C145.55 75.8199 149.72 74.4999 153.2 72.0199C156.53 74.5799 160.62 75.9399 164.82 75.8699C173.5 75.8699 184.65 70.4799 184.65 52.4799C184.65 39.9799 177.43 29.8399 164.98 29.7899" fill="#2C2C2C"/>
<path d="M164.95 20.03L176.7 26.17H177.18L164.95 16L152.77 26.17H153.25L164.95 20.03Z" fill="#2C2C2C"/>
<path d="M91.79 30.87C99.44 30.87 102.03 38.74 102.03 43.37C102.03 45.37 101.23 46.17 99.12 46.17C97.01 46.17 86.18 46.28 82.32 46.32C82.57 36.32 86.88 30.87 91.79 30.87ZM105.43 47.25C105.43 36.14 100.04 29.84 92.55 29.84C85.06 29.84 79.08 35.66 79.08 48.33C79.08 61 85 67.19 93.41 67.19C98.83 67.19 102.65 63.54 104.16 61.79C103.88 69.79 102.4 74.52 88.5 74.52C82.5 74.52 72.57 73.44 72.57 73.44V34.8C72.57 32 76.57 30.8 79.31 30.33V29.79C79.31 29.79 75.42 30.11 70.52 30.11C66.21 30.11 62 29.79 62 29.79V30.33C64.7 30.76 68.8 32.05 68.8 34.8V70.25C68.8 73.06 64.8 74.67 62.22 75.1V75.64C62.22 75.64 66 75.32 70.74 75.32C83.57 75.37 102.84 75.32 104.94 75.37V60.77H104.24C102.78 62.39 99.49 65.51 95.08 65.51C87.74 65.51 82.36 58.34 82.36 47.24V47.14L105.43 47.25Z" fill="#2C2C2C"/>
<path d="M246.45 60.89C245.8 66.33 246.45 74.57 235.87 74.57C232.19 74.56 228.53 74.12 224.96 73.25V51.62L230.41 51.56C232.94 51.56 236.06 52.75 236.82 60.89H237.36V41.97H236.82C236.06 50.16 232.94 50.7 230.41 50.7H224.96V31.84C224.96 31.84 228.31 30.92 235.48 30.92C245.88 30.92 245.32 37.39 245.48 43.53H246.02L246.61 29.79C244.08 30.17 239.14 30.06 232.3 30.11C226.91 30.32 221.51 30.21 216.13 29.79V30.33C219.13 30.83 220.36 31.95 220.84 32.88L207.84 68.38L193.11 29.79C189.67 30.06 186.21 30.06 182.77 29.79V30.33C185.41 30.65 189.39 31.33 189.39 34.86L189.34 69.94C189.34 73.17 186.27 74.63 183.03 75.22V75.76C187.49 75.22 191.99 75.22 196.45 75.76V75.25C193.54 74.77 190.31 73.37 190.31 69.97V33.55L206.31 75.17L221.18 34.59V69.94C221.18 73.44 217.79 74.84 215.18 75.17V75.71C221.71 75.22 225.43 75.38 231.94 75.33C237.71 75.33 244.86 75.65 247.02 75.76V60.89H246.45Z" fill="#2C2C2C"/>
</svg>
