<svg width="310" height="103" viewBox="0 0 310 103" fill="none" xmlns="http://www.w3.org/2000/svg">
<rect width="310" height="103" fill="white"/>
<path d="M86 31.1069H91.3602V64.5427H103.461V69.9068H86.2205L86 31.1069Z" fill="#2C2C2C"/>
<path d="M104.621 31.1069H110.313V52.2846C110.313 58.5778 111.75 65.9101 122.525 65.9101C133.3 65.9101 135.014 59.0145 135.014 52.4487V31.1069H140.651V54.9666C140.651 63.8319 136.285 71.0001 122.636 71.0001C108.987 71.0001 104.621 63.7762 104.621 54.5826V31.1069Z" fill="#2C2C2C"/>
<path d="M165.509 35.0222C179.31 35.0222 180.46 45.0667 180.46 45.0667H186.314C186.314 45.0667 185.741 30 165.509 30C145.277 30 143.814 45.8181 143.814 50.4383C143.814 56.093 146.742 71.0015 166.189 71.0015C185.636 71.0015 186.629 54.9033 186.629 54.9033H180.826C180.826 54.9033 179.833 65.8272 166.189 65.8272C154.112 65.8272 149.617 58.5265 149.617 49.985C149.617 41.4434 155.42 35.0222 165.509 35.0222Z" fill="#2C2C2C"/>
<path d="M197.745 47.413H207.813V52.4984H197.745V64.9373H225V69.7201H192.153V52.5496H188.339V47.7157H192.051L192.001 31.0979H224.644V35.9319H197.695L197.745 47.413Z" fill="#2C2C2C"/>
</svg>
