<svg width="310" height="103" viewBox="0 0 310 103" fill="none" xmlns="http://www.w3.org/2000/svg">
<rect width="310" height="103" fill="white"/>
<path d="M62.792 33.4818H59V55.5109H71.456V53.4032H62.792V33.4818ZM98.96 33.4818H96.116V46.8029C96.116 48.8384 95.576 50.5366 94.556 51.8374C93.476 53.1261 91.988 53.8127 89.888 53.8127C85.76 53.8127 83.924 51.1629 83.924 47.2846V33.4818H80.204V47.2846C80.204 49.9344 81.08 52.0422 82.772 53.6079C84.464 55.1737 86.84 55.9204 89.744 55.9204C95.504 55.9204 99.02 52.5842 99.02 47.1521V33.4818H98.948H98.96ZM126.8 33.4818H109.592V35.5895H121.448L108.38 55.5109H127.004V53.4032H113.864L126.788 33.4818H126.8ZM153.896 42.5873H141.632V33.4818H137.84V55.5109H141.632V44.6349H153.896V55.5109H157.688V33.4818H153.896V42.5873ZM188.168 49.1154L169.736 33V55.4989H172.304V39.793L190.796 56.0409V33.4818H188.228V49.1154H188.156H188.168ZM206.576 33.4818H202.784V55.5109H206.576V33.4818ZM236.108 33.4818H232.784L222.356 43.2016V33.4818H218.564V55.5109H222.356V44.7071L232.856 55.5109H237.464L225.68 43.3461L236.096 33.4818H236.108ZM247.22 33.4818V55.5109H251.012V33.4818H247.22ZM83.852 66.2425C84.128 66.0377 84.464 65.9655 84.8 65.9655C85.34 65.9655 85.82 66.1702 86.228 66.6399L86.84 65.9655C86.564 65.6282 86.3 65.4235 85.964 65.2187C85.628 65.0862 85.22 64.9417 84.812 64.9417C84.272 64.9417 83.792 65.0742 83.384 65.3512C82.976 65.6282 82.64 65.9655 82.364 66.4352C82.088 66.917 82.028 67.3867 82.028 67.9287C82.028 68.4707 82.16 69.0127 82.364 69.4222C82.64 69.904 82.904 70.2412 83.384 70.5062C83.792 70.7832 84.26 70.9157 84.812 70.9157C85.22 70.9157 85.628 70.8434 85.964 70.6387C86.3 70.5062 86.636 70.2292 86.84 69.8919L86.228 69.2174C85.82 69.6992 85.412 69.8919 84.8 69.8919C84.464 69.8919 84.128 69.8197 83.852 69.6149C83.576 69.4101 83.372 69.2054 83.18 68.8681C83.048 68.5309 82.904 68.1937 82.904 67.8444C82.904 67.4349 82.976 67.0976 83.18 66.8206C83.312 66.6158 83.588 66.4111 83.852 66.2063V66.2425ZM102.272 65.4235C101.864 65.1464 101.396 65.0139 100.844 65.0139C100.292 65.0139 99.824 65.1464 99.416 65.4235C99.008 65.7005 98.672 66.0377 98.396 66.5074C98.12 66.9892 98.06 67.459 98.06 68.0009C98.06 68.5429 98.192 69.0849 98.396 69.4945C98.672 69.9762 99.008 70.3135 99.416 70.5784C99.824 70.8555 100.292 70.988 100.844 70.988C101.396 70.988 101.864 70.8555 102.272 70.5784C102.68 70.3014 103.016 69.9642 103.292 69.4945C103.568 69.0127 103.628 68.5429 103.628 68.0009C103.628 67.459 103.496 66.917 103.292 66.5074C103.088 66.0257 102.752 65.6884 102.272 65.4235ZM102.476 69.097C102.344 69.4342 102.068 69.639 101.804 69.8437C101.528 70.0485 101.192 70.1208 100.856 70.1208C100.52 70.1208 100.184 70.0485 99.908 69.8437C99.632 69.639 99.428 69.4342 99.236 69.097C99.104 68.7597 98.96 68.4225 98.96 68.0732C98.96 67.6637 99.032 67.3265 99.236 67.0494C99.368 66.7122 99.644 66.5074 99.908 66.3027C100.184 66.0979 100.52 66.0257 100.856 66.0257C101.192 66.0257 101.528 66.0979 101.804 66.3027C102.08 66.5074 102.284 66.7122 102.476 67.0494C102.608 67.3867 102.752 67.7239 102.752 68.0732C102.68 68.4105 102.62 68.7477 102.476 69.097ZM116.432 65.1585H115.484V70.9398H119.144V70.0605H116.432V65.1705V65.1585ZM131.732 65.1585H130.784V70.9398H134.444V70.0605H131.732V65.1705V65.1585ZM146.972 68.4225H149.48V67.5433H146.972V66.0498H149.816V65.1705H146.024V70.9518H149.948V70.0726H147.032V68.4466H146.96L146.972 68.4225ZM163.22 66.2425C163.496 66.0377 163.832 65.9655 164.168 65.9655C164.708 65.9655 165.188 66.1702 165.596 66.6399L166.208 65.9655C165.932 65.6282 165.668 65.4235 165.332 65.2187C164.996 65.0862 164.588 64.9417 164.18 64.9417C163.64 64.9417 163.16 65.0742 162.752 65.3512C162.344 65.6282 162.008 65.9655 161.732 66.4352C161.456 66.917 161.396 67.3867 161.396 67.9287C161.396 68.4707 161.528 69.0127 161.732 69.4222C162.008 69.904 162.272 70.2412 162.752 70.5062C163.16 70.7832 163.628 70.9157 164.18 70.9157C164.588 70.9157 164.996 70.8434 165.332 70.6387C165.668 70.5062 166.004 70.2292 166.208 69.8919L165.596 69.2174C165.188 69.6992 164.78 69.8919 164.168 69.8919C163.832 69.8919 163.496 69.8197 163.22 69.6149C162.944 69.4101 162.74 69.2054 162.548 68.8681C162.416 68.5309 162.272 68.1937 162.272 67.8444C162.272 67.4349 162.344 67.0976 162.548 66.8206C162.752 66.6158 162.956 66.4111 163.22 66.2063V66.2425ZM177.236 66.0377H178.928V70.8675H179.876V66.0377H181.568V65.1585H177.164V66.0377H177.236ZM193.148 70.9277H194.096V65.1464H193.148V70.9277ZM210.152 65.4235C209.744 65.1464 209.276 65.0139 208.724 65.0139C208.172 65.0139 207.704 65.1464 207.308 65.4235C206.9 65.7005 206.564 66.0377 206.288 66.5074C206.024 66.9892 205.952 67.459 205.952 68.0009C205.952 68.5429 206.084 69.0849 206.288 69.4945C206.564 69.9762 206.9 70.3135 207.308 70.5784C207.716 70.8555 208.184 70.988 208.724 70.988C209.264 70.988 209.744 70.8555 210.152 70.5784C210.56 70.3014 210.896 69.9642 211.172 69.4945C211.448 69.0127 211.508 68.5429 211.508 68.0009C211.508 67.459 211.376 66.917 211.172 66.5074C210.968 66.0257 210.632 65.6884 210.152 65.4235ZM210.356 69.097C210.224 69.4342 209.948 69.639 209.672 69.8437C209.396 70.0485 209.06 70.1208 208.724 70.1208C208.388 70.1208 208.052 70.0485 207.776 69.8437C207.5 69.639 207.308 69.4342 207.104 69.097C206.972 68.7597 206.828 68.4225 206.828 68.0732C206.828 67.6637 206.9 67.3265 207.104 67.0494C207.236 66.7122 207.512 66.5074 207.776 66.3027C208.052 66.0979 208.388 66.0257 208.724 66.0257C209.06 66.0257 209.396 66.0979 209.672 66.3027C209.948 66.5074 210.152 66.7122 210.356 67.0494C210.488 67.3867 210.62 67.7239 210.62 68.0732C210.548 68.4105 210.488 68.7477 210.356 69.097ZM227.012 69.0247L224.168 65.1464H223.352V70.9277H224.3V66.9892L227.144 70.8675H227.96V65.0862H227.012V69.0247Z" fill="#2C2C2C"/>
</svg>
