<svg width="310" height="103" viewBox="0 0 310 103" fill="none" xmlns="http://www.w3.org/2000/svg">
<rect width="310" height="103" fill="white"/>
<path d="M104.051 29.4545V67.6968L76.8106 30.6235V63.7834C76.8106 65.9835 82.0261 67.2066 82.0261 67.2066H70C70 67.2066 75.1959 65.9344 75.1959 63.967V29.8136C75.1959 27.3199 70.3681 26.2576 70.3681 26.2576H80.9202L102.332 55.4008V29.5168C102.332 27.2675 97.5466 26.2576 97.5466 26.2576H109.02C109.02 26.2576 104.05 27.4691 104.05 29.4545H104.051Z" fill="#2C2C2C"/>
<path d="M115.821 36.2321C117.929 36.2321 119.637 34.6231 119.637 32.6384C119.637 30.6536 117.929 29.0447 115.821 29.0447C113.713 29.0447 112.004 30.6536 112.004 32.6384C112.004 34.6231 113.713 36.2321 115.821 36.2321Z" fill="#2C2C2C"/>
<path d="M108.313 41.1864L118.705 37.9714V64.3571C118.705 65.5457 123.378 67.2933 123.378 67.2933H108.453C108.453 67.2933 113.056 65.685 113.056 64.498C113.056 62.57 112.986 44.4375 112.986 42.7964C112.986 41.1553 108.313 41.1881 108.313 41.1881V41.1864Z" fill="#2C2C2C"/>
<path d="M177.618 39.9226C168.928 34.4484 160.387 38.8782 158.152 41.2669C155.845 43.7327 153.795 46.0525 152.938 53.0121C152.079 59.9716 148.468 64.9064 143.055 65.254C137.642 65.6016 132.428 62.2685 129.398 54.604C126.368 46.9395 128.567 41.0571 133.804 39.5389C143.935 36.6026 150.603 49.279 150.603 49.279L148.22 39.3258C148.22 39.3258 139.039 35.8206 132.379 38.4306C125.774 41.0177 119.963 49.2298 124.775 59.4634C129.954 70.479 143.848 68.346 147.624 65.3556C152.838 61.2242 153.533 55.8008 153.533 55.8008C153.533 55.8008 154.726 62.4702 161.131 65.9541C167.537 69.4379 175.531 68.0673 180.151 63.5309C185.067 58.7027 187.063 45.8755 177.618 39.9275V39.9226ZM173.447 65.6524C166.096 67.6427 161.677 59.6306 159.641 54.1056C157.604 48.5822 157.628 42.3719 162.173 40.1209C170.517 35.9895 175.433 44.9492 177.667 50.1742C179.902 55.3992 180.795 63.6604 173.447 65.6524Z" fill="#2C2C2C"/>
<path d="M183.699 28.215L194.093 25V64.5014C194.093 65.69 198.765 67.4377 198.765 67.4377H183.84C183.84 67.4377 188.444 65.8293 188.444 64.6424C188.444 62.7144 188.373 31.4661 188.373 29.825C188.373 28.1838 183.701 28.2166 183.701 28.2166L183.699 28.215Z" fill="#2C2C2C"/>
<path d="M228.237 43.3735L224.79 44.5802C224.79 44.5802 220.193 32.8448 206.677 39.065C194.05 44.8753 198.03 60.0436 204.159 64.5407C209.219 68.2541 220.509 70.874 227.689 62.0733C234.802 53.3546 228.236 43.3735 228.236 43.3735H228.237ZM204.028 51.6086C204.028 51.6086 202.073 46.1163 205.515 41.6865C208.957 37.2583 214.82 38.8764 216.435 41.8996C218.05 44.9228 218.348 46.7541 216.01 47.6902C213.672 48.6264 204.028 51.6069 204.028 51.6069V51.6086ZM213.626 64.321C206.803 61.5208 204.434 53.1333 204.434 53.1333L227.854 45.072C227.854 45.072 231.247 51.1593 229.112 56.9713C226.977 62.7848 220.45 67.1196 213.626 64.3194V64.321Z" fill="#2C2C2C"/>
</svg>
