<svg width="310" height="103" viewBox="0 0 310 103" fill="none" xmlns="http://www.w3.org/2000/svg">
<rect width="310" height="103" fill="white"/>
<path d="M49.0157 61.2643C47.8258 62.3583 46.3264 62.9076 44.5175 62.9076C42.7086 62.9076 41.214 62.3583 40.0483 61.2643C38.8779 60.1704 37.9105 58.0637 37.1463 54.9442C36.3821 51.82 36 47.6353 36 42.3853C36 38.4108 36.2031 35.0382 36.6046 32.277C37.006 29.5111 37.601 27.3758 38.3845 25.8614C39.1729 24.3519 40.058 23.277 41.0447 22.6417C42.0314 22.0063 43.1874 21.6863 44.5175 21.6863C46.3264 21.6863 47.8258 22.2452 49.0157 23.3583C50.2007 24.4713 51.1777 26.6067 51.9467 29.7691C52.7109 32.9315 53.093 37.1353 53.093 42.3853C53.093 47.6353 52.7109 51.82 51.9467 54.9442C51.1777 58.0637 50.2007 60.1704 49.0157 61.2643ZM44.5175 59.7452C45.6444 59.7452 46.5683 59.2675 47.2938 58.3121C48.0193 57.3567 48.5997 55.5605 49.0447 52.914C49.4897 50.2675 49.688 46.7611 49.6493 42.3853C49.6057 35.9028 49.1656 31.3598 48.3192 28.7563C47.4727 26.1528 46.2055 24.8487 44.5175 24.8487C42.8295 24.8487 41.6058 26.1528 40.74 28.7563C39.8742 31.3598 39.4196 35.9028 39.3809 42.3853C39.3422 48.8296 39.763 53.3296 40.6529 55.8949C41.5381 58.4602 42.8246 59.7452 44.5175 59.7452Z" fill="#2C2C2C"/>
<path d="M62.2733 38.8695C69.3156 38.8695 72.8416 42.7628 72.8416 50.559C72.8416 58.3552 69.2769 62.3679 62.1524 62.3679H57.4414V22.2214H70.5441V23.9794C70.5441 24.6577 69.9879 25.2071 69.3011 25.2071H60.5804V38.8695H62.2733ZM62.2104 59.387C64.6288 59.387 66.4377 58.6227 67.6469 57.0893C68.8561 55.5606 69.4607 53.4014 69.4607 50.6163C69.4607 47.8313 68.8561 45.6768 67.6469 44.1434C66.4377 42.6147 64.6288 41.8504 62.2104 41.8504H60.5804V59.387H62.2104Z" fill="#2C2C2C"/>
<path d="M81.4169 38.8646C88.464 38.8646 91.9851 42.7675 91.9851 50.5589C91.9851 58.3503 88.4204 62.3678 81.2959 62.3678H76.585V22.2261H78.7905C79.308 22.2261 79.724 22.6369 79.724 23.148V38.8646H81.4169ZM81.354 59.3869C83.7723 59.3869 85.5861 58.6226 86.7905 57.0891C87.9997 55.5605 88.6042 53.4012 88.6042 50.6162C88.6042 47.8312 87.9997 45.6767 86.7905 44.148C85.5861 42.6146 83.7723 41.8503 81.354 41.8503H79.724V59.3869H81.354ZM95.7288 22.2261H97.7505C98.3986 22.2261 98.9307 22.7468 98.9307 23.3917V62.3678H95.7288V22.2261Z" fill="#2C2C2C"/>
<path d="M137.015 25.3264H129.731V40.656H136.27C136.797 40.656 137.223 41.0764 137.223 41.5923V43.5796H129.731V59.2675H137.537C138.03 59.2675 138.427 59.6592 138.427 60.1465V62.3678H126.471V22.2261H138.427V23.9315C138.427 24.7006 137.798 25.3264 137.015 25.3264Z" fill="#2C2C2C"/>
<path d="M154.737 22.2261H156.972C157.504 22.2261 157.939 22.6512 157.939 23.1767V62.3678H155.525C155.09 62.3678 154.737 62.0191 154.737 61.5939V43.699H144.889V62.3678H141.692V22.2261H143.956C144.474 22.2261 144.889 22.6369 144.889 23.148V40.656H154.737V22.2261Z" fill="#2C2C2C"/>
<path d="M170.258 62.9076C167.719 62.9076 165.755 61.3551 164.367 58.2548C162.979 55.1497 162.282 49.8997 162.282 42.5047C162.282 28.6274 165.121 21.6863 170.8 21.6863C172.57 21.6863 174.002 22.3837 175.09 23.7739C176.173 25.1688 176.918 27.5907 177.324 31.0541L175.728 31.3407C175.003 31.4745 174.297 30.992 174.181 30.2659C173.581 26.6544 172.435 24.8487 170.742 24.8487C167.438 24.8487 165.726 30.734 165.605 42.5047C165.566 53.9984 167.158 59.7452 170.379 59.7452C172.507 59.7452 173.871 57.328 174.456 52.4936C174.553 51.6958 175.298 51.1321 176.106 51.2468L177.561 51.4522C177.324 55.4315 176.536 58.3312 175.211 60.1608C173.881 61.9904 172.231 62.9076 170.258 62.9076Z" fill="#2C2C2C"/>
<path d="M197.073 62.3106H194.272C193.697 62.3106 193.17 61.981 192.923 61.4651L184.028 42.6864V62.3679H180.826V22.2214H182.592C183.385 22.2214 184.028 22.8568 184.028 23.6402V41.3727L192.396 23.4491C192.739 22.7039 193.498 22.2214 194.33 22.2214H196.526L186.983 41.731L197.073 62.3106Z" fill="#2C2C2C"/>
<path d="M215.955 22.0447H216.037V62.3679H213.991C213.387 62.3679 212.893 61.8854 212.893 61.2835V42.0893C212.893 40.0972 212.932 37.2788 213.014 33.6195L201.663 62.4874H199.97V22.2262H201.827C202.504 22.2262 203.051 22.766 203.051 23.4348V50.9746L213.764 23.5303C214.112 22.637 214.983 22.0447 215.955 22.0447Z" fill="#2C2C2C"/>
<path d="M237.455 22.0447H237.474V62.3679H235.254C234.746 62.3679 234.335 61.9619 234.335 61.4555V42.0893C234.335 40.0972 234.374 37.2788 234.456 33.6195L223.099 62.4874H221.411V22.2262H223.433C224.018 22.2262 224.492 22.6944 224.492 23.2724V50.9746L235.181 23.5877C235.544 22.6561 236.449 22.0447 237.455 22.0447Z" fill="#2C2C2C"/>
<path d="M228.067 18.1514C227.187 18.1514 226.471 18.8536 226.471 19.723V20.3058H232.115C232.991 20.3106 233.706 19.6084 233.706 18.7437V18.1561L228.067 18.1514Z" fill="#2C2C2C"/>
<path d="M271.408 60.1704H267.597V17H267.413L259.331 20.7213L259.945 22.8758C260.032 23.1863 260.385 23.3344 260.676 23.1863L264.385 21.2516V60.1704H259.8V60.7532C259.8 61.6226 260.511 62.3248 261.392 62.3248H273V61.742C273 60.8774 272.289 60.1704 271.408 60.1704Z" fill="#2C2C2C"/>
<path d="M122.345 59.4539H120.856V22.0447H119.202C113.804 22.0447 109.842 23.5542 107.419 26.5351C105.359 29.0717 105.083 32.0383 105.083 33.1084V53.3345C105.083 55.8616 104.851 57.5144 104.367 58.2883C103.884 59.067 103.018 59.4539 101.77 59.4539H101.712V62.3679H123.148V60.2326C123.148 59.8026 122.79 59.4539 122.345 59.4539ZM106.965 59.4539C107.888 58.2501 108.362 55.8616 108.362 52.2883V32.8982C108.362 32.3154 108.479 30.2803 109.959 28.4603C111.511 26.5495 114.07 25.4651 117.586 25.2167V59.4539H106.965Z" fill="#2C2C2C"/>
<path d="M246.988 53.3057H246.891L247.196 59.9888C247.196 60.5525 246.732 61.0063 246.161 61.0063H244.933V49.0302H246.795L251.182 58.0684H251.298L250.993 49.9522C250.993 49.4936 251.37 49.1209 251.83 49.1209H253.252V62.3487H251.39L246.988 53.3057ZM254.49 51.2897C254.49 50.8694 254.543 50.5063 254.64 50.2149C254.746 49.9235 254.887 49.6846 255.075 49.4936C255.259 49.3073 255.482 49.1687 255.738 49.0827C255.989 48.992 256.27 48.949 256.579 48.949C256.889 48.949 257.165 48.9872 257.421 49.0684C257.673 49.1448 257.895 49.2738 258.079 49.4601C258.267 49.6416 258.413 49.8853 258.519 50.1815C258.625 50.4776 258.679 50.8455 258.679 51.2897C258.679 51.734 258.625 52.0971 258.519 52.3932C258.413 52.6942 258.267 52.9331 258.079 53.1194C257.895 53.3009 257.673 53.4299 257.421 53.5063C257.165 53.5875 256.884 53.6257 256.579 53.6257C256.275 53.6257 255.989 53.5875 255.738 53.5063C255.482 53.4299 255.259 53.3009 255.075 53.1194C254.887 52.9331 254.746 52.6942 254.64 52.3932C254.543 52.0971 254.49 51.7292 254.49 51.2897ZM254.712 54.2993H258.485V55.1162C258.485 55.3503 258.258 55.5413 257.977 55.5413H255.341C254.993 55.5413 254.712 55.3025 254.712 55.0111V54.2993ZM255.951 51.2897C255.951 51.7292 255.999 52.0397 256.105 52.2165C256.207 52.3932 256.367 52.484 256.579 52.484C256.691 52.484 256.783 52.4697 256.865 52.4362C256.942 52.4028 257.005 52.3407 257.058 52.2499C257.107 52.1592 257.145 52.035 257.17 51.8773C257.194 51.7245 257.203 51.5286 257.203 51.2897C257.203 50.8216 257.15 50.5063 257.053 50.3391C256.947 50.1719 256.792 50.0907 256.579 50.0907C256.367 50.0907 256.207 50.1719 256.105 50.3391C255.999 50.5063 255.951 50.8216 255.951 51.2897Z" fill="#2C2C2C"/>
<path d="M71.0855 79.9189L74.4422 76.575H75.6272L71.9367 80.2103L75.7481 84.3664H74.5389L71.3128 80.7931L71.0855 81.0128V84.3664H70.2148V76.575H71.0855V79.9189Z" fill="#2C2C2C"/>
<path d="M82.5342 76.575V84.3664H81.6587V77.3918H78.6068V81.5765C78.6068 82.274 78.6406 83.3011 77.9006 83.9699C77.5572 84.2708 77.0735 84.4332 76.5511 84.4332C76.4931 84.4332 76.3141 84.4237 76.0771 84.3664V83.5495C76.1932 83.5829 76.348 83.6211 76.5125 83.6211C76.8704 83.6211 77.1267 83.4683 77.2815 83.3154C77.7458 82.8568 77.7313 82.0208 77.7313 81.223V76.575H82.5342Z" fill="#2C2C2C"/>
<path d="M84.7106 76.575L87.1676 81.1657L89.2281 76.575H90.1712L86.6114 84.3664H85.6682L86.6694 82.1928L83.6465 76.575H84.7106Z" fill="#2C2C2C"/>
<path d="M91.2842 76.575H95.1971V77.3966H92.1596V79.8138H93.2237C94.1911 79.8138 95.942 80.0097 95.942 82.0065C95.942 83.4874 94.9359 84.3664 93.3882 84.3664H91.2842V76.575ZM92.1596 83.5495H93.1753C93.5284 83.5495 94.1765 83.5495 94.6312 83.1148C94.844 82.9189 95.0423 82.5654 95.0423 82.0065C95.0423 81.6339 94.9504 81.1179 94.4039 80.8265C94.0363 80.6259 93.5623 80.6259 93.0786 80.6259H92.1596V83.5495Z" fill="#2C2C2C"/>
<path d="M98.4233 79.7421H102.467V76.575H103.342V84.3664H102.467V80.559H98.4233V84.3664H97.5527V76.575H98.4233V79.7421Z" fill="#2C2C2C"/>
<path d="M105.378 76.575H106.253V79.809H107.317C108.285 79.809 110.036 80.0097 110.036 82.0065C110.036 83.4921 109.03 84.3664 107.482 84.3664H105.378V76.575ZM106.253 83.5495H107.269C107.622 83.5495 108.275 83.5495 108.725 83.1148C108.938 82.9189 109.136 82.5654 109.136 82.0065C109.136 81.6339 109.044 81.1227 108.498 80.8265C108.13 80.6307 107.661 80.6307 107.177 80.6307H106.253V83.5495ZM111.738 84.3664H110.863V76.575H111.738V84.3664Z" fill="#2C2C2C"/>
<path d="M119.259 78.4237L113.774 84.7151V76.5749H114.645V82.5463L120.135 76.2501V84.3663H119.259V78.4237ZM115.946 74.5447C116.135 75.1848 116.855 75.1991 116.952 75.1991C117.049 75.1991 117.77 75.1848 117.958 74.5447L118.785 74.8122C118.713 75.0128 118.302 75.9444 116.952 75.9444C115.603 75.9444 115.192 75.0128 115.119 74.8122L115.946 74.5447Z" fill="#2C2C2C"/>
<path d="M130.408 76.575V83.5495H131.308V86.0001H130.481V84.3664H124.899V86.0001H124.072V83.5495C124.638 83.5734 125.088 83.0813 125.325 82.4985C125.48 82.1116 125.61 81.5288 125.61 80.4539V76.575H130.408ZM126.481 80.4539C126.481 81.5288 126.389 82.1355 126.2 82.6275C126.06 83.0001 125.857 83.2915 125.596 83.5495H129.533V77.3966H126.481V80.4539Z" fill="#2C2C2C"/>
<path d="M132.062 80.4776C132.062 78.1512 133.896 76.4458 136.169 76.4458C138.442 76.4458 140.27 78.1512 140.27 80.4776C140.27 82.8041 138.447 84.5047 136.169 84.5047C133.891 84.5047 132.062 82.7898 132.062 80.4776ZM132.962 80.4776C132.962 82.2643 134.394 83.6878 136.169 83.6878C137.944 83.6878 139.371 82.2643 139.371 80.4776C139.371 78.691 137.939 77.2675 136.169 77.2675C134.399 77.2675 132.962 78.691 132.962 80.4776Z" fill="#2C2C2C"/>
<path d="M141.605 84.3663L142.916 76.1449L145.949 82.7182L149.03 76.1306L150.258 84.3663H149.364L148.619 78.9491L145.934 84.6959L143.284 78.9491L142.505 84.3663H141.605Z" fill="#2C2C2C"/>
<path d="M155.714 79.7421H159.758V76.575H160.633V84.3664H159.758V80.559H155.714V84.3664H154.839V76.575H155.714V79.7421Z" fill="#2C2C2C"/>
<path d="M167.017 82.1687H163.656L162.712 84.3662H161.745L165.373 76.2021L168.908 84.3662H167.936L167.017 82.1687ZM166.674 81.3518L165.348 78.2324L163.999 81.3518H166.674Z" fill="#2C2C2C"/>
<path d="M172.348 80.4776C172.348 78.1512 174.181 76.4458 176.449 76.4458C178.718 76.4458 180.556 78.1512 180.556 80.4776C180.556 82.8041 178.732 84.5047 176.449 84.5047C174.166 84.5047 172.348 82.7898 172.348 80.4776ZM173.247 80.4776C173.247 82.2643 174.679 83.6878 176.449 83.6878C178.219 83.6878 179.656 82.2643 179.656 80.4776C179.656 78.691 178.224 77.2675 176.449 77.2675C174.674 77.2675 173.247 78.691 173.247 80.4776Z" fill="#2C2C2C"/>
<path d="M188.192 78.2946C187.946 78.051 187.564 77.7548 187.162 77.5685C186.751 77.3822 186.263 77.2628 185.803 77.2628C183.984 77.2628 182.635 78.715 182.635 80.5112C182.635 82.6274 184.371 83.6879 185.813 83.6879C186.345 83.6879 186.867 83.5351 187.283 83.3249C187.728 83.1051 188.052 82.8137 188.192 82.6752V83.7453C187.317 84.3663 186.408 84.5048 185.813 84.5048C183.477 84.5048 181.735 82.7564 181.735 80.5016C181.735 78.2469 183.501 76.4507 185.861 76.4507C186.335 76.4507 187.244 76.508 188.192 77.2198V78.2946Z" fill="#2C2C2C"/>
<path d="M191.738 77.3917V84.3662H190.867V77.3917H188.952V76.5796H193.653V77.3917H191.738Z" fill="#2C2C2C"/>
<path d="M193.997 80.4776C193.997 78.1512 195.83 76.4458 198.103 76.4458C200.377 76.4458 202.205 78.1512 202.205 80.4776C202.205 82.8041 200.382 84.5047 198.103 84.5047C195.825 84.5047 193.997 82.7898 193.997 80.4776ZM194.897 80.4776C194.897 82.2643 196.328 83.6878 198.103 83.6878C199.879 83.6878 201.305 82.2643 201.305 80.4776C201.305 78.691 199.874 77.2675 198.103 77.2675C196.333 77.2675 194.897 78.691 194.897 80.4776Z" fill="#2C2C2C"/>
<path d="M207.772 76.575V79.9189L210.776 76.575H211.864L208.556 80.2103L211.961 84.3664H210.848L207.961 80.8027L207.772 81.0128V84.3664H206.902V81.0128L206.708 80.8027L203.825 84.3664H202.713L206.118 80.2103L202.81 76.575H203.898L206.902 79.9189V76.575H207.772Z" fill="#2C2C2C"/>
<path d="M217.233 77.3917H214.016V79.7038H217.136V80.5254H214.016V83.5493H217.233V84.3662H213.141V76.5796H217.233V77.3917Z" fill="#2C2C2C"/>
<path d="M219.713 79.7421H223.757V76.575H224.632V84.3664H223.757V80.559H219.713V84.3664H218.843V76.575H219.713V79.7421Z" fill="#2C2C2C"/>
<path d="M227.544 79.9189L230.901 76.575H232.081L228.396 80.2103L232.202 84.3664H230.998L227.767 80.7931L227.544 81.0128V84.3664H226.669V76.575H227.544V79.9189Z" fill="#2C2C2C"/>
<path d="M237.474 77.3917H234.257V79.7038H237.382V80.5254H234.257V83.5493H237.474V84.3662H233.382V76.5796H237.474V77.3917Z" fill="#2C2C2C"/>
</svg>
