<svg width="310" height="103" viewBox="0 0 310 103" fill="none" xmlns="http://www.w3.org/2000/svg">
<rect width="310" height="103" fill="white"/>
<path d="M65.7629 63.2142H85.4247V46.3333H65.7629V63.2142ZM92.1876 69H59V40.5343H92.1876V69ZM99.3002 69V40.5343H110.094L120.981 63.1414L125.098 63.1546V40.5343H131.696V68.9537L116.607 68.9073L105.898 46.6709V69H99.3068H99.3002ZM171.198 54.4229V48.465L146.984 54.0588V46.3333H171.198V40.5343H140.386V69H171.198V63.2009H146.984V60.0234L171.198 54.4295V54.4229ZM211.492 69H179.887V63.287H204.946V59.6924L179.887 54.3898V40.5343H211.261V46.2539H186.327L186.34 49.9478L211.492 55.257V69ZM224.377 35V40.5343H217.819V46.426H224.179V69H251V63.3135H230.929V46.426H251V40.5343H230.936V35H224.377Z" fill="#2C2C2C"/>
</svg>
