<svg width="310" height="103" viewBox="0 0 310 103" fill="none" xmlns="http://www.w3.org/2000/svg">
<rect width="310" height="103" fill="white"/>
<path d="M112.641 29.4053C99.9716 27.2007 81.5094 34.2116 71.4044 45.0631C61.2994 55.9158 63.3776 66.4996 76.0469 68.7042C88.7162 70.9088 107.178 63.8979 117.283 53.0464C127.388 42.1948 125.31 31.6099 112.641 29.4053ZM116.429 51.9579C107.829 61.4854 91.9269 67.4653 80.9089 65.3149C69.8909 63.1634 67.9293 53.6957 76.5286 44.1682C85.1268 34.6397 101.029 28.6597 112.048 30.8112C123.066 32.9627 125.028 42.4304 116.429 51.9579Z" fill="#2C2C2C"/>
<path d="M83.9023 82.5383L85.641 83.0007C85.641 83.0007 124.209 56.5278 127.018 55.0444C130.841 53.0234 135.402 50.4881 137.073 51.6761C138.745 52.8641 139.993 57.2445 143.203 57.9049C146.414 58.5653 149.022 57.8386 154.373 55.7921C159.723 53.7457 162.599 52.7546 162.599 52.7546C162.599 52.7546 163.603 54.7358 164.538 56.4525C165.474 58.1693 167.347 59.2257 172.163 57.5753C176.979 55.9249 185.338 52.6882 185.338 52.6882C185.338 52.6882 186.342 55.3298 187.212 56.3862C188.081 57.4426 189.419 59.2921 193.566 58.1693C197.713 57.0465 219.717 49.9803 219.717 49.9803C219.717 49.9803 217.354 52.4913 219.829 53.3497C222.303 54.2081 224.758 53.9017 226.629 54.0532C228.876 54.2347 228.818 55.8452 225.514 56.3463C215.765 57.8253 216.896 53.2988 216.896 53.2988C216.896 53.2988 210.58 54.5566 211.778 57.2888C212.812 59.6472 221.813 59.2467 226.695 57.5299C231.577 55.8132 234.768 52.8575 231.932 51.1683C230.037 50.0401 226.858 50.8841 225.647 49.5832C224.693 48.5578 228.411 47.7337 228.411 47.7337L227.766 46.4793C227.766 46.4793 201.232 54.5997 198.958 55.2601C196.684 55.9205 194.034 55.791 192.696 53.0831C191.359 50.3752 190.891 49.164 190.891 49.164C190.891 49.164 177.75 54.3541 174.999 55.1992C172.59 55.9393 171.093 55.2623 170.023 53.0168C168.953 50.7712 168.284 49.164 168.284 49.164C168.284 49.164 155.798 54.1174 152.386 55.1085C148.975 56.0997 146.615 54.9979 144.942 51.9604C143.27 48.9228 142.536 48.0611 139.124 48.7215C135.713 49.3819 132.01 51.4548 132.01 51.4548L153.234 36.9032L151.407 36.5514L83.9023 82.5383Z" fill="#2C2C2C"/>
</svg>
