<svg width="310" height="103" viewBox="0 0 310 103" fill="none" xmlns="http://www.w3.org/2000/svg">
<rect width="310" height="103" fill="white"/>
<path d="M113.939 39.9863H129.785C131.469 39.9989 133.103 40.2628 134.585 41.0922C136.759 42.2985 137.865 44.4348 137.551 46.8224C137.425 47.9785 136.948 49.0718 136.194 49.9515C135.44 50.8311 134.435 51.472 133.304 51.7736C132.977 51.8615 132.638 51.9369 132.261 52.0249C132.537 52.9925 132.814 53.9476 133.09 54.9026C133.203 55.3047 133.316 55.7069 133.455 56.0964C133.982 57.6421 135.151 58.2704 136.734 57.8557C136.998 57.7929 137.262 57.7049 137.564 57.6044V60.7962C137.564 60.7962 137.539 60.9219 137.501 60.9722C137.463 61.0224 137.413 61.0601 137.363 61.0978C135.955 61.5502 134.523 61.8015 133.052 61.4497C131.381 61.0476 130.413 59.904 129.936 58.3584C129.383 56.5614 128.931 54.7267 128.415 52.9046C128.378 52.7915 128.353 52.6658 128.302 52.5276H119.732V57.5792H122.484V61.0099H113.889V57.6044H116.075V43.6431H113.901V39.9863H113.939ZM119.757 49.3608C123.125 49.3608 126.455 49.3985 129.785 49.3357C130.501 49.2854 131.193 49.0718 131.808 48.7074C132.814 48.1545 133.266 47.1994 133.165 46.0559C133.065 44.8621 132.324 44.1207 131.218 43.8316C130.338 43.6054 129.421 43.4798 128.503 43.4672C125.726 43.4546 122.949 43.5049 120.147 43.5426C120.021 43.5426 119.895 43.5552 119.757 43.5677V49.3608Z" fill="#2C2C2C"/>
<path d="M231.874 39.9863V43.5049H229.273V51.3086C233.194 48.7325 237.064 46.169 241.06 43.53L238.572 43.2661V39.9863H249.09V43.5175H246.74C246.539 43.5175 246.351 43.5803 246.187 43.6808C243.762 45.3773 241.337 47.0863 238.911 48.7954C238.836 48.8456 238.773 48.9084 238.71 48.9713C240.733 51.9369 242.757 54.8775 245.747 56.9384C245.986 57.1017 246.238 57.2525 246.501 57.3782C247.306 57.7677 248.148 58.0191 249.09 57.6798C249.103 57.8431 249.128 57.9814 249.128 58.107C249.128 58.9113 249.128 59.703 249.178 60.4946C249.216 60.9973 249.052 61.2109 248.562 61.3617C246.401 62.0152 244.554 61.412 242.857 60.0422C240.897 58.4463 239.351 56.486 237.806 54.5005C236.951 53.3946 236.109 52.2637 235.255 51.1201C235.129 51.1955 235.003 51.2709 234.865 51.3589C233.106 52.515 231.372 53.6711 229.625 54.8146C229.499 54.8775 229.399 54.9906 229.323 55.1162C229.26 55.2419 229.235 55.3927 229.248 55.5309C229.273 56.1969 229.248 56.863 229.248 57.5667H231.874V61.035H223.53V57.6169H225.666V43.53H223.518V39.9863H231.899H231.874Z" fill="#2C2C2C"/>
<path d="M82.7357 39.9863V46.5585H79.104V43.4798H65.5951V48.2173H74.0146V51.7736H65.5951V57.2022H79.7826V53.4072H83.3388V60.6203H59.6638V57.2525H61.8881V43.4672H59.6387V39.9863H82.7231H82.7357Z" fill="#2C2C2C"/>
<path d="M200.423 59.4519V60.7839H196.842V53.2566H198.991C199.686 53.2566 200.101 53.5917 200.235 54.2619C200.235 54.2619 200.247 54.3248 200.26 54.3499C200.197 55.418 200.863 55.8956 201.718 56.3228C205.173 58.0319 208.717 58.2706 212.336 57.0265C212.99 56.7878 213.568 56.3982 214.02 55.883C215.038 54.7395 214.673 53.1812 213.304 52.5027C212.261 51.9874 211.142 51.8618 210.011 51.7612C207.737 51.5602 205.45 51.4471 203.188 51.1581C202.007 51.0073 200.85 50.6805 199.757 50.203C196.163 48.6196 196.502 44.2717 198.161 42.3239C199.217 41.1301 200.612 40.263 202.145 39.8358C205.676 38.755 209.207 38.6922 212.726 39.8735C213.178 40.0242 213.618 40.2504 214.108 40.4515C214.234 40.0368 214.347 39.6347 214.46 39.2326H217.589V45.9681H214.284C214.221 45.4529 214.133 44.9126 214.095 44.3722C214.095 44.2088 214.045 44.0329 213.945 43.8947C213.844 43.7565 213.706 43.6559 213.555 43.5931C211.105 42.5752 208.428 42.1857 205.789 42.4873C204.796 42.6255 203.816 42.8642 202.874 43.2161C202.509 43.3292 202.183 43.5303 201.906 43.8067C201.642 44.0706 201.441 44.4099 201.315 44.7743C201.152 45.1765 201.152 45.6163 201.29 46.0184C201.429 46.4205 201.718 46.7598 202.082 46.986C202.899 47.4635 203.816 47.74 204.771 47.8028C206.983 48.0542 209.195 48.2301 211.394 48.4814C212.789 48.6071 214.158 48.9464 215.453 49.4993C217.84 50.58 218.871 52.5278 218.481 55.129C218.079 57.7931 216.483 59.5147 214.07 60.4572C209.546 62.2039 205.085 62.0782 200.788 59.6655C200.7 59.5901 200.599 59.5524 200.423 59.4644V59.4519Z" fill="#2C2C2C"/>
<path d="M38.8559 52.9546V58.044H41.6708V61.6254H33V58.0943H35.2117V43.7561H33V40.2123C33.1131 40.1998 33.2136 40.1872 33.3142 40.1746C38.1396 40.1118 42.9651 40.049 47.7906 39.9861C49.5373 39.9233 51.2715 40.1872 52.9303 40.7401C57.1023 42.2607 57.517 47.0484 55.4938 49.7879C53.9858 51.8362 51.8998 52.7787 49.4368 52.829C46.1067 52.9044 42.7641 52.9044 39.434 52.9421H38.8434L38.8559 52.9546ZM38.8559 49.5994C38.9565 49.5994 39.0067 49.6245 39.0696 49.6245C42.0604 49.6245 45.0386 49.6622 48.0294 49.5869C48.9342 49.5492 49.8264 49.3607 50.6809 49.0214C51.9501 48.5438 52.5156 47.5008 52.4276 46.1814C52.3396 45.0378 51.6108 44.1582 50.3416 43.8566C49.6002 43.6681 48.8336 43.5801 48.0671 43.5801C45.1265 43.5801 42.1986 43.6304 39.2581 43.6681C39.1324 43.6681 39.0193 43.6932 38.8811 43.7058V49.5994H38.8559Z" fill="#2C2C2C"/>
<path d="M140.579 50.3912C140.667 47.9156 141.258 45.5783 142.866 43.4923C144.65 41.1926 147.176 39.8355 150.255 39.2951C153.246 38.7673 156.199 38.9181 159.014 39.9863C162.909 41.4565 165.159 44.108 165.938 47.7146C166.541 50.2781 166.239 52.9673 165.071 55.3549C163.538 58.4839 160.823 60.4317 157.066 61.2234C153.899 61.8894 150.758 61.7512 147.729 60.6077C143.922 59.15 141.735 56.5362 140.918 53.0176C140.717 52.1505 140.68 51.2709 140.566 50.3786L140.579 50.3912ZM144.902 50.3912C144.94 50.7179 144.965 51.3211 145.078 51.9117C145.505 54.1611 146.661 56.0209 148.973 57.2147C150.645 58.0693 152.479 58.2578 154.364 58.1572C157.632 57.9939 160.384 56.2597 161.351 53.671C161.791 52.5401 162.005 51.3463 161.942 50.1273C161.892 48.9209 161.577 47.7397 161.037 46.6464C160.183 44.8746 158.712 43.6431 156.651 42.977C154.553 42.2985 152.291 42.2733 150.167 42.8891C148.295 43.4294 146.85 44.4599 145.92 46.0055C145.141 47.2873 144.889 48.6696 144.864 50.3786L144.902 50.3912Z" fill="#2C2C2C"/>
<path d="M167.236 43.4295V39.9863H175.857V43.329H173.456C173.532 43.5175 173.57 43.6431 173.632 43.7562C175.643 47.9157 177.666 52.0626 179.689 56.2095C179.79 56.3603 179.916 56.5111 180.054 56.6242C180.205 56.4985 180.343 56.3603 180.456 56.1969C182.479 52.05 184.502 47.9031 186.513 43.7437C186.563 43.6306 186.601 43.5175 186.676 43.3541H184.263V39.9863H192.897V43.4295C192.281 43.4295 191.678 43.4546 191.062 43.4295C190.924 43.4169 190.773 43.4421 190.66 43.5175C190.534 43.5929 190.446 43.706 190.408 43.8442C187.694 49.2729 184.992 54.7015 182.265 60.1302C182.215 60.2936 182.102 60.4318 181.951 60.5198C181.8 60.6077 181.637 60.6454 181.461 60.6329C180.506 60.5952 179.551 60.6077 178.596 60.6329C178.445 60.658 178.294 60.6329 178.169 60.5449C178.043 60.4695 177.943 60.3438 177.892 60.2056C175.178 54.7644 172.439 49.3231 169.724 43.8819C169.674 43.7311 169.573 43.6054 169.435 43.53C169.297 43.4546 169.146 43.4169 168.983 43.4295C168.392 43.4295 167.814 43.4295 167.211 43.4295H167.236Z" fill="#2C2C2C"/>
<path d="M250.133 42.6127V39.9863H258.753V42.5247H256.341C256.416 42.663 256.454 42.7761 256.517 42.8515C258.527 46.0182 260.55 49.1849 262.574 52.3391C262.674 52.4647 262.8 52.5653 262.938 52.6532C263.089 52.5653 263.227 52.4522 263.34 52.3265C265.363 49.1723 267.386 46.0056 269.397 42.8389C269.447 42.7509 269.498 42.6755 269.56 42.5373H267.148V39.9863H275.793V42.6127C275.178 42.6127 274.574 42.6253 273.959 42.6127C273.833 42.5876 273.695 42.6127 273.582 42.663C273.469 42.7258 273.368 42.8138 273.305 42.9269C270.591 47.0486 267.877 51.183 265.162 55.3299C265.087 55.4681 264.961 55.5812 264.823 55.644C264.685 55.7069 264.521 55.732 264.371 55.7069C263.415 55.6817 262.46 55.6817 261.505 55.7069C261.367 55.732 261.229 55.7069 261.103 55.6566C260.978 55.5938 260.877 55.5058 260.802 55.3927C258.087 51.2458 255.348 47.1115 252.634 42.952C252.558 42.8263 252.445 42.7258 252.319 42.663C252.194 42.6001 252.043 42.5876 251.905 42.6001C251.327 42.6001 250.749 42.6001 250.145 42.6001L250.133 42.6127Z" fill="#2C2C2C"/>
<path d="M100.483 57.24H103.097V60.6454H94.1746V57.2525H96.7758V43.4798H90.9325V45.6412H87.3008V39.9863H110.008V45.6538H106.389V43.4798H100.508V57.24H100.483Z" fill="#2C2C2C"/>
<path d="M268.894 57.6926H258.037V61.6259H268.894V57.6926Z" fill="#2C2C2C"/>
<path d="M265.93 52.7788H261.984V59.6652H265.93V52.7788Z" fill="#2C2C2C"/>
<path d="M276.789 39.9863H267.904V42.9394H276.789V39.9863Z" fill="#2C2C2C"/>
<path d="M259.017 39.9863H250.133V42.9394H259.017V39.9863Z" fill="#2C2C2C"/>
</svg>
