<svg width="310" height="103" viewBox="0 0 310 103" fill="none" xmlns="http://www.w3.org/2000/svg">
<rect width="310" height="103" fill="white"/>
<path d="M69.0957 35.6001V42.5495H70.2093C72.2419 42.5495 73.3069 43.5489 73.3069 45.5992V46.6012C73.3069 48.8009 72.1933 49.6509 70.2093 49.6509H69.0957V56.6003H70.5984C77.2262 56.6003 80.7027 53.2003 80.7027 46.6012V45.5992C80.7027 39.0439 77.1699 35.6001 70.5984 35.6001H69.0957ZM67.4035 68.3998V35.6001H60V68.3998H67.4035Z" fill="#2C2C2C"/>
<path d="M95.2561 61.9502V69C101.354 68.7012 105.179 64.9509 105.179 59.1503V44.8497C105.179 39.0491 101.354 35.3014 95.2561 35V42.0498C96.9022 42.2997 97.8213 43.5 97.8213 45.4498V58.5991C97.8213 60.5 96.9022 61.7003 95.2561 61.9502ZM93.5128 69V61.9502C91.8667 61.7003 90.9477 60.5 90.9477 58.5991V45.4447C90.9477 43.4948 91.8667 42.2945 93.5128 42.0447V35C87.4149 35.3014 83.5928 39.0491 83.5928 44.8497V59.1503C83.5928 64.9509 87.4174 68.7012 93.5128 69Z" fill="#2C2C2C"/>
<path d="M124.653 55.2506C127.797 53.8493 129.394 50.9001 129.394 46.6012V45.5992C129.394 39.0439 125.861 35.6001 119.29 35.6001H117.782V42.5495H118.893C121.023 42.5495 121.99 43.4999 121.99 45.5992V46.6012C121.99 48.8549 120.979 49.6509 118.893 49.6509H117.782V56.2499H117.984L122.29 68.3998H129.596V67.2999L124.653 55.2506ZM108.686 68.3998H116.092V35.6001H108.684L108.689 68.3998H108.686Z" fill="#2C2C2C"/>
<path d="M147.012 44.2006H139.657V68.3998H147.012V44.2006ZM131.905 42.5495H154.766V35.6001H131.905V42.5495Z" fill="#2C2C2C"/>
<path d="M176.587 61.4504H167.781V68.3998H176.587V61.4504ZM158.683 68.3998H166.089V35.6001H158.683V68.3998Z" fill="#2C2C2C"/>
<path d="M178.613 68.3998H185.914L187.22 63.2998H191.869L190.223 56.9506H188.768L189.495 54.0992L185.719 38.9434L178.61 67.2999V68.3998H178.613ZM186.598 35.6001L194.871 68.3998H202.18V67.2999L194.198 35.6001H186.598Z" fill="#2C2C2C"/>
<path d="M212.386 57.4992L205.459 40.1489V68.3998H212.386V57.4992ZM219.211 46.5007L226.128 63.851V35.6001H219.204L219.209 46.5007H219.211ZM226.128 68.3998L212.962 35.6001H205.459L218.623 68.3998H226.128Z" fill="#2C2C2C"/>
<path d="M240.385 61.4504V68.3998H241.304C247.935 68.3998 252 64.549 252 58.0993V45.9495C252 39.3942 247.935 35.6001 241.304 35.6001H240.385V42.5495H241.45C243.532 42.5495 244.645 43.8503 244.645 46.2998V57.7001C244.645 60.1574 243.532 61.4504 241.45 61.4504H240.385ZM238.691 68.3998V35.6001H231.287V68.3998H238.691Z" fill="#2C2C2C"/>
</svg>
