<svg width="310" height="103" viewBox="0 0 310 103" fill="none" xmlns="http://www.w3.org/2000/svg">
<rect width="310" height="103" fill="white"/>
<path d="M154.146 34H147.758V70H154.146V34Z" fill="#2C2C2C"/>
<path d="M211.853 63.7347V55.1334H231.003V48.8666H211.853V40.2667H233.305V34H211.853H208.66H205.467V70H208.66H211.853H234V63.7347H211.853Z" fill="#2C2C2C"/>
<path d="M88.3115 34.1061H77.3878V34H71V70H77.3878V58.1599H88.3129C95.0728 58.1599 100.572 52.7648 100.572 46.133C100.572 39.5012 95.0713 34.1061 88.3115 34.1061ZM88.3115 52.1068H77.3878V40.1606H88.3129C91.6705 40.1606 94.4007 42.8405 94.4007 46.133C94.4007 49.4255 91.669 52.1054 88.3129 52.1054L88.3115 52.1068Z" fill="#2C2C2C"/>
<path d="M138.534 45.4666C138.534 39.2664 133.393 34.2207 127.071 34.2207H115.023V34H108.635V70H115.023V56.711H123.566L132.519 70H139.772L130.478 56.2045C135.141 54.7782 138.534 50.5037 138.534 45.4666ZM115.024 40.046H127.073C130.119 40.046 132.598 42.4768 132.598 45.4666C132.598 48.4563 130.12 50.8872 127.073 50.8872H115.024V40.046Z" fill="#2C2C2C"/>
<path d="M179.202 34.1302H170.687V34H164.299V70H170.687V69.8698H179.202C189.074 69.8698 197.104 61.9915 197.104 52.3063V51.6937C197.104 42.0085 189.074 34.1302 179.202 34.1302ZM190.984 52.3063C190.984 58.6792 185.698 63.8649 179.202 63.8649H170.687V40.1351H179.202C185.698 40.1351 190.984 45.3208 190.984 51.6937V52.3063Z" fill="#2C2C2C"/>
</svg>
