<svg width="310" height="103" viewBox="0 0 310 103" fill="none" xmlns="http://www.w3.org/2000/svg">
<rect width="310" height="103" fill="white"/>
<path d="M101.542 40.1012C103.239 40.1012 104.54 38.7764 104.54 37.0914C104.54 35.4063 103.192 34.1047 101.542 34.1047C99.892 34.1047 98.5439 35.4528 98.5439 37.103C98.5439 38.7532 99.8455 40.1128 101.542 40.1128" fill="#2B2B33"/>
<path d="M228.654 43.0179H228.375C227.876 43.0179 227.376 43.1108 226.806 43.2735C224.087 44.1684 222.17 46.4926 221.1 50.1997L221.147 47.2363C221.147 45.098 220.996 43.843 220.671 43.2271L220.624 43.1341H216.115L216.22 43.3781C216.812 44.7727 217.021 48.3171 217.021 50.2346V64.1683C217.021 64.9934 215.743 65.1212 214.779 65.2374L214.349 65.2839V66.0276H223.75V65.2839L223.599 65.2606C223.494 65.2374 223.378 65.2374 223.274 65.2142C222.402 65.1096 221.1 64.9585 221.1 64.145V56.0684C221.1 47.3642 225.121 46.3996 226.865 46.3996C228.933 46.3996 230.025 50.0138 230.397 50.5948C230.572 50.897 230.827 50.9202 231.048 50.9202C231.815 50.9202 232.292 49.6187 232.292 48.8981C232.268 44.8308 230.595 43.0179 228.654 42.9946" fill="#2B2B33"/>
<path d="M65.04 53.1632C63.5642 53.8837 62.1464 54.581 61.3678 55.6036V34.8367H63.785C68.5496 34.8367 70.99 38.6252 70.99 43.3666C70.9668 47.5037 67.8175 51.7919 65.0517 53.1632M63.7501 34.0116H54V34.8135L54.1511 34.8367C54.2557 34.86 54.3486 34.86 54.4765 34.8832C55.4294 34.9878 56.8704 35.1389 56.8704 35.9872V64.0173C56.8704 64.8656 55.4294 65.0167 54.4765 65.1329C54.3719 65.1561 54.2557 65.1561 54.1743 65.1794L54.0232 65.2026V66.0045H64.2266V65.2026L64.0755 65.1794C63.9709 65.1561 63.8547 65.1561 63.7501 65.1329C62.7972 65.0283 61.3562 64.8656 61.3562 64.0173V58.4856C61.3562 55.3131 64.0987 54.5693 67.2945 53.6977C71.1644 52.6518 75.5687 48.7123 75.5687 42.6228C75.5455 38.0093 71.2573 34 63.7501 34" fill="#2B2B33"/>
<path d="M90.9784 43.0179H90.6995C90.1998 43.0179 89.7001 43.1108 89.1307 43.2735C86.4113 44.1684 84.4938 46.4926 83.4247 50.1997L83.4712 47.2363C83.4712 45.098 83.3201 43.843 82.9947 43.2271L82.9482 43.1341H78.4393L78.5438 43.3781C79.1365 44.7727 79.3457 48.3171 79.3457 50.2346V64.1683C79.3457 64.9934 78.0558 65.1212 77.1028 65.2374L76.6729 65.2839V66.0276H86.0743V65.2839L85.9232 65.2606C85.8186 65.2374 85.7024 65.2374 85.5978 65.2142C84.7263 65.1096 83.4247 64.9585 83.4247 64.145V56.0684C83.4247 47.3642 87.4456 46.3996 89.1888 46.3996C91.2573 46.3996 92.3497 50.0138 92.71 50.5948C92.8843 50.897 93.1399 50.9202 93.3607 50.9202C94.1277 50.9202 94.6042 49.6187 94.6042 48.8981C94.5809 44.8308 92.8843 43.0179 90.9668 42.9946" fill="#2B2B33"/>
<path d="M105.829 65.2027C104.958 65.0981 103.656 64.9471 103.656 64.1336V43.1343H96.9276V43.878L97.2763 43.9245C98.2524 44.0291 99.5889 44.1802 99.5889 44.9937V64.1452C99.5889 64.9703 98.2989 65.0981 97.346 65.2143L96.916 65.2608V66.0046H106.317V65.2608L106.166 65.2376C106.062 65.2376 105.946 65.2376 105.841 65.2143" fill="#2B2B33"/>
<path d="M143.866 65.2492C143.065 65.1562 141.38 65.0052 141.38 64.1568V53.2911C141.38 49.2005 141.38 45.6677 139.683 43.9478C138.939 43.204 137.963 42.8554 136.685 42.8554C132.641 42.8554 129.979 48.91 128.782 53.326V53.2795C128.782 49.1889 128.782 45.6561 127.062 43.9361C126.319 43.1924 125.319 42.8438 124.018 42.8438C119.974 42.8438 117.312 48.8983 116.115 53.3144V43.1343H109.387V43.878L109.817 43.9245C110.758 44.0291 112.036 44.1686 112.036 44.9472V64.1452C112.036 65.04 110.34 65.1679 109.538 65.2376L109.387 65.2608V66.0046H118.788V65.4119L118.765 65.2608L118.614 65.2376C117.812 65.1446 116.139 64.9935 116.139 64.1452V56.6845C116.51 54.0349 119.288 45.2726 122.797 45.2726C123.216 45.2726 123.541 45.4004 123.797 45.6677C124.715 46.5857 124.692 49.154 124.668 52.3963V64.1336C124.668 65.0284 123.018 65.1562 122.205 65.226L122.054 65.2492V65.993H131.409V65.2492L131.258 65.226C130.456 65.1562 128.794 64.9819 128.794 64.1336V56.6728C129.166 54.0232 131.955 45.2726 135.453 45.2726C135.871 45.2726 136.197 45.4004 136.452 45.6677C137.37 46.5857 137.347 49.154 137.324 52.3963V64.1336C137.324 65.0284 135.627 65.1562 134.825 65.226L134.674 65.2492V65.993H144.076V65.4003L144.052 65.2492L143.855 65.2957L143.866 65.2492Z" fill="#2B2B33"/>
<path d="M161.39 60.438C160.391 61.3793 158.392 62.6344 156.858 63.3084C156.161 63.6338 155.289 63.8313 154.441 63.8313C152.976 63.8313 151.222 63.2852 150.606 61.7395C149.781 59.6013 151.024 57.3468 154.394 54.7785C157.288 52.5821 158.531 50.6646 158.264 48.7704C158.066 47.1551 156.498 46.2486 154.022 46.2486C153.604 46.2486 153.174 46.2719 152.721 46.3184C152.302 46.3416 152.07 46.2719 152.023 46.1905C152 46.1673 152.023 46.0976 152.07 46.0395C152.697 44.9703 154.359 43.8663 156.602 43.8431C157.799 43.8198 158.868 44.2149 159.647 44.9936C160.797 46.1208 161.39 48.015 161.39 50.5833V60.438ZM168.444 62.8784C167.421 63.9476 166.771 64.1567 166.399 64.1567C165.62 64.1567 165.55 63.1341 165.55 62.8319V60.4612C165.527 58.2184 165.527 54.8018 165.527 50.5833C165.527 45.5514 162.61 42.6577 157.52 42.6577C156.8 42.6577 156.044 42.7274 155.277 42.832C151.14 43.4015 149.014 45.1446 148.398 46.574C148.096 47.2713 148.142 47.9453 148.502 48.445C148.77 48.8169 149.107 49.0145 149.548 49.0145C150.094 49.0145 150.722 48.7355 151.442 48.4102C152.36 47.9918 153.383 47.5386 154.58 47.434C155.696 47.3294 156.498 47.4805 156.928 47.8523C157.206 48.0964 157.381 48.445 157.404 48.9215C157.625 50.8622 154.336 52.6402 151.919 53.9534C151.198 54.3485 150.571 54.6972 150.129 54.9761C148.084 56.3938 145.423 58.7181 146.039 62.5065C146.457 64.8308 148.433 66.1672 151.477 66.1672H151.559C156.126 66.1672 159.414 63.227 161.181 61.635C161.227 61.5885 161.285 61.542 161.332 61.5071V61.8093C161.309 63.2851 161.285 64.8075 162.111 65.6442C162.506 66.0626 163.063 66.2485 163.807 66.2485C166.48 66.2485 168.944 63.4827 169.048 63.3781L169.176 63.227L168.479 62.7506L168.409 62.9017L168.444 62.8784Z" fill="#2B2B33"/>
<path d="M192.477 43.8665V43.1227H185.864V43.8665L186.085 43.8897C186.562 43.9594 188.003 44.1337 188.351 44.6916C188.433 44.8426 188.456 44.9937 188.375 45.2145L183.017 60.9727C182.669 62.0883 182.343 62.4137 181.623 62.4137C180.995 62.4137 180.774 62.0883 180.379 61.0192L174.697 45.0169C174.627 44.8194 174.627 44.6451 174.72 44.5172C174.999 44.064 176.138 43.971 176.719 43.9246C176.846 43.9246 176.963 43.9013 177.044 43.9013L177.195 43.8781V43.1111H167.178V43.8316L167.329 43.8548C168.247 43.9827 169.769 44.2267 170.048 45.0983L175.812 61.1005C177.183 64.9704 178.125 66.086 179.996 66.086C181.762 66.086 182.541 65.1098 183.935 61.054L189.293 45.2958C189.688 44.1686 191.443 43.9478 192.291 43.8548H192.465L192.477 43.8665Z" fill="#2B2B33"/>
<path d="M196.219 53.0585C196.219 51.6872 196.37 49.0725 197.416 46.8528C198.462 44.6564 200.054 43.5176 202.181 43.5176C204.795 43.5176 207.491 45.865 207.491 49.7697C207.491 50.711 206.492 50.7924 205.295 50.7924C198.962 50.7924 197.218 54.9527 196.742 57.428C196.37 55.987 196.219 54.6157 196.219 53.0469M213.372 57.6372C212.07 60.3101 209.083 64.7377 203.691 64.1683C199.798 63.7499 197.602 59.7058 197.381 59.2758C197.532 56.51 198.729 51.9429 204.737 51.9429L206.364 51.9894C210.652 51.9894 211.28 50.037 211.28 48.8749C211.28 47.0736 210.28 45.4118 208.491 44.2381C206.968 43.2387 204.958 42.646 203.157 42.646C197.044 42.646 192.059 47.8522 192.059 54.2438C192.059 57.0329 193.232 60.0776 195.22 62.3902C197.346 64.8888 200.112 66.2601 202.971 66.2601C205.295 66.2601 211.047 65.4582 214.139 57.9626L214.208 57.7883L213.441 57.5094L213.372 57.6372Z" fill="#2B2B33"/>
<path d="M247.863 60.4378C246.863 61.3675 244.853 62.6342 243.33 63.3082C242.633 63.6336 241.762 63.8312 240.913 63.8312C239.449 63.8312 237.694 63.285 237.078 61.7394C236.253 59.6011 237.497 57.3466 240.867 54.7784C243.76 52.582 245.004 50.6645 244.737 48.7703C244.539 47.1549 242.97 46.2485 240.495 46.2485C240.077 46.2485 239.647 46.2717 239.193 46.3182C238.775 46.3415 238.543 46.2717 238.496 46.1904C238.473 46.1671 238.496 46.109 238.543 46.0393C239.17 44.9702 240.832 43.8662 243.075 43.8429C244.295 43.8197 245.341 44.2148 246.12 44.9934C247.27 46.1207 247.863 48.0149 247.863 50.5832V60.4378ZM255.021 62.7853L254.917 62.8899C253.894 63.959 253.243 64.1682 252.871 64.1682C252.093 64.1682 252.023 63.1456 252.023 62.8434V60.4727C252 58.2298 252 54.8132 252 50.5948C252 45.5628 249.083 42.6692 243.993 42.6692C243.272 42.6692 242.517 42.7389 241.75 42.8435C237.613 43.4129 235.498 45.1445 234.87 46.5855C234.568 47.2828 234.603 47.9568 234.975 48.4565C235.242 48.8284 235.579 49.0259 236.021 49.0259C236.567 49.0259 237.195 48.747 237.915 48.41C238.833 48.0033 239.856 47.5384 241.053 47.4338C242.157 47.3292 242.97 47.4803 243.4 47.8406C243.679 48.0846 243.853 48.4332 243.877 48.9097C244.097 50.8504 240.809 52.6285 238.392 53.9416C237.671 54.3368 237.043 54.6854 236.602 54.9643C234.557 56.3821 231.895 58.7063 232.511 62.4948C232.93 64.819 234.905 66.1554 237.95 66.1554H238.031C242.598 66.1554 245.887 63.2153 247.654 61.6232C247.7 61.5767 247.758 61.5302 247.805 61.4954V61.7975C247.781 63.2734 247.758 64.8074 248.583 65.6325C248.978 66.0508 249.536 66.2368 250.28 66.2368C252.953 66.2368 255.416 63.4709 255.521 63.3664L255.649 63.2153L254.998 62.7737L255.021 62.7853Z" fill="#2B2B33"/>
</svg>
