<svg width="310" height="103" viewBox="0 0 310 103" fill="none" xmlns="http://www.w3.org/2000/svg">
<rect width="310" height="103" fill="white"/>
<path d="M79.8511 44.3608C77.6124 44.3608 74.9324 45.58 72.8626 46.4945C72.8767 46.668 72.8767 46.668 72.8861 46.8415C73.1817 46.9447 73.4399 47.1463 73.4399 47.545C73.4399 47.9717 70.9805 52.2532 68.2771 56.7974C67.7655 57.6603 67.085 58.4247 66.2448 58.9827C65.7051 59.3438 65.1278 59.6111 64.6162 59.6111C63.3959 59.6111 62.5792 58.3215 62.5792 56.1878C62.5792 54.054 62.7154 53.7164 62.7154 49.5146C62.7154 46.4429 60.5939 45.2893 59.4534 44.8954C73.9374 38.9443 93.3917 34.2689 114.803 34.2689C127.011 34.2689 131.456 37.2139 131.456 37.2139L135.084 35.0145C135.084 34.9442 132 31.9991 114.803 31.9991C94.6496 31.9991 74.5898 37.2045 59.2328 43.8074C62.5558 37.8798 66.6438 33.7249 66.6438 33.7249C66.6438 33.7249 64.8133 34.0625 63.4569 34.0625C59.4863 34.0625 56.2337 33.9265 52.2677 33.9265C48.3018 33.9265 40.7735 36.6746 40.7735 42.4662C40.7735 43.5166 41.5197 44.5343 42.74 44.5343C44.6409 44.5343 45.1806 43.043 45.1806 43.043C43.6553 43.043 42.266 42.7382 42.266 40.6701C42.266 39.3476 43.8946 35.7883 48.5411 35.7883C53.6945 35.7883 56.3417 36.3323 58.6461 36.3323C60.7066 36.3323 62.1428 36.1166 62.4244 36.0697C62.1052 36.1541 60.2701 37.0216 54.591 45.913C40.7829 52.5252 31.7949 60.0707 31.7949 65.1307C31.7949 66.7252 32.7805 68.8589 36.8122 68.8589C43.491 68.8589 47.2927 63.5081 49.5972 59.7096C51.8688 55.9158 58.0407 45.6832 58.0407 45.6832C58.0407 45.6832 59.7726 45.1064 59.8054 48.1921C59.8383 52.3611 59.0263 54.3917 59.0263 57.2054C59.0263 60.0191 60.1105 61.1681 62.1099 61.1681C63.8465 61.1681 65.4 60.4318 66.5593 59.6674C64.4989 63.1001 62.5699 66.2468 61.7673 67.5036C59.1202 71.6398 57.1583 75.1616 53.8307 75.1616C52.8497 75.1616 52.202 74.5848 52.202 74.5848L51.2868 75.8744C56.0319 76.5544 60.2748 74.5848 64.6819 67.2363C67.1225 63.1705 75.8382 48.6658 76.9271 46.94C77.7062 45.7536 78.1474 45.2471 78.9969 45.2471C79.8464 45.2471 80.3533 46.0255 80.3533 47.4512C80.3533 50.9449 76.3827 58.5654 73.1958 58.5654C72.4167 58.5654 72.1116 58.1245 72.1116 57.5149C72.1116 56.2956 73.4352 55.55 74.6226 55.55C75.6083 55.55 75.8758 56.0611 75.8758 56.0611L76.1105 55.958C76.1105 55.958 76.4859 54.4011 74.6508 54.4011C72.8157 54.4011 71.4311 55.8923 71.4311 57.3461C71.4311 58.6357 72.3463 59.2782 73.7027 59.2782C78.889 59.2782 82.9253 52.3658 82.9253 48.2015C82.9347 45.8942 81.9866 44.3654 79.8511 44.3654V44.3608ZM47.227 58.3215C44.9553 62.3498 41.2569 68.3149 37.1877 68.3149C36.1035 68.3149 33.7662 67.5693 33.7662 64.5211C33.7662 60.0754 41.2475 53.4256 53.6054 47.4887C51.8312 50.3352 49.7239 53.8805 47.227 58.3168V58.3215Z" fill="#2C2C2C"/>
<path d="M260.972 44.3281C258.733 44.3281 256.053 45.5474 253.988 46.4619V46.7995C254.293 46.9027 254.565 47.1043 254.565 47.5123C254.565 48.3564 248.666 58.2842 246.563 61.5059C243.916 65.6374 241.949 69.1639 238.626 69.1639C237.678 69.2342 237.03 68.6246 237.03 68.6246L236.115 69.9142C240.86 70.5942 245.103 68.6246 249.51 61.2761C251.951 57.2103 256.973 48.6706 258.057 46.9121C258.836 45.7256 259.277 45.2144 260.127 45.2144C260.976 45.2144 261.483 45.9929 261.483 47.4185C261.483 50.9075 257.513 58.5327 254.326 58.5327C253.547 58.5327 253.242 58.0919 253.242 57.4823C253.242 56.263 254.565 55.5174 255.748 55.5174C256.734 55.5174 257.001 56.0238 257.001 56.0238L257.236 55.9253C257.236 55.9253 257.611 54.3637 255.776 54.3637C253.941 54.3637 252.556 55.855 252.556 57.3134C252.556 58.6031 253.472 59.2455 254.828 59.2455C260.019 59.2455 264.051 52.3332 264.051 48.1689C264.051 45.8569 263.107 44.3328 260.967 44.3328L260.972 44.3281Z" fill="#2C2C2C"/>
<path d="M164.089 44.9705L160.902 45.4442C160.902 45.4442 159.194 48.1453 157.364 51.1607C157.364 51.1607 153.125 57.651 149.92 57.651C149.479 57.651 149.183 57.4869 149.183 57.0226C149.15 55.9722 151.304 52.4269 151.304 52.4269L155.951 44.9752L152.764 45.4489L150.567 48.9472C149.511 50.6308 148.319 52.2252 146.972 53.6884C145.236 55.5782 142.969 57.5807 141.162 57.5807C140.721 57.5807 140.481 57.4119 140.481 56.8679C140.519 55.8174 142.856 52.4269 142.856 52.4269L147.503 44.9752L144.316 45.4489C144.316 45.4489 139.862 51.8407 136.116 52.6238C136.961 51.1888 137.501 49.6132 137.501 47.9906C137.501 45.3129 136.144 44.6704 135.093 44.6704C133.826 44.6704 132.516 45.2706 131.517 46.2039C133.878 42.6117 136.45 38.5365 136.45 38.5365C136.45 38.5365 138.383 35.8259 135.91 35.8259C135.91 35.8259 132.958 37.5892 131.944 38.1285L132.282 38.6725C132.282 38.6725 132.746 38.4146 132.995 38.8319C133.244 39.254 132.826 39.8261 132.826 39.8261C132.826 39.8261 127.602 48.5674 126.246 50.2603C126.002 50.5651 125.763 50.8746 125.537 51.1888C124.674 52.3847 123.773 53.5571 122.763 54.6357C121.379 56.1175 119.731 57.576 118.582 57.576C118.14 57.576 117.901 57.4072 117.901 56.8632C117.901 56.3192 119.192 54.4246 119.192 54.4246L125.096 44.9705L121.909 45.4442C121.909 45.4442 120.229 48.1078 118.675 50.6073L114.142 50.884L117.84 45.008L114.653 45.4817C114.653 45.4817 114.057 46.4243 113.184 47.8358C111.584 50.4291 109.617 52.788 107.303 54.7716C105.454 56.352 103.384 57.7167 101.732 57.7167C100.545 57.7167 99.6294 57.0742 99.6294 55.2453C99.559 51.9908 103.764 45.4864 106.074 45.4864C106.618 45.4864 107.022 45.7912 107.022 46.7385C107.022 48.5346 105.665 50.0258 105.665 50.0258C105.665 50.0258 109.19 50.1947 109.19 46.8416C109.19 45.824 108.65 44.7407 106.82 44.7407C102.83 44.7407 98.8973 49.1864 97.3296 52.7692C96.743 54.1057 95.9498 55.3485 94.9125 56.3755C93.9879 57.2852 93.0117 58.0262 92.2748 58.0262C91.7632 58.0262 91.6975 57.6885 91.6975 57.379C91.6975 56.5677 91.9322 56.0894 93.2557 54.0588C95.6963 50.265 96.9166 48.5346 96.9166 47.0808C96.9166 45.7396 96.0342 44.6423 93.9973 44.6423C86.8398 44.6423 82.2637 54.1292 82.2637 56.3989C82.2637 58.6687 83.5544 59.2126 84.3335 59.2126C86.7412 59.2126 89.0786 56.5349 89.0786 56.5349C89.0786 56.5349 88.7031 57.1117 88.7031 57.9277C88.7031 58.6405 89.2475 59.1798 90.1956 59.1798C93.1947 59.1798 95.18 57.2196 96.6068 55.5642C96.6115 58.9406 99.1836 59.283 100.132 59.283C103.694 59.283 107.195 56.2629 109.612 53.5758C107.993 56.1457 106.463 58.5045 105.862 59.2126L109.12 58.875L113.714 51.5687L118.253 51.292C117.695 52.1971 117.174 53.0459 116.784 53.6931C115.024 56.6756 114.817 56.9101 114.817 58.0637C114.817 58.5702 115.09 59.147 116.038 59.147C119.06 59.147 121.876 56.8304 123.744 54.8279C123.674 55.1609 123.636 55.4938 123.636 55.8221C123.636 57.5807 124.148 59.2783 126.959 59.2783C129.231 59.2783 133.225 56.9429 135.586 53.4586C137.876 53.1678 140.04 51.428 141.711 49.6132L140.796 51.0763C139.406 53.1772 137.745 55.5501 137.745 57.1399C137.745 58.1575 138.454 59.1423 139.815 59.1423C141.913 59.1423 144.696 56.9663 146.958 54.781C146.517 55.6533 146.226 56.4693 146.226 57.1446C146.226 58.1622 146.939 59.147 148.329 59.147C150.91 59.147 153.2 57.2852 154.768 55.5595C154.552 56.0238 154.364 56.5912 154.364 57.2805C154.364 58.5327 155.312 59.1798 156.979 59.1798C162.132 59.1798 163.625 53.7587 163.625 53.7587L161.287 55.114C161.254 55.114 160.508 58.134 158.298 58.1294C157.772 58.1294 157.373 57.7401 157.392 57.2149C157.443 55.536 159.462 52.4316 159.462 52.4316L164.108 44.9705H164.089ZM86.8726 57.4025C85.6148 57.4025 85.3801 56.3848 85.3801 55.3672C85.3801 52.1127 90.1956 45.5755 93.2182 45.5755C95.2176 45.5755 93.7579 48.2157 93.7579 48.2157C93.7579 48.2157 93.2839 49.027 91.6224 51.9767C89.8952 54.9264 88.0272 57.3978 86.8773 57.3978L86.8726 57.4025ZM127.058 58.6546C126.11 58.6546 125.293 58.3498 125.293 57.0977C125.293 55.8456 126.415 53.5758 128.752 50.2885C129.114 49.782 129.541 49.1583 130.01 48.4595C129.86 48.905 129.771 49.374 129.771 49.8429C129.771 51.156 130.39 52.8067 133.033 53.3038C131.639 56.0425 129.541 58.6499 127.058 58.6499V58.6546ZM133.394 52.5582C131.155 52.2487 130.573 51.217 130.573 49.5897C130.573 48.4126 131.39 46.3211 133.286 46.3211C134.201 46.3211 134.722 47.1371 134.722 48.3142C134.722 49.1114 134.201 50.8277 133.394 52.5582Z" fill="#2C2C2C"/>
<path d="M200.951 58.9266C200.951 56.352 201.425 55.0296 201.425 52.5207C201.425 50.0118 200.444 49.3037 199.289 49.3037C199.289 49.3037 211.769 37.547 229.637 37.547C234.692 37.547 239.813 39.5119 239.813 39.5119L242.389 37.5798C242.389 37.5798 239.235 35.9854 232.35 35.9854C214.689 35.9854 201.678 45.7162 197.229 49.5616L204.236 38.5271C204.236 38.5271 206.17 35.8119 203.692 35.8119C203.692 35.8119 200.744 37.5751 199.726 38.1191L200.064 38.6584C200.064 38.6584 200.538 38.4333 200.777 38.8694C201.003 39.2727 200.604 39.8167 200.604 39.8167C199.407 41.7113 197.825 43.3433 195.92 44.5297C194.91 45.1581 193.765 45.7302 192.54 46.096C192.93 44.7407 193.146 43.3573 193.146 41.988C193.146 38.4943 191.381 36.5669 188.973 36.5669C185.852 36.5669 183.58 38.5834 183.58 41.988C183.58 43.7137 184.791 47.2403 189.752 47.2403C189.949 47.2403 190.147 47.2309 190.344 47.2262C187.532 53.9557 180.774 59.0344 177.071 59.0344C174.259 59.0344 174.02 56.9992 174.02 55.6439C174.02 46.3586 183.275 34.874 189.888 34.874C193.108 34.874 193.277 37.5517 193.277 37.5517L193.887 37.4813L194.023 35.1413C194.023 35.1413 192.667 34.058 190.057 34.058C179.408 34.058 171.438 46.3586 171.438 53.3038C171.438 56.4552 172.556 59.6722 176.662 59.6722C183.261 59.6722 189.949 53.7259 192.277 46.9261C194.497 46.3868 196.426 45.2472 197.834 44.2014L188.368 59.1892L191.315 58.875L195.15 52.8396C195.741 51.9861 197.177 50.0915 198.233 50.0915C198.642 50.0915 199.045 50.1947 199.045 51.3811C199.045 52.5676 198.13 54.6685 198.13 57.923C198.13 61.7497 201.251 62.3265 202.946 62.3593C202.978 62.2233 202.946 62.2608 202.978 62.1577C202.101 61.8904 200.946 61.1072 200.946 58.9407L200.951 58.9266ZM190.644 46.4571C190.409 46.4806 190.17 46.4946 189.926 46.4946C187.124 46.4946 185.589 44.0514 185.589 41.6222C185.589 38.2317 187.316 37.1765 188.809 37.1765C190.301 37.1765 191.625 38.7334 191.625 41.1767C191.625 42.9962 191.259 44.7736 190.644 46.4618V46.4571Z" fill="#2C2C2C"/>
<path d="M275.422 44.6328C273.489 44.6328 272.203 45.8521 272.203 45.8521L278.205 36.3979C278.205 36.3979 274.479 37.9549 267.997 37.9549C261.516 37.9549 257.507 36.9372 254.489 36.9372C250.092 36.9372 247.097 38.9537 244.521 42.9867C241.944 47.0197 240.325 49.7115 240.325 49.7115C240.325 49.7115 235.331 59.8785 232.322 59.8785C231.778 59.8785 231.337 59.236 231.337 58.6592C231.337 57.2054 232.322 55.747 233.913 53.0692C235.504 50.3915 238.152 46.0912 238.152 46.0912C238.152 46.0912 236.556 44.4968 233.336 44.4968C230.116 44.4968 226.587 46.7337 226.587 49.3082C226.587 51.3107 229.098 51.9531 229.098 51.9531C224.113 51.9531 221.265 61.4401 218.317 61.4401C217.707 61.4401 217.026 61.0321 217.026 59.9488C217.026 58.7623 217.571 57.8807 218.758 55.8501C221.096 51.8875 220.349 53.0739 221.912 50.565C222.724 49.1066 223.743 47.3808 223.743 46.2929C223.743 45.2049 223.198 44.4311 221.912 44.4311C219.167 44.4311 217.707 46.6305 217.707 46.6305C217.707 46.6305 218.284 44.1216 216.214 44.1216C213.365 44.1216 211.432 46.593 211.432 46.593C211.432 46.593 211.666 44.4593 209.939 44.4593L206.546 46.0537L206.921 46.7946C206.921 46.7946 207.09 46.6962 207.602 46.6962C208.113 46.6962 208.245 47.001 208.245 47.7795C208.245 48.5579 206.142 51.5405 206.142 51.5405L201.632 59.1985L204.481 58.7905C204.481 58.7905 208.212 52.6237 209.906 49.9788C211.568 47.3668 212.755 46.3538 213.638 46.3538C214.046 46.3538 214.586 46.5227 214.586 47.1979C214.586 47.6388 214.21 48.5204 213.6 49.6037C212.99 50.687 208.175 59.1938 208.175 59.1938L211.16 58.7858C211.16 58.7858 214.651 52.755 216.449 49.6693C218.045 47.062 218.824 46.3491 219.842 46.3491C220.18 46.3491 220.79 46.4851 220.79 47.2308C220.79 48.0421 219.537 50.0773 217.435 53.4679C215.332 56.8537 214.994 58.1433 214.994 59.0578C214.994 59.9722 215.332 62.106 218.317 62.106C225.475 62.106 227.131 51.8078 232.12 51.8078C232.12 51.8078 229.239 55.9768 229.239 57.9745C229.239 59.8034 230.834 60.3802 232.289 60.3802C235.274 60.3802 237.612 57.0225 237.612 57.0225C237.612 57.0225 237.715 59.1891 240.663 59.1891C246.633 59.1891 251.04 51.2591 251.04 48.0092C251.04 45.0642 249.176 44.5906 248.158 44.5906C246.731 44.5906 245.379 45.8098 245.379 45.8098C245.379 45.8098 246.529 43.9434 247.853 41.8097C249.176 39.6759 250.5 37.9127 253.485 37.9127C256.47 37.9127 259.249 39.2679 265.388 39.2679C271.076 39.2679 273.794 38.2785 274.16 38.1331C273.925 38.5082 269.33 45.913 268.269 47.4324C267.218 48.9893 264.064 53.496 263.966 55.5641C263.895 56.8865 263.933 59.2594 267.049 59.2594C273.188 59.2594 277.802 51.5686 277.802 48.0796C277.877 45.158 276.417 44.6187 275.432 44.6187L275.422 44.6328ZM229.201 48.6986C229.201 47.3058 230.895 45.3409 233.031 45.3409C235.34 45.3409 235.504 46.1522 235.504 46.1522L232.421 51.3716C230.116 51.3388 229.201 50.082 229.201 48.6939V48.6986ZM246.9 46.124C247.951 46.124 248.562 46.5649 248.562 47.9858C248.594 50.9355 243.648 58.5607 240.428 58.5607C239.578 58.5607 239.306 58.0448 239.339 56.8256C239.339 54.5933 241.578 51.85 242.629 50.2555C243.68 48.6611 245.239 46.124 246.905 46.124H246.9ZM267.11 58.5935C266.228 58.5935 265.716 58.3215 265.819 56.5583C265.923 54.8278 268.058 51.85 269.142 50.2555C270.227 48.6611 271.822 46.124 273.615 46.124C274.77 46.124 275.075 47.0713 275.075 48.4594C275.075 51.442 271.076 58.5935 267.105 58.5935H267.11Z" fill="#2C2C2C"/>
<path d="M159.743 44.2624C161.917 44.2624 162.935 42.4335 162.935 41.2142C162.935 40.4685 162.597 39.9949 162.325 39.7229C162.234 39.7667 162.143 39.7995 162.053 39.8214C162.053 40.3982 161.851 41.4815 160.462 42.4991C159.241 43.4464 158.152 43.3807 157.613 43.2447C157.566 43.3135 157.52 43.3807 157.477 43.4464C157.782 43.784 158.462 44.2577 159.748 44.2577L159.743 44.2624Z" fill="#2C2C2C"/>
</svg>
