<svg width="310" height="103" viewBox="0 0 310 103" fill="none" xmlns="http://www.w3.org/2000/svg">
<rect width="310" height="103" fill="white"/>
<path d="M124.149 65.5107V80.8404H126.475V67.7149H129.033V80.8404H131.361V65.5107H124.149Z" fill="#2C2C2C"/>
<path d="M140.035 71.268C140.035 71.5691 139.986 71.8251 139.893 72.0359C139.796 72.2496 139.66 72.4092 139.485 72.5237C139.307 72.6351 139.095 72.6923 138.851 72.6923H137.19V67.7149H138.851C139.095 67.7149 139.31 67.7721 139.491 67.8865C139.669 68.004 139.805 68.1726 139.896 68.3894C139.989 68.6062 140.035 68.8742 140.035 69.1903V71.268ZM140.768 65.9172C140.243 65.6462 139.612 65.5107 138.872 65.5107H134.864V80.8404H137.19V74.8934H138.872C139.603 74.8934 140.234 74.7609 140.759 74.4929C141.285 74.2249 141.686 73.8395 141.97 73.3276C142.251 72.8187 142.393 72.2045 142.393 71.4878V68.9886C142.393 68.2599 142.251 67.6306 141.973 67.1066C141.696 66.5857 141.294 66.1882 140.768 65.9172Z" fill="#2C2C2C"/>
<path d="M145.301 65.5107V80.8404H152.026V78.6152H147.629V74.3364H151.498V72.1232H147.629V67.736H152.026V65.5107H145.301Z" fill="#2C2C2C"/>
<path d="M160.606 65.8119C160.062 65.5048 159.407 65.3542 158.64 65.3542C157.873 65.3542 157.224 65.5078 156.683 65.818C156.14 66.1281 155.723 66.5707 155.433 67.1549C155.146 67.7391 155.001 68.4467 155.001 69.2747V77.0856C155.001 77.9076 155.146 78.6122 155.433 79.1964C155.723 79.7775 156.14 80.2262 156.683 80.5363C157.224 80.8435 157.879 81.0001 158.64 81.0001C159.401 81.0001 160.053 80.8465 160.6 80.5394C161.147 80.2352 161.56 79.7866 161.841 79.1964C162.125 78.6062 162.267 77.8986 162.276 77.0766V76.1371H159.927V77.0766C159.927 77.4198 159.878 77.7119 159.782 77.9498C159.682 78.1907 159.537 78.3744 159.347 78.5038C159.156 78.6363 158.921 78.6996 158.64 78.6996C158.359 78.6996 158.142 78.6363 157.952 78.5099C157.758 78.3834 157.613 78.2027 157.505 77.9618C157.402 77.724 157.348 77.4319 157.348 77.0856V69.2747C157.348 68.9315 157.402 68.6364 157.505 68.3925C157.613 68.1516 157.758 67.9679 157.952 67.8414C158.142 67.715 158.371 67.6517 158.64 67.6517C158.909 67.6517 159.147 67.715 159.341 67.8414C159.537 67.9679 159.682 68.1546 159.782 68.3985C159.878 68.6454 159.927 68.9375 159.927 69.2747V70.2142H162.276V69.2747C162.276 68.4527 162.131 67.7451 161.847 67.1549C161.563 66.5647 161.15 66.1161 160.606 65.8119Z" fill="#2C2C2C"/>
<path d="M170.243 72.1954H167.682V65.5107H165.356V80.8404H167.682V74.3785H170.243V80.8404H172.568V65.5107H170.243V72.1954Z" fill="#2C2C2C"/>
<path d="M179.817 72.5748C179.464 72.5748 179.159 72.5086 178.905 72.3761C178.651 72.2406 178.461 72.0449 178.334 71.7889C178.21 71.533 178.144 71.2228 178.144 70.8555V69.4734C178.144 69.103 178.21 68.7838 178.34 68.5158C178.47 68.2509 178.66 68.0461 178.911 67.9076C179.162 67.7721 179.464 67.7028 179.817 67.7028H181.01V72.5748H179.817ZM182.112 65.5017H179.72C178.902 65.5017 178.201 65.6372 177.616 65.9052C177.03 66.1762 176.586 66.5737 176.278 67.0976C175.973 67.6215 175.819 68.2509 175.819 68.9796V71.1415C175.819 71.9064 175.973 72.5658 176.278 73.1138C176.586 73.6619 177.03 74.0774 177.616 74.3604C177.712 74.4086 177.83 74.4267 177.933 74.4658L175.81 80.8404H178.355L180.14 74.788H181.01V80.8404H183.338V65.5017H182.112Z" fill="#2C2C2C"/>
<path d="M92.0464 32.1927C92.0464 29.1967 89.5791 26.7848 86.6195 26.7848H83.3488V37.6007H86.5772C89.5791 37.6007 92.0011 35.1888 92.0011 32.1927H92.0464ZM90.926 40.8648L95.9029 54.8545H91.0589L86.396 41.8916H83.3488V54.8545H79V22.4487H86.5772C92.0011 22.4487 96.3499 26.7848 96.3499 32.1476C96.3499 35.9928 94.1513 39.299 90.926 40.8648Z" fill="#2C2C2C"/>
<path d="M114.941 22.4487H99.9463V54.8545H114.941V50.5215H104.295V41.8916H113.862V37.6007H104.295V26.7848H114.941V22.4487Z" fill="#2C2C2C"/>
<path d="M131.385 32.1927C131.385 29.1967 128.918 26.7848 125.958 26.7848H122.688V37.6007H125.916C128.918 37.6007 131.34 35.1888 131.34 32.1927H131.385ZM125.958 41.8916H122.688V54.8545H118.339V22.4487H125.916C131.34 22.4487 135.689 26.7848 135.689 32.1476C135.689 37.5104 131.34 41.8916 125.958 41.8916Z" fill="#2C2C2C"/>
<path d="M155.6 47.0796C155.6 51.8642 151.746 55.7064 146.947 55.7064C142.148 55.7064 138.295 51.8642 138.295 47.0796C138.295 38.9917 138.34 30.9429 138.34 22.8521H142.644V47.0796C142.644 49.4493 144.574 51.3734 146.947 51.3734C149.321 51.3734 151.296 49.4493 151.296 47.0796V22.8521H155.645C155.645 32.5539 155.6 28.0372 155.6 47.0796Z" fill="#2C2C2C"/>
<path d="M167.286 39.7025H164.016V50.5184H167.244C170.246 50.5184 172.713 48.1065 172.713 45.1105C172.713 42.1144 170.246 39.7025 167.286 39.7025ZM167.286 26.7848H164.016V35.4116H167.244C169.663 35.4116 171.59 33.4454 171.59 31.0756C171.59 28.7058 169.663 26.7396 167.286 26.7848ZM167.286 54.8545H159.667V22.4487H167.244C172.04 22.4487 175.939 26.2909 175.939 31.0756C175.939 33.5779 174.864 35.8121 173.16 37.3779C175.492 39.1665 177.017 41.9367 177.017 45.1105C177.017 50.4763 172.668 54.8545 167.286 54.8545Z" fill="#2C2C2C"/>
<path d="M180.759 54.8545V22.4487H185.108V50.5184H192.105V54.8545H180.759Z" fill="#2C2C2C"/>
<path d="M221.348 55.3031C216.549 55.3031 212.695 51.4578 212.695 46.6762V30.6269C212.695 25.8452 216.549 22 221.348 22C226.146 22 230 25.8452 230 30.6269H225.696C225.696 28.2571 223.724 26.2909 221.348 26.2909C218.971 26.2909 216.999 28.2571 216.999 30.6269V46.6762C216.999 49.0459 218.971 51.0122 221.348 51.0122C223.724 51.0122 225.651 49.0459 225.651 46.6762H230C230 51.4578 226.143 55.3031 221.348 55.3031Z" fill="#2C2C2C"/>
<path d="M194.993 54.8545V50.5184H195.796C198.197 50.5184 200.145 48.5793 200.145 46.1824V27.8447C200.145 27.2575 199.671 26.7848 199.082 26.7848H194.947V22.4487H209.649V26.7848H205.557C204.971 26.7848 204.493 27.2575 204.493 27.8447V46.1824C204.493 48.5793 206.441 50.5184 208.842 50.5184H209.649V54.8545H194.993Z" fill="#2C2C2C"/>
</svg>
