<svg width="310" height="103" viewBox="0 0 310 103" fill="none" xmlns="http://www.w3.org/2000/svg">
<rect width="310" height="103" fill="white"/>
<path d="M109.384 69.7832L112.983 66.154H114.254L110.297 70.1051L114.379 74.6221H113.087L109.628 70.7385L109.384 70.9773V74.6221H108.445V66.154H109.384V69.7832Z" fill="#2C2C2C"/>
<path d="M116.686 66.154L119.326 71.1435L121.53 66.154H122.541L118.729 74.6221H117.713L118.792 72.2598L115.545 66.154H116.686Z" fill="#2C2C2C"/>
<path d="M127.084 67.0418V74.6221H126.146V67.0418H124.092V66.154H129.138V67.0418H127.084Z" fill="#2C2C2C"/>
<path d="M131.7 66.154L134.334 71.1435L136.539 66.154H137.555L133.738 74.6221H132.727L133.8 72.2598L130.559 66.154H131.7Z" fill="#2C2C2C"/>
<path d="M139.324 67.2496C139.853 66.4292 140.776 65.9619 141.746 66.0139C142.395 65.9879 143.027 66.2008 143.53 66.6109C143.961 67.0107 144.199 67.5818 144.189 68.1685C144.194 68.9473 143.738 69.6534 143.022 69.9598C144.049 70.1623 144.775 71.0916 144.723 72.1404C144.754 72.9659 144.36 73.7447 143.686 74.2172C143.115 74.591 142.446 74.7831 141.762 74.7779C140.419 74.8039 139.205 73.9939 138.707 72.7479L139.62 72.3429C139.926 73.2826 140.808 73.9161 141.798 73.9005C142.255 73.9109 142.706 73.7863 143.09 73.5422C143.536 73.2411 143.795 72.7271 143.774 72.1871C143.774 70.6295 142.343 70.5257 141.518 70.5257H140.761V69.6223H141.518C142.695 69.6223 143.245 68.9629 143.245 68.1841C143.25 67.857 143.126 67.5351 142.903 67.2963C142.592 67.0159 142.177 66.8757 141.762 66.9069C141.062 66.8705 140.398 67.2236 140.04 67.8259L139.324 67.2496Z" fill="#2C2C2C"/>
<path d="M147.965 70.4218C147.991 72.3221 149.552 73.8434 151.45 73.8174C153.348 73.7914 154.868 72.2286 154.842 70.3284C154.816 68.4437 153.281 66.9276 151.398 66.9328C149.495 66.9432 147.954 68.4956 147.965 70.4011C147.965 70.4063 147.965 70.4166 147.965 70.4218ZM147 70.4218C146.985 67.992 148.945 66.0086 151.372 65.9931C153.799 65.9775 155.781 67.9401 155.796 70.3699C155.812 72.7998 153.851 74.7831 151.424 74.7987C151.414 74.7987 151.409 74.7987 151.398 74.7987C149.012 74.8402 147.042 72.9399 147 70.5516C147 70.5101 147 70.4634 147 70.4218Z" fill="#2C2C2C"/>
<path d="M159.478 73.7291H160.552C161.071 73.781 161.594 73.6564 162.035 73.3761C162.398 73.1009 162.606 72.6648 162.595 72.2079C162.606 71.6939 162.331 71.211 161.875 70.967C161.423 70.7645 160.931 70.6762 160.438 70.7126H159.478V73.7291ZM159.478 69.8767H160.184C160.702 69.8767 161.849 69.7728 161.849 68.4644C161.849 67.0678 160.479 67.0418 160.21 67.0418H159.478V69.8767ZM160.07 66.154C160.754 66.1125 161.439 66.2942 162.009 66.6732C162.528 67.099 162.813 67.7531 162.772 68.4229C162.803 69.0875 162.481 69.7157 161.932 70.0843C162.907 70.3284 163.576 71.2162 163.545 72.2182C163.545 72.9347 163.223 73.6097 162.663 74.0562C162.072 74.4768 161.351 74.6741 160.63 74.6169H158.529V66.154H160.07Z" fill="#2C2C2C"/>
<path d="M172.735 68.0231C172.413 67.7012 172.045 67.4312 171.635 67.2339C171.179 67.0263 170.681 66.912 170.178 66.9068C168.254 66.9068 166.693 68.4696 166.693 70.3958C166.693 72.3221 168.254 73.8849 170.178 73.8849C170.723 73.8745 171.252 73.7395 171.734 73.4903C172.097 73.3086 172.424 73.0697 172.709 72.779V73.9472C171.967 74.4819 171.075 74.7727 170.162 74.7727C167.746 74.8402 165.733 72.9347 165.666 70.5153C165.598 68.0958 167.502 66.0813 169.919 66.0138C170.017 66.0138 170.116 66.0138 170.214 66.0138C171.117 66.0034 171.998 66.2994 172.709 66.8549L172.735 68.0231Z" fill="#2C2C2C"/>
<path d="M176.417 69.7832L180.017 66.154H181.282L177.33 70.1051L181.412 74.6221H180.115L176.656 70.7385L176.417 70.9773V74.6221H175.479V66.154H176.417V69.7832Z" fill="#2C2C2C"/>
<path d="M189.575 68.1633L183.693 75.0012V66.154H184.632V72.6388L190.513 65.801V74.6221H189.575V68.1633Z" fill="#2C2C2C"/>
<path d="M196.043 63.9474C196.297 64.5445 196.987 64.8145 197.583 64.5601C197.858 64.4407 198.076 64.2226 198.195 63.9474L199.082 64.2382C198.553 65.3233 197.246 65.775 196.162 65.2454C195.721 65.0326 195.369 64.6743 195.156 64.2382L196.043 63.9474ZM199.59 68.1633L193.709 75.0012V66.1748H194.648V72.6388L200.524 65.801V74.6274H199.59V68.1633Z" fill="#2C2C2C"/>
<path d="M31.7279 34.0779C31.7486 34.2597 31.759 34.4466 31.759 34.6283V50.1056C31.759 50.3652 31.7434 50.6248 31.7123 50.8792C31.6864 51.1232 31.6501 51.3621 31.5982 51.6009C31.5567 51.8086 31.5101 52.011 31.4478 52.2135C31.3856 52.3953 31.3285 52.551 31.2715 52.6756H33.984V34.3375L31.7279 34.0779Z" fill="#2C2C2C"/>
<path d="M45.1135 52.1097C44.8646 51.9955 44.626 51.8449 44.4134 51.6736C44.1541 51.4763 43.9155 51.253 43.6977 51.009C43.4539 50.7494 43.2309 50.4691 43.0286 50.1731L38.4905 43.6935C39.8027 43.6053 41.0526 43.1068 42.0691 42.2709C42.6552 41.7621 43.122 41.1391 43.4539 40.4381C43.8066 39.6853 43.9881 38.8598 43.9725 38.0239C43.9829 37.2295 43.8221 36.4403 43.4954 35.7134C43.1686 35.0333 42.6863 34.4414 42.0795 33.9949C41.3793 33.5017 40.5962 33.1538 39.7664 32.9565C38.7446 32.6917 37.6918 32.5567 36.6338 32.5619H19.1297L19 32.7852L35.8506 33.3044C36.7582 33.2836 37.6659 33.4238 38.5216 33.7249C39.201 33.9689 39.8234 34.3635 40.3317 34.8775C40.8036 35.3604 41.1563 35.9419 41.369 36.5805C41.592 37.2503 41.7061 37.9512 41.7009 38.6573C41.7061 39.2803 41.6075 39.8982 41.4001 40.4849C41.2134 41.0197 40.9177 41.5025 40.5288 41.9127C40.1242 42.3228 39.6367 42.6395 39.1025 42.842C38.4801 43.0757 37.8163 43.1899 37.1472 43.1795C36.8205 43.1795 36.4989 43.1587 36.1774 43.112C35.8973 43.0757 35.6276 43.003 35.3631 42.9043C35.3061 42.8784 35.472 43.1691 35.472 43.1691L40.6481 50.6923C40.8296 50.9571 41.0111 51.2115 41.1667 51.4452C41.343 51.6736 41.5401 51.8865 41.7579 52.0786C41.9654 52.2655 42.204 52.4109 42.4581 52.5199C42.7382 52.6289 43.039 52.686 43.3398 52.6808H45.6426L45.7567 52.2707C45.5233 52.2707 45.2951 52.2136 45.0876 52.1149" fill="#2C2C2C"/>
<path d="M82.4552 51.8917H77.2688V43.9427C77.5074 43.6468 77.8341 43.4339 78.2024 43.3405C79.0011 43.0705 80.3962 43.2418 81.9988 43.5637C83.6014 43.8856 84.7787 43.6676 85.3648 43.0445C85.733 42.6136 85.9716 42.084 86.0494 41.5233C85.7849 41.9127 85.3959 42.193 84.9499 42.328C84.1512 42.598 82.756 42.4267 81.1534 42.1048C79.5508 41.7829 78.3735 42.0009 77.7875 42.624C77.5489 42.8628 77.3726 43.1587 77.2688 43.4806V33.3459H83.1606C83.6118 33.3459 84.063 33.3667 84.509 33.4082C84.8565 33.4445 85.204 33.4965 85.5463 33.5743C85.8108 33.6315 86.065 33.7145 86.3139 33.8184C86.511 33.8962 86.6977 33.9897 86.874 34.1039L86.7236 32.5463H73.6383L73.5605 32.9305C74.0377 32.9098 74.4889 33.159 74.7171 33.5795C74.8416 33.7976 74.9194 34.0364 74.9609 34.2804C75.0127 34.566 75.0387 34.8516 75.0387 35.1423V50.1056C75.0387 50.3652 75.0231 50.6248 74.992 50.8792C74.9661 51.1232 74.9298 51.3621 74.8779 51.6009C74.8312 51.8086 74.7742 52.0111 74.7067 52.2136C74.6445 52.3953 74.5875 52.551 74.5304 52.6756H87.1282L87.289 51.8917H82.4552Z" fill="#2C2C2C"/>
<path d="M48.3335 52.6756C48.4061 52.5251 48.4632 52.3693 48.5151 52.2136C48.5825 52.0111 48.6395 51.8086 48.681 51.6009C48.7329 51.3621 48.7744 51.1232 48.8003 50.8792C48.8314 50.6248 48.847 50.3652 48.847 50.1056V35.0073C48.8522 34.6802 48.8159 34.3583 48.7381 34.0416C48.6862 33.808 48.5877 33.5899 48.4476 33.3978C48.3335 33.2421 48.1831 33.1174 48.0068 33.0396C47.8305 32.9721 47.6437 32.9357 47.457 32.9357L47.5245 32.5619H49.8117C50.0295 32.5515 50.2473 32.5982 50.4392 32.7021C50.6 32.7955 50.7297 32.9305 50.823 33.0915C50.9164 33.268 50.9786 33.4601 51.0045 33.6626C51.0305 33.8962 51.046 34.1299 51.046 34.3635V50.1056C51.046 50.3652 51.0616 50.6248 51.0927 50.8792C51.1186 51.1232 51.1549 51.3621 51.2068 51.6009C51.2587 51.8293 51.3157 52.0318 51.3728 52.2136C51.4298 52.3953 51.4972 52.551 51.5543 52.6756H48.3335Z" fill="#2C2C2C"/>
<path d="M62.897 52.7224L55.8227 34.6491C55.6568 34.1351 55.3508 33.673 54.9411 33.3147C54.6039 33.0655 54.1942 32.9357 53.7793 32.9461L53.8571 32.5619H55.5894C55.9783 32.5567 56.3673 32.5879 56.7459 32.6657C57.0104 32.7228 57.2594 32.8423 57.472 33.0084C57.6639 33.1745 57.8195 33.377 57.9336 33.6055C58.0736 33.8858 58.1981 34.1766 58.307 34.4725L64.0121 49.6227L68.2182 38.2315C68.3323 37.9148 68.4568 37.5825 68.5865 37.2295C68.7161 36.8764 68.8458 36.5182 68.9599 36.1496C69.074 35.7861 69.1725 35.4123 69.2452 35.0385C69.323 34.675 69.3593 34.3064 69.3593 33.9326C69.3593 33.6989 69.3385 33.4653 69.3074 33.2317C69.2763 33.0032 69.214 32.7748 69.1207 32.5619H71.1538L63.6646 52.7224H62.897Z" fill="#2C2C2C"/>
<path d="M90.9355 34.0779C90.9355 34.2545 90.9614 34.4362 90.9614 34.6283V50.1056C90.9614 50.3652 90.951 50.6248 90.9199 50.8792C90.894 51.1232 90.8525 51.3621 90.8006 51.6009C90.7591 51.8086 90.7021 52.011 90.6346 52.2135C90.5724 52.3953 90.5102 52.551 90.4531 52.6756H93.1656V34.3375L90.9355 34.0779Z" fill="#2C2C2C"/>
<path d="M104.321 52.1097C104.067 51.9903 103.828 51.8449 103.61 51.6736C103.356 51.4711 103.118 51.253 102.9 51.009C102.656 50.7494 102.438 50.469 102.236 50.1783L97.6978 43.6935C99.01 43.6052 100.26 43.1068 101.276 42.2709C102.506 41.2065 103.201 39.6489 103.18 38.0239C103.19 37.2295 103.029 36.4403 102.703 35.7134C102.376 35.0333 101.894 34.4414 101.287 33.9949C100.587 33.5016 99.8035 33.1538 98.9737 32.9565C97.9416 32.6969 96.8784 32.5723 95.81 32.5878H89.5863L89.5137 32.9721C89.5811 32.9669 89.6537 32.9669 89.7211 32.9721L95.7062 33.3251C96.4116 33.3511 97.1117 33.4861 97.7808 33.7249C98.4602 33.9689 99.0774 34.3635 99.5909 34.8775C100.063 35.3604 100.415 35.9419 100.628 36.5805C100.851 37.2502 100.96 37.9512 100.96 38.6573C100.965 39.2803 100.862 39.8982 100.659 40.4849C100.473 41.0196 100.177 41.5025 99.7879 41.9126C99.3834 42.3228 98.8959 42.6395 98.3617 42.842C97.7393 43.0757 97.0754 43.1899 96.4064 43.1795C96.0797 43.1795 95.7529 43.1587 95.4314 43.112C95.1513 43.0653 94.8764 42.9822 94.6171 42.868C94.5652 42.842 94.7364 43.138 94.7364 43.138L99.8554 50.6923C100.037 50.9571 100.218 51.2115 100.374 51.4451C100.55 51.6736 100.747 51.8864 100.965 52.0785C101.173 52.2655 101.411 52.4108 101.665 52.5199C101.945 52.6289 102.241 52.686 102.542 52.6808H104.85L104.964 52.2707C104.731 52.2707 104.502 52.2135 104.295 52.1149" fill="#2C2C2C"/>
<path d="M164.763 33.0915C164.68 32.9305 164.551 32.7956 164.39 32.7073C164.198 32.6034 163.985 32.5567 163.768 32.5619H161.371L161.299 32.9461C161.543 32.9409 161.786 32.998 161.999 33.1226C162.186 33.2421 162.341 33.403 162.45 33.6003C162.575 33.8236 162.658 34.0624 162.699 34.3116C162.751 34.5972 162.777 34.8931 162.772 35.1839V50.1056C162.772 50.3652 162.761 50.6248 162.73 50.8792C162.704 51.1233 162.663 51.3621 162.611 51.6009C162.569 51.8086 162.512 52.0111 162.445 52.2136C162.383 52.3953 162.321 52.551 162.264 52.6757H164.981V34.3635C164.981 34.1299 164.966 33.8963 164.94 33.6626C164.914 33.4653 164.857 33.268 164.763 33.0915Z" fill="#2C2C2C"/>
<path d="M175.837 51.9436C174.655 50.9052 173.82 48.657 173.104 45.9884C172.388 43.3197 170.998 41.6686 169.292 41.191C168.742 41.0092 168.161 40.9314 167.58 40.9521L176.034 32.5619H172.29C172.31 33.0863 172.196 33.6055 171.968 34.0779C171.714 34.6231 171.408 35.1475 171.055 35.6355C170.687 36.1392 170.293 36.622 169.873 37.0841C169.453 37.5358 169.095 37.9096 168.799 38.2004L165.775 41.1235L165.817 41.165C166.73 41.274 167.585 41.6738 168.26 42.302C169.442 43.3404 170.277 45.5886 170.993 48.2624C171.709 50.9363 173.099 52.5822 174.805 53.0598C176.428 53.6154 178.363 53.0079 178.28 53.091C178.363 53.0079 176.926 53.091 175.837 51.9436Z" fill="#2C2C2C"/>
<path d="M143.94 52.2083C143.743 52.1564 143.556 52.063 143.395 51.9383C143.209 51.793 143.048 51.6164 142.918 51.4191C142.747 51.1595 142.612 50.8844 142.508 50.5936L140.953 46.6477C140.081 46.7464 139.194 46.6633 138.359 46.3985L140.019 50.7701C140.128 51.0661 140.252 51.3568 140.392 51.6372C140.512 51.876 140.678 52.0837 140.88 52.2499C141.093 52.4108 141.342 52.5302 141.606 52.5873C141.979 52.6756 142.368 52.7119 142.752 52.7016H144.51L144.588 52.3174C144.376 52.3174 144.163 52.2914 143.961 52.2343" fill="#2C2C2C"/>
<path d="M135.575 43.8753C133.34 43.4339 131.779 43.6053 131.068 44.2698C130.783 44.5243 130.539 44.8202 130.342 45.1473C130.093 45.5523 130.597 44.2647 131.354 43.5118L134.336 35.6356L137.588 44.2439C136.96 44.1504 136.286 44.031 135.575 43.8908M140.809 44.3373C140.58 44.3945 140.347 44.4256 140.108 44.4308L135.477 32.5204H134.657L127.096 52.6757H129.103C129.015 52.4628 128.958 52.2343 128.937 52.0059C128.937 51.7723 128.906 51.5386 128.906 51.2946C128.906 50.926 128.942 50.5625 129.015 50.1991C129.092 49.8201 129.186 49.4514 129.3 49.0828C129.414 48.7142 129.539 48.3507 129.673 48.0029L130.047 47.0008L130.482 45.8067C130.794 45.4173 131.24 45.1681 131.732 45.1058C132.77 44.8513 134.72 45.1058 136.965 45.5575C139.211 46.0092 140.788 45.8222 141.493 45.1473C142.214 44.5554 142.141 43.5118 142.183 43.491C141.856 43.9427 141.358 44.2387 140.809 44.3218" fill="#2C2C2C"/>
<path d="M146.819 34.0779C146.84 34.2649 146.85 34.4466 146.85 34.6335V50.1056C146.85 50.3652 146.835 50.6248 146.803 50.8792C146.777 51.1232 146.741 51.3621 146.689 51.6009C146.643 51.8086 146.586 52.011 146.518 52.2135C146.456 52.3953 146.399 52.551 146.342 52.6756H149.054V34.3375L146.819 34.0779Z" fill="#2C2C2C"/>
<path d="M160.204 52.1097C159.955 51.9955 159.717 51.8501 159.499 51.6788C159.245 51.4763 159.001 51.253 158.783 51.0142C158.544 50.7494 158.321 50.469 158.119 50.1731L153.581 43.6883C154.893 43.6 156.143 43.1016 157.16 42.2657C157.746 41.7569 158.218 41.1339 158.55 40.4329C158.902 39.6801 159.079 38.8546 159.068 38.0187C159.079 37.2243 158.918 36.4351 158.591 35.7134C158.27 35.0281 157.782 34.4362 157.175 33.9897C156.475 33.4964 155.692 33.1486 154.862 32.9513C153.83 32.6917 152.767 32.5671 151.704 32.5827H140.195L140.117 32.9928L150.941 33.3147C151.849 33.294 152.756 33.4341 153.612 33.7405C154.286 33.9793 154.893 34.3635 155.402 34.8671C155.868 35.35 156.226 35.9367 156.439 36.5753C156.657 37.2451 156.771 37.946 156.766 38.6521C156.771 39.2699 156.672 39.8878 156.47 40.4745C156.096 41.5648 155.251 42.4318 154.167 42.8316C153.545 43.0705 152.881 43.1847 152.217 43.1691C151.89 43.1691 151.564 43.1483 151.242 43.1016C150.967 43.0549 150.697 42.977 150.438 42.8628C150.381 42.8368 150.547 43.1276 150.547 43.1276L155.733 50.6663C155.915 50.9311 156.097 51.1855 156.278 51.4192C156.454 51.6476 156.651 51.8605 156.869 52.0526C157.077 52.2343 157.315 52.3849 157.569 52.4939C157.85 52.6081 158.15 52.6601 158.451 52.6549H160.759L160.868 52.2447C160.635 52.2447 160.406 52.1876 160.199 52.0889" fill="#2C2C2C"/>
<path d="M126.878 35.7186C126.556 35.0385 126.074 34.4466 125.467 34.0001C124.772 33.4965 123.989 33.133 123.154 32.9305C122.122 32.6709 121.059 32.5463 119.99 32.5619H113.725L113.652 32.9461C113.896 32.9409 114.14 32.998 114.353 33.1226C114.539 33.2421 114.695 33.403 114.804 33.6003C114.923 33.8236 115.006 34.0624 115.053 34.3116C115.099 34.6024 115.125 34.8931 115.125 35.1839V50.1056C115.125 50.3652 115.11 50.6248 115.084 50.8792C115.058 51.1232 115.016 51.3621 114.965 51.6009C114.923 51.8086 114.866 52.0111 114.799 52.2136C114.736 52.3953 114.674 52.551 114.617 52.6756H117.335V34.3376V33.2992H119.84C120.55 33.3303 121.245 33.4653 121.914 33.7041C122.594 33.9482 123.211 34.3428 123.724 34.8516C124.196 35.3344 124.549 35.9211 124.762 36.5597C124.985 37.2295 125.094 37.9304 125.094 38.6365C125.094 39.2544 124.995 39.8722 124.793 40.4589C124.611 40.9937 124.31 41.4817 123.921 41.8867C123.517 42.2969 123.029 42.6136 122.495 42.8213C121.868 43.0549 121.209 43.1639 120.54 43.1536C120.213 43.1536 119.886 43.1328 119.565 43.0861C119.228 43.0289 118.901 42.9199 118.595 42.7693L118.636 42.9822C119.482 43.4495 120.431 43.6883 121.396 43.6779C122.879 43.6935 124.321 43.1795 125.467 42.2346C126.701 41.1754 127.401 39.6178 127.37 37.9875C127.37 37.2035 127.21 36.4299 126.878 35.7186Z" fill="#2C2C2C"/>
<path d="M204.807 48.6155C205.087 49.171 205.424 49.6902 205.813 50.1731C206.187 50.63 206.628 51.035 207.115 51.3724C207.603 51.7151 208.137 51.9799 208.702 52.1564C209.309 52.3485 209.942 52.442 210.575 52.4368C211.555 52.4524 212.525 52.2084 213.386 51.7307C214.2 51.279 214.895 50.6456 215.424 49.8772C215.994 49.0412 216.414 48.1067 216.663 47.1254C216.943 46.0247 217.083 44.898 217.078 43.761C217.078 42.9614 217.016 42.1619 216.907 41.3675C216.798 40.5212 216.627 39.6905 216.388 38.8701C216.15 38.0602 215.828 37.271 215.439 36.5234C215.061 35.8069 214.578 35.1423 214.008 34.566C213.458 34.0001 212.81 33.5432 212.094 33.2109C211.321 32.863 210.486 32.6865 209.641 32.6917C208.661 32.6709 207.696 32.9098 206.835 33.377C206.031 33.8339 205.336 34.4673 204.807 35.2306C204.237 36.0665 203.817 37.001 203.568 37.9823C203.288 39.083 203.148 40.2097 203.153 41.3467C203.153 41.9542 203.184 42.5565 203.246 43.1587C203.308 43.787 203.407 44.41 203.542 45.0226C203.677 45.6457 203.848 46.2635 204.06 46.8658C204.268 47.4681 204.517 48.0496 204.807 48.6155ZM206.135 52.3018C205.274 51.9124 204.486 51.388 203.796 50.7442C203.116 50.1004 202.536 49.358 202.079 48.5376C201.607 47.7017 201.249 46.8035 201.016 45.8689C200.777 44.8877 200.653 43.8804 200.658 42.868C200.632 41.2792 200.876 39.7009 201.384 38.1952C201.815 36.9335 202.494 35.7705 203.386 34.7841C204.226 33.8807 205.253 33.1694 206.394 32.7073C208.464 31.8973 210.746 31.7831 212.888 32.3802C214.516 32.8578 215.979 33.7976 217.083 35.0852C217.623 35.7186 218.084 36.4143 218.447 37.162C218.826 37.9356 219.106 38.7559 219.293 39.597C219.485 40.4693 219.578 41.3623 219.578 42.2553C219.604 43.8441 219.36 45.4224 218.852 46.9281C218.422 48.1898 217.737 49.3476 216.845 50.334C216.01 51.2375 214.983 51.9488 213.842 52.4108C212.659 52.8885 211.394 53.1273 210.118 53.1169C209.402 53.1221 208.692 53.0546 207.992 52.9093C207.354 52.7743 206.731 52.5666 206.135 52.2966" fill="#2C2C2C"/>
<path d="M277.573 49.5708H277.858C277.983 49.9291 278.175 50.2614 278.424 50.5469C278.74 50.9156 279.119 51.2271 279.544 51.4711C280.078 51.7774 280.654 52.0111 281.25 52.1616C282.013 52.3486 282.791 52.4368 283.574 52.4264C284.264 52.442 284.948 52.3382 285.602 52.1305C286.131 51.954 286.624 51.6788 287.044 51.3153C287.417 50.9831 287.713 50.5781 287.905 50.116C288.096 49.6539 288.195 49.1607 288.19 48.6622C288.211 47.9561 288.055 47.2552 287.728 46.627C287.427 46.0714 287.012 45.5834 286.52 45.194C285.996 44.7786 285.42 44.4308 284.813 44.1556C284.181 43.8545 283.527 43.5637 282.858 43.273C282.189 42.9822 281.536 42.6811 280.898 42.3592C280.281 42.058 279.705 41.6686 279.191 41.2066C278.688 40.7549 278.279 40.2045 277.983 39.597C277.656 38.8857 277.501 38.1121 277.521 37.3281C277.521 36.6168 277.656 35.9107 277.926 35.2514C278.196 34.6024 278.605 34.026 279.129 33.5588C279.71 33.0499 280.389 32.6606 281.121 32.4165C282.008 32.1258 282.941 31.9856 283.875 32.0012C284.367 32.0012 284.86 32.0427 285.348 32.131C285.84 32.214 286.323 32.3283 286.8 32.4788C287.246 32.619 287.676 32.7955 288.096 32.998C288.459 33.1746 288.807 33.377 289.134 33.6107V36.5701L288.786 36.6688C288.568 35.999 288.262 35.3604 287.879 34.7737C287.567 34.3012 287.168 33.8859 286.706 33.5588C286.281 33.2576 285.799 33.0396 285.296 32.9098C284.767 32.78 284.217 32.7177 283.672 32.7177C283.029 32.7073 282.391 32.8007 281.779 32.9876C281.276 33.1382 280.804 33.3874 280.395 33.7145C280.016 34.0209 279.72 34.4102 279.523 34.8568C279.321 35.3188 279.217 35.8173 279.223 36.3209C279.202 36.9543 279.363 37.5774 279.689 38.1173C280.011 38.6209 280.426 39.0623 280.908 39.4153C281.447 39.8047 282.028 40.137 282.635 40.407C283.278 40.6977 283.937 40.9885 284.611 41.2741C285.285 41.5596 285.944 41.8815 286.592 42.2242C287.215 42.5565 287.796 42.9666 288.314 43.4495C288.823 43.9272 289.237 44.4983 289.538 45.1265C289.865 45.8586 290.021 46.6581 290 47.4577C290 48.1846 289.87 48.9011 289.606 49.576C289.341 50.2614 288.931 50.8792 288.408 51.388C287.832 51.9436 287.142 52.3745 286.39 52.6549C285.472 52.9924 284.502 53.1533 283.527 53.1325C282.879 53.1325 282.225 53.1014 281.582 53.0183C281.038 52.9456 280.504 52.8366 279.98 52.6808C279.529 52.5458 279.093 52.3693 278.673 52.1616C278.299 51.9851 277.941 51.7774 277.599 51.5438L277.573 49.5708Z" fill="#2C2C2C"/>
<path d="M255.07 51.8397H249.858V43.9012C250.097 43.6052 250.423 43.3924 250.792 43.3041C251.59 43.0341 252.986 43.2003 254.588 43.5222C256.191 43.8441 257.368 43.626 257.954 43.003C258.322 42.572 258.561 42.0424 258.639 41.4817C258.374 41.8711 257.985 42.1515 257.539 42.2865C256.74 42.5564 255.345 42.3903 253.743 42.0632C252.14 41.7361 250.963 41.9594 250.377 42.5824C250.138 42.8212 249.962 43.1172 249.858 43.4391V33.294H255.75C256.201 33.294 256.652 33.3147 257.098 33.3563C257.446 33.3926 257.793 33.4445 258.136 33.5224C258.395 33.5847 258.654 33.6678 258.903 33.7664C259.095 33.8443 259.282 33.9429 259.463 34.052L259.313 32.4944H246.254L246.176 32.8786C246.42 32.8682 246.663 32.9305 246.876 33.0499C247.063 33.1693 247.218 33.3303 247.332 33.5224C247.457 33.7405 247.535 33.9793 247.576 34.2233C247.633 34.5193 247.659 34.8152 247.654 35.1163V50.0537C247.654 50.3133 247.638 50.5729 247.607 50.8325C247.607 51.0817 247.54 51.3205 247.493 51.549C247.446 51.7566 247.389 51.9643 247.322 52.1668C247.26 52.3485 247.203 52.4991 247.146 52.6237H259.743L259.904 51.8397H255.07Z" fill="#2C2C2C"/>
<path d="M262.544 34.0208C262.564 34.2129 262.575 34.405 262.575 34.5971V50.0537C262.575 50.3133 262.559 50.5729 262.528 50.8325C262.502 51.0817 262.461 51.3205 262.414 51.5489C262.367 51.7566 262.31 51.9643 262.243 52.1668C262.181 52.3485 262.123 52.4991 262.066 52.6237H264.779V34.2856L262.544 34.0208Z" fill="#2C2C2C"/>
<path d="M275.929 52.063C275.67 51.9487 275.431 51.8034 275.208 51.6268C274.954 51.4243 274.71 51.2011 274.492 50.9623C274.254 50.7027 274.031 50.4223 273.828 50.1315L269.29 43.6416C270.602 43.5533 271.852 43.0601 272.869 42.219C273.455 41.7101 273.927 41.0871 274.259 40.3914C274.611 39.6385 274.788 38.813 274.777 37.9771C274.788 37.1827 274.627 36.3935 274.3 35.6667C273.979 34.9865 273.491 34.3946 272.884 33.9481C272.189 33.4445 271.406 33.0811 270.571 32.8786C269.544 32.6242 268.486 32.5048 267.428 32.5203H261.168L261.096 32.9045H261.308L267.288 33.2576C267.999 33.2887 268.694 33.4237 269.363 33.6626C270.042 33.9066 270.665 34.296 271.173 34.81C271.64 35.2928 271.998 35.8795 272.21 36.5182C272.428 37.1879 272.542 37.8888 272.537 38.5949C272.542 39.2128 272.444 39.8306 272.241 40.4173C271.863 41.5077 271.017 42.3747 269.939 42.7797C269.311 43.0133 268.652 43.1275 267.983 43.112C267.657 43.112 267.335 43.0912 267.013 43.0445C266.728 42.9978 266.453 42.9199 266.194 42.8005C266.142 42.8005 266.318 43.0704 266.318 43.0704L271.505 50.6144C271.686 50.8792 271.868 51.1284 272.049 51.362C272.215 51.6009 272.402 51.8241 272.615 52.0214C272.822 52.2083 273.061 52.3537 273.315 52.4627C273.595 52.577 273.896 52.6289 274.197 52.6237H276.505L276.613 52.2135C276.38 52.2135 276.152 52.1616 275.944 52.063" fill="#2C2C2C"/>
<path d="M200.477 32.5204H184.627L184.477 34.078C184.653 33.9638 184.84 33.8703 185.037 33.7924C185.286 33.6886 185.54 33.6055 185.804 33.5484C186.147 33.4705 186.494 33.4134 186.842 33.3823C187.288 33.3407 187.739 33.32 188.185 33.32H191.437V50.0537C191.437 50.3652 191.406 50.6819 191.343 50.9883C191.281 51.2946 191.219 51.5646 191.151 51.8034C191.084 52.0422 190.996 52.359 190.903 52.6237H194.18C194.087 52.359 194.004 52.1045 193.931 51.8034C193.859 51.5334 193.797 51.2634 193.75 50.9883C193.698 50.6819 193.667 50.3652 193.667 50.0537V33.294H196.919C197.37 33.294 197.821 33.3148 198.267 33.3563C198.615 33.3874 198.962 33.4446 199.304 33.5224C199.569 33.5796 199.823 33.6626 200.072 33.7665C200.269 33.8495 200.451 33.9534 200.627 34.078L200.477 32.5204Z" fill="#2C2C2C"/>
<path d="M227.109 52.6757L221.368 34.6491C221.28 34.348 221.145 34.0624 220.974 33.8028C220.829 33.6055 220.652 33.429 220.455 33.2836C220.284 33.1538 220.087 33.0552 219.88 32.998C219.677 32.9461 219.475 32.9202 219.268 32.9202L219.34 32.536H221.104C221.477 32.5256 221.85 32.5619 222.219 32.6398C222.488 32.6969 222.742 32.8163 222.96 32.9825C223.168 33.133 223.339 33.3303 223.463 33.5588C223.603 33.8495 223.718 34.1507 223.811 34.4622L228.25 49.2178L233.027 32.6502H233.992L239.277 49.2178L242.28 38.2316C242.461 37.5774 242.638 36.9076 242.798 36.2223C242.954 35.5265 243.032 34.8204 243.032 34.1091C243.032 33.8028 243.032 33.5172 242.995 33.2525C242.964 33.0032 242.912 32.7592 242.835 32.5204H244.785L239.08 52.6809H238.208L232.825 36.513L228.053 52.6757H227.109Z" fill="#2C2C2C"/>
</svg>
