<svg width="310" height="103" viewBox="0 0 310 103" fill="none" xmlns="http://www.w3.org/2000/svg">
<rect width="310" height="103" fill="white"/>
<path d="M39.9635 74H42.1728V49.4486C42.1728 41.623 48.216 37.3512 53.6094 37.3512C64.9479 37.3499 64.3962 29 64.3962 29H40.1876V50.6714H18C18 50.6714 18.2772 58.8938 27.5044 58.8938C37.7661 58.8938 39.9396 67.241 39.9396 68.9581C39.9396 72.1451 39.9635 74 39.9635 74Z" fill="#2C2C2C"/>
<path d="M77.7784 48.9063C75.6818 46.8302 74.6328 44.1921 74.6328 40.9922C74.6328 37.7922 75.6818 35.1542 77.7784 33.0781C79.875 31.002 82.5233 29.9626 85.7246 29.9626C89.3105 29.9626 92.1365 31.2348 94.2026 33.7779C95.115 34.8706 95.7834 36.1324 96.2077 37.5632H93.4732C93.0476 36.5694 92.5105 35.7252 91.8633 35.0293C90.2627 33.3408 88.2164 32.4953 85.7246 32.4953C83.2328 32.4953 81.2675 33.281 79.7079 34.8498C78.1471 36.4198 77.3673 38.4673 77.3673 40.9909C77.3673 43.5144 78.1471 45.5619 79.7079 47.132C81.2675 48.702 83.2739 49.4864 85.7246 49.4864C88.1753 49.4864 90.3542 48.5732 92.0158 46.7443C92.6842 45.9899 93.2213 45.065 93.6271 43.9723H96.3616C95.8749 45.5229 95.1654 46.864 94.2344 47.997C92.1073 50.6792 89.2707 52.0217 85.726 52.0217C82.5247 52.0217 79.8764 50.9836 77.7797 48.9063H77.7784Z" fill="#2C2C2C"/>
<path d="M100.918 49.5033C99.4992 48.023 98.791 46.1797 98.791 43.9736C98.791 41.7674 99.5005 39.9255 100.918 38.4439C102.336 36.9635 104.058 36.2234 106.085 36.2234C107.361 36.2234 108.44 36.4614 109.322 36.9388C110.204 37.4162 110.846 37.9326 111.251 38.4894L111.525 38.9369H111.555V36.5226H113.986V51.4272H111.555V49.0428H111.525L111.251 49.4604C110.887 49.9963 110.258 50.5088 109.367 50.9953C108.476 51.4818 107.382 51.7251 106.085 51.7251C104.058 51.7251 102.337 50.9849 100.918 49.5046V49.5033ZM102.696 40.0087C101.714 41.0429 101.223 42.3632 101.223 43.9736C101.223 45.584 101.714 46.9056 102.696 47.9384C103.679 48.9726 104.91 49.489 106.388 49.489C107.867 49.489 109.098 48.9726 110.08 47.9384C111.063 46.9056 111.554 45.584 111.554 43.9736C111.554 42.3632 111.062 41.0429 110.08 40.0087C109.098 38.9759 107.867 38.4582 106.388 38.4582C104.91 38.4582 103.679 38.9746 102.696 40.0087Z" fill="#2C2C2C"/>
<path d="M118.24 51.4258V36.5212H125.685C127.103 36.5212 128.218 36.8686 129.028 37.5645C129.839 38.2604 130.244 39.1541 130.244 40.2467C130.244 40.7436 130.173 41.1963 130.032 41.6035C129.89 42.0106 129.718 42.3293 129.515 42.557C129.312 42.7859 129.095 42.9745 128.861 43.1228C128.628 43.2724 128.436 43.3713 128.284 43.4207C128.132 43.4701 128.026 43.4948 127.965 43.4948V43.5248C128.026 43.5248 128.148 43.5495 128.329 43.5989C128.512 43.6483 128.75 43.7576 129.044 43.9267C129.337 44.0958 129.616 44.3 129.88 44.5381C130.142 44.7761 130.37 45.1248 130.564 45.5813C130.756 46.0392 130.853 46.5452 130.853 47.102C130.853 48.3937 130.402 49.4369 129.5 50.2317C128.599 51.0265 127.338 51.4245 125.717 51.4245H118.242L118.24 51.4258ZM120.671 42.6324H125.534C127.054 42.6324 127.814 41.9872 127.814 40.6942C127.814 39.4012 127.054 38.7573 125.534 38.7573H120.671V42.6324ZM120.671 49.1898H125.685C126.576 49.1898 127.255 48.9907 127.721 48.594C128.186 48.1973 128.42 47.6509 128.42 46.955C128.42 46.2591 128.186 45.7127 127.721 45.316C127.254 44.9192 126.576 44.7202 125.685 44.7202H120.671V49.1911V49.1898Z" fill="#2C2C2C"/>
<path d="M134.193 51.4258V36.5212H141.638C143.056 36.5212 144.171 36.8686 144.981 37.5645C145.792 38.2604 146.198 39.1541 146.198 40.2467C146.198 40.7436 146.126 41.1963 145.985 41.6035C145.843 42.0106 145.671 42.3293 145.468 42.557C145.265 42.7859 145.048 42.9745 144.814 43.1228C144.581 43.2724 144.389 43.3713 144.238 43.4207C144.085 43.4701 143.979 43.4948 143.918 43.4948V43.5248C143.979 43.5248 144.101 43.5495 144.283 43.5989C144.466 43.6483 144.703 43.7576 144.997 43.9267C145.29 44.0958 145.569 44.3 145.833 44.5381C146.095 44.7761 146.324 45.1248 146.517 45.5813C146.709 46.0392 146.806 46.5452 146.806 47.102C146.806 48.3937 146.355 49.4369 145.454 50.2317C144.552 51.0265 143.291 51.4245 141.67 51.4245H134.195L134.193 51.4258ZM136.624 42.6324H141.487C143.007 42.6324 143.767 41.9872 143.767 40.6942C143.767 39.4012 143.007 38.7573 141.487 38.7573H136.624V42.6324ZM136.624 49.1898H141.638C142.529 49.1898 143.208 48.9907 143.674 48.594C144.139 48.1973 144.373 47.6509 144.373 46.955C144.373 46.2591 144.139 45.7127 143.674 45.316C143.207 44.9192 142.529 44.7202 141.638 44.7202H136.624V49.1911V49.1898Z" fill="#2C2C2C"/>
<path d="M150.148 51.4258V36.5212H152.579V47.699L152.549 47.9969H152.61L160.784 36.5212H163.519V51.4258H161.088V40.248L161.118 39.9502H161.057L152.883 51.4258H150.148Z" fill="#2C2C2C"/>
<path d="M167.774 51.4258V36.5212H170.205V42.6324H178.714V36.5212H181.145V51.4258H178.714V44.8685H170.205V51.4258H167.774Z" fill="#2C2C2C"/>
<path d="M186.675 49.5176C185.217 48.0477 184.487 46.1993 184.487 43.9736C184.487 41.7479 185.217 39.8995 186.675 38.4296C188.134 36.9596 189.936 36.2234 192.085 36.2234C194.577 36.2234 196.553 37.0975 198.011 38.8471C198.639 39.6224 199.095 40.4861 199.378 41.4409H196.948C196.725 40.905 196.391 40.4081 195.945 39.9502C194.973 38.9564 193.685 38.4595 192.086 38.4595C190.607 38.4595 189.377 38.9759 188.394 40.01C187.411 41.0442 186.921 42.3645 186.921 43.9749C186.921 45.5853 187.427 46.9069 188.441 47.9397C189.454 48.9739 190.668 49.4903 192.087 49.4903C193.748 49.4903 195.075 48.9439 196.068 47.8513C196.514 47.3947 196.859 46.8484 197.102 46.2123H199.532C199.268 47.2256 198.803 48.1505 198.135 48.9843C196.595 50.8132 194.579 51.7264 192.087 51.7264C189.939 51.7264 188.137 50.9914 186.678 49.5202L186.675 49.5176Z" fill="#2C2C2C"/>
<path d="M202.568 51.4258V36.5212H204.999V42.4828H208.038L212.9 36.5212H215.787L210.165 43.5261L216.243 51.4258H213.203L208.037 44.7189H204.997V51.4258H202.566H202.568Z" fill="#2C2C2C"/>
<path d="M219.13 49.5033C217.711 48.023 217.003 46.1797 217.003 43.9736C217.003 41.7674 217.712 39.9255 219.13 38.4439C220.548 36.9635 222.27 36.2234 224.297 36.2234C225.572 36.2234 226.652 36.4614 227.534 36.9388C228.416 37.4162 229.058 37.9326 229.463 38.4894L229.737 38.9369H229.767V36.5226H232.198V51.4272H229.767V49.0428H229.737L229.463 49.4604C229.099 49.9963 228.47 50.5088 227.579 50.9953C226.688 51.4818 225.594 51.7251 224.297 51.7251C222.27 51.7251 220.549 50.9849 219.13 49.5046V49.5033ZM220.908 40.0087C219.926 41.0429 219.435 42.3632 219.435 43.9736C219.435 45.584 219.926 46.9056 220.908 47.9384C221.891 48.9726 223.122 49.489 224.6 49.489C226.079 49.489 227.31 48.9726 228.292 47.9384C229.275 46.9056 229.766 45.584 229.766 43.9736C229.766 42.3632 229.274 41.0429 228.292 40.0087C227.31 38.9759 226.079 38.4582 224.6 38.4582C223.122 38.4582 221.891 38.9746 220.908 40.0087Z" fill="#2C2C2C"/>
<path d="M235.845 51.426L238.884 46.0602C238.378 45.8417 237.871 45.5243 237.364 45.1067C236.351 44.1935 235.845 43.0202 235.845 41.5893C235.845 40.1585 236.382 38.9318 237.455 37.9679C238.529 37.004 239.957 36.5227 241.739 36.5227H248.607V51.4273H246.177V46.6573H241.315L238.64 51.4273H235.845V51.426ZM239.172 39.5328C238.574 40.0492 238.276 40.736 238.276 41.5893C238.276 42.4427 238.574 43.1295 239.172 43.6459C239.769 44.1623 240.636 44.4212 241.77 44.4212H246.177V38.7575H241.77C240.635 38.7575 239.769 39.0163 239.172 39.5328Z" fill="#2C2C2C"/>
<path d="M260.155 51.4259V48.8919L267.145 43.824C269.07 42.4126 270.437 41.2003 271.248 40.187C272.059 39.1736 272.464 38.0016 272.464 36.6696C272.464 35.4572 272.044 34.4595 271.203 33.6738C270.363 32.8895 269.263 32.4966 267.907 32.4966C266.164 32.4966 264.867 33.1925 264.017 34.5831C263.611 35.2192 263.338 35.9151 263.196 36.6696H260.309C260.492 35.4377 260.886 34.3255 261.495 33.3304C262.934 31.0852 265.07 29.9626 267.907 29.9626C270.014 29.9626 271.755 30.6091 273.133 31.8995C274.511 33.1912 275.199 34.7808 275.199 36.6696C275.199 38.5584 274.676 40.0634 273.634 41.424C272.59 42.786 271.036 44.1817 268.97 45.6126L264.563 48.6825L264.26 48.862V48.9219L264.533 48.8919H275.199V51.4259H260.157H260.155Z" fill="#2C2C2C"/>
<path d="M276.869 33.0938V30.5598H291V33.0938L282.187 51.426H279.3L288.113 33.1237V33.0938H276.869Z" fill="#2C2C2C"/>
<path d="M75.4061 71.7236C74.5375 70.8716 74.1025 69.7997 74.1025 68.5093C74.1025 67.2189 74.5362 66.1484 75.4061 65.295C76.2748 64.443 77.3675 64.0164 78.683 64.0164C79.9985 64.0164 81.09 64.443 81.9599 65.295C82.8285 66.1471 83.2635 67.2189 83.2635 68.5093C83.2635 69.7997 82.8285 70.8703 81.9599 71.7236C81.0913 72.5769 79.9985 73.0023 78.683 73.0023C77.3675 73.0023 76.2761 72.5756 75.4061 71.7236ZM76.41 66.2121C75.8106 66.8118 75.5122 67.5767 75.5122 68.5106C75.5122 69.4446 75.8119 70.2095 76.41 70.8092C77.0094 71.4088 77.7667 71.708 78.683 71.708C79.5994 71.708 80.3566 71.4088 80.9547 70.8092C81.5541 70.2108 81.8525 69.4446 81.8525 68.5106C81.8525 67.5767 81.5528 66.8118 80.9547 66.2121C80.3553 65.6137 79.5981 65.3133 78.683 65.3133C77.768 65.3133 77.0094 65.6124 76.41 66.2121Z" fill="#2C2C2C"/>
<path d="M84.055 65.4848V64.1892H91.6299V65.4848H88.5467V72.8278H87.137V65.4848H84.0537H84.055Z" fill="#2C2C2C"/>
<path d="M97.5296 72.8292V60.7344H99.1144V71.3606H105.543V72.8292H97.5283H97.5296Z" fill="#2C2C2C"/>
<path d="M107.623 71.7236C106.767 70.8716 106.337 69.7997 106.337 68.5093C106.337 67.2189 106.765 66.1484 107.623 65.295C108.48 64.443 109.549 64.0164 110.83 64.0164C112.111 64.0164 113.178 64.4365 114.035 65.2781C114.892 66.1185 115.321 67.1669 115.321 68.4222V68.9412H107.747C107.841 69.7477 108.175 70.4098 108.75 70.9288C109.326 71.4465 110.018 71.7067 110.829 71.7067C111.697 71.7067 112.442 71.4478 113.066 70.9288C113.347 70.6986 113.571 70.4397 113.735 70.1509H115.145C114.934 70.6921 114.635 71.1708 114.247 71.5857C113.331 72.5301 112.192 73.0023 110.83 73.0023C109.55 73.0023 108.481 72.5756 107.623 71.7236ZM107.782 67.7328H113.824C113.718 67.0537 113.396 66.4801 112.855 66.0131C112.315 65.5461 111.639 65.3133 110.829 65.3133C110.018 65.3133 109.337 65.5461 108.785 66.0131C108.233 66.4801 107.898 67.0524 107.781 67.7328H107.782Z" fill="#2C2C2C"/>
<path d="M116.379 64.1892H117.876L119.902 71.5322H121.4L123.426 64.1892H124.923L122.457 72.8291H118.846L116.379 64.1892Z" fill="#2C2C2C"/>
<path d="M127.265 71.7236C126.408 70.8716 125.979 69.7997 125.979 68.5093C125.979 67.2189 126.407 66.1484 127.265 65.295C128.122 64.443 129.19 64.0164 130.471 64.0164C131.753 64.0164 132.82 64.4365 133.677 65.2781C134.533 66.1185 134.963 67.1669 134.963 68.4222V68.9412H127.388C127.482 69.7477 127.817 70.4098 128.392 70.9288C128.968 71.4465 129.66 71.7067 130.47 71.7067C131.339 71.7067 132.084 71.4478 132.707 70.9288C132.988 70.6986 133.213 70.4397 133.377 70.1509H134.787C134.576 70.6921 134.276 71.1708 133.889 71.5857C132.973 72.5301 131.833 73.0023 130.471 73.0023C129.192 73.0023 128.123 72.5756 127.265 71.7236ZM127.424 67.7328H133.466C133.36 67.0537 133.038 66.4801 132.496 66.0131C131.957 65.5461 131.28 65.3133 130.47 65.3133C129.66 65.3133 128.978 65.5461 128.427 66.0131C127.875 66.4801 127.539 67.0524 127.423 67.7328H127.424Z" fill="#2C2C2C"/>
<path d="M136.9 72.8292V60.7344H138.31V71.5336H140.336V72.8292H136.902H136.9Z" fill="#2C2C2C"/>
</svg>
