<svg width="310" height="103" viewBox="0 0 310 103" fill="none" xmlns="http://www.w3.org/2000/svg">
<rect width="310" height="103" fill="white"/>
<g clip-path="url(#clip0_1483_1066)">
<path d="M153.394 14.6248C152.864 15.3121 152.864 15.812 153.373 18.1171C153.909 20.6027 154.3 23.1161 154.543 25.6503C154.543 26.1502 154.655 26.5668 154.773 26.5668C154.913 26.5668 155.003 26.1571 155.003 25.6503C155.247 23.1161 155.637 20.6027 156.173 18.1171C156.675 15.812 156.675 15.3052 156.153 14.6248C155.846 14.1804 155.317 13.9444 154.78 14.0068C154.244 13.9374 153.714 14.1804 153.408 14.6248H153.394Z" fill="#2C2C2C"/>
<path d="M148.811 15.3816C148.24 15.9926 148.017 16.8535 148.212 17.6659C148.281 18.0338 149.103 20.0612 150.023 22.1649C150.963 24.2895 151.904 26.5738 152.106 27.2542C152.259 27.8235 152.468 28.372 152.726 28.8997C152.844 29.1635 152.914 29.4551 152.928 29.7467C152.921 29.9689 153.005 30.1841 153.158 30.3438C153.457 30.5244 153.457 29.6842 153.158 28.7678C153.046 28.379 152.677 26.8723 152.357 25.4351C152.036 23.9979 151.667 22.4427 151.556 22.0122C151.444 21.5817 151.075 20.1376 150.734 18.8184C149.981 15.826 149.682 14.9373 149.452 14.9373C149.208 15.0414 148.985 15.1941 148.811 15.3955V15.3816Z" fill="#2C2C2C"/>
<path d="M159.649 15.6523C159.51 16.062 159.12 17.4784 158.799 18.8045C158.458 20.1306 158.089 21.5678 157.977 21.9983C157.866 22.4287 157.497 23.984 157.176 25.4212C156.856 26.8584 156.487 28.365 156.375 28.7538C156.076 29.6703 156.076 30.5104 156.375 30.3299C156.514 30.2605 156.605 29.9411 156.605 29.6425C156.584 29.4065 156.654 29.1635 156.807 28.983C156.981 28.7261 157.1 28.4414 157.148 28.1359C157.915 25.7406 158.848 23.4077 159.942 21.1512C161.593 17.6311 161.753 16.4022 160.722 15.3746C160.109 14.7567 159.949 14.8053 159.649 15.6523Z" fill="#2C2C2C"/>
<path d="M142.763 18.2144C142.289 19.2211 142.282 20.3806 142.742 21.3873C143.146 22.1025 143.655 22.7482 144.254 23.3036C148.427 27.1639 150.168 29.6287 152.774 35.2456C153.094 35.933 153.415 36.662 153.484 36.8425C153.554 37.023 153.554 36.7939 153.484 36.294C153.435 35.8635 153.324 35.44 153.164 35.0373C153.073 34.836 152.753 34.1 152.474 33.4196C151.143 30.2605 149.653 27.1778 148.009 24.1715C146.838 22.0261 143.885 17.777 143.515 17.7075C143.313 17.6659 142.965 17.895 142.763 18.2144Z" fill="#2C2C2C"/>
<path d="M165.495 18.0547C164.993 18.624 162.311 22.8037 161.392 24.4284C159.789 27.3514 158.347 30.3508 157.058 33.4266C156.787 34.1139 156.459 34.843 156.369 35.0443C156.209 35.447 156.097 35.8705 156.048 36.301C155.979 36.8009 155.979 37.03 156.048 36.8287C156.118 36.5995 156.78 35.1832 157.539 33.6349C159.35 29.6843 161.991 26.1642 165.279 23.3106C166.588 22.0747 167.132 21.0263 167.132 19.6794C167.132 18.7421 166.581 17.6729 166.101 17.6729C165.857 17.7353 165.641 17.8742 165.488 18.0617L165.495 18.0547Z" fill="#2C2C2C"/>
<path d="M138.298 22.2968C137.846 23.0675 137.755 23.9909 138.048 24.831C138.389 25.8794 140.061 27.3653 142.193 28.4831C147.877 31.4547 149.911 33.5307 152.684 39.1267C153.436 40.7028 154.084 41.7998 154.084 41.5707C154.084 40.7514 152.113 36.6828 150.531 34.218C148.65 31.4408 146.512 28.8511 144.136 26.4765C142.506 24.9005 139.002 21.9983 138.703 21.9983C138.535 22.0538 138.396 22.158 138.291 22.2968H138.298Z" fill="#2C2C2C"/>
<path d="M168.86 23.4424C163.935 27.3722 159.351 32.8988 157.018 37.759C155.757 40.3626 155.457 41.0916 155.457 41.5707C155.457 41.7998 156.098 40.7028 156.857 39.1267C159.63 33.5307 161.671 31.4547 167.349 28.4831C170.49 26.8376 171.974 25.0324 171.633 23.3244C171.494 22.6162 171.104 21.9983 170.832 21.9983C170.142 22.4357 169.487 22.9148 168.86 23.4355V23.4424Z" fill="#2C2C2C"/>
<path d="M135.114 27.3931C134.773 28.6915 135.254 30.0592 136.326 30.8646C137.037 31.4826 137.978 31.9339 139.858 32.5796C142.248 33.2947 144.533 34.3361 146.644 35.6623C149.242 37.4674 151.339 39.8906 152.739 42.7164C152.92 43.126 153.129 43.4732 153.22 43.4732C153.31 43.4732 153.401 43.7023 153.45 43.9731C153.499 44.2716 153.589 44.3827 153.652 44.2716C153.854 43.9731 152.69 41.4597 151.499 39.592C148.406 34.7527 143.641 30.6633 137.364 27.4903C135.442 26.5322 135.393 26.5322 135.121 27.4001L135.114 27.3931Z" fill="#2C2C2C"/>
<path d="M172.643 27.282C166.296 30.3439 161.211 34.6139 158.048 39.592C156.857 41.4666 155.686 43.98 155.895 44.2716C155.965 44.3827 156.056 44.2716 156.097 43.9731C156.146 43.7023 156.237 43.4732 156.327 43.4732C156.418 43.4732 156.627 43.133 156.808 42.7164C158.208 39.8906 160.305 37.4605 162.904 35.6623C165.014 34.3361 167.292 33.2947 169.689 32.5796C171.542 31.9408 172.51 31.4826 173.221 30.8646C174.412 29.8162 174.844 28.6012 174.412 27.3931L174.14 26.5669L172.65 27.2751L172.643 27.282Z" fill="#2C2C2C"/>
<path d="M153.443 31.2533C153.443 31.6213 153.492 31.7532 153.555 31.5241C153.604 31.2949 153.604 31.0658 153.555 30.8367C153.485 30.6978 153.443 30.8575 153.443 31.2463V31.2533Z" fill="#2C2C2C"/>
<path d="M155.965 31.2533C155.965 31.6213 156.014 31.7532 156.076 31.5241C156.125 31.2949 156.125 31.0658 156.076 30.8367C156.007 30.6978 155.965 30.8575 155.965 31.2463V31.2533Z" fill="#2C2C2C"/>
<path d="M133.602 31.9615C133.407 32.9682 133.435 34.0027 133.693 34.9956C134.131 36.3148 135.016 37.4395 136.187 38.1894C137.329 38.9184 137.789 39.0781 141.021 39.946C146.246 41.3623 148.649 42.501 151.011 44.7644C152.147 45.9586 153.129 47.2847 153.944 48.715C154.014 48.8955 154.034 48.7358 153.993 48.347C153.811 47.2292 152.342 44.2159 151.15 42.5704C148.747 39.21 145.466 36.6341 140.68 34.3291C138.458 33.2529 136.159 32.3434 133.804 31.5935C133.755 31.5935 133.665 31.7532 133.595 31.9615H133.602Z" fill="#2C2C2C"/>
<path d="M173.332 32.4198C164.742 35.5233 159.169 40.0224 156.376 46.0767C156.035 46.8127 155.756 47.5764 155.554 48.361C155.505 48.7498 155.533 48.9095 155.603 48.729C156.418 47.2987 157.4 45.9726 158.535 44.7784C160.897 42.515 163.3 41.3763 168.525 39.9599C171.758 39.092 172.217 38.9324 173.36 38.2033C174.537 37.4535 175.415 36.3287 175.854 35.0095C176.244 33.7043 176.105 31.5866 175.652 31.6283C175.582 31.6283 174.53 31.9893 173.339 32.4267L173.332 32.4198Z" fill="#2C2C2C"/>
<path d="M153.875 44.9728C153.875 45.2228 153.945 45.2922 154.014 45.1117C154.077 44.9728 154.07 44.8062 153.993 44.6812C153.924 44.5909 153.854 44.7229 153.875 44.9798V44.9728Z" fill="#2C2C2C"/>
<path d="M155.484 44.9728C155.484 45.2228 155.554 45.2922 155.624 45.1117C155.686 44.9728 155.679 44.8062 155.603 44.6812C155.533 44.5909 155.463 44.7229 155.484 44.9798V44.9728Z" fill="#2C2C2C"/>
<path d="M257.026 62.1221C256.315 63.1705 256.225 63.7398 256.824 63.3996C257.709 62.7469 258.524 62.004 259.255 61.1848C259.255 61.1153 258.914 61.0459 258.524 61.0459C257.883 61.0737 257.653 61.2334 257.033 62.1221H257.026Z" fill="#2C2C2C"/>
<path d="M50.2919 64.1772C48.6897 64.9965 48 65.9824 48 67.489C48 69.5234 49.0101 70.7523 52.8138 73.4462C56.2969 75.8901 57.2165 77.8064 55.7675 79.6324C54.5066 81.2293 51.6922 81.3196 48.9614 79.8337C47.9094 79.2436 47.7701 79.4241 48.3901 80.4725C48.8011 81.1599 49.2818 81.3612 51.4623 81.8403C52.3888 82.0555 53.3502 82.0277 54.2558 81.75C57.3976 81.0418 58.77 79.6463 58.77 77.1399C58.77 74.8556 57.6484 73.46 53.385 70.5162C50.5636 68.5513 50.1805 68.0931 50.1805 66.8156C50.1805 65.9477 50.2919 65.6977 50.8423 65.2603C51.9639 64.3716 53.8239 64.3022 55.8581 65.059C56.8403 65.427 56.9379 65.2187 56.1576 64.3091C55.6282 63.712 55.468 63.6704 53.5661 63.601C51.7549 63.5593 51.4344 63.601 50.2919 64.1703V64.1772Z" fill="#2C2C2C"/>
<path d="M69.5814 64.2742C65.2066 65.1213 62.2946 69.6829 63.0539 74.5083C63.674 78.4102 66.147 81.0625 69.881 81.8123C70.8215 82.0692 71.8176 82.0345 72.7442 81.7221C75.9557 81.0416 78.4427 78.5005 79.0418 75.2859C79.4528 73.8278 79.4598 72.2934 79.0627 70.8354C78.2128 67.2945 75.8094 64.8783 72.5073 64.2604C71.546 64.0035 70.5289 64.0104 69.5745 64.2812L69.5814 64.2742ZM73.1552 65.6004C75.468 66.7876 76.7289 69.4815 76.708 73.203C76.6871 76.6259 75.3078 79.3892 73.0855 80.4445C70.1945 81.7915 67.2616 80.1668 66.0286 76.494C65.2762 74.2514 65.5967 69.9189 66.6486 67.9957C68.0001 65.524 70.912 64.4548 73.1622 65.5934L73.1552 65.6004Z" fill="#2C2C2C"/>
<path d="M128.259 64.8644C126.928 68.0582 121.683 80.8959 121.592 81.1944C121.522 81.493 121.613 81.604 121.961 81.604C122.421 81.604 122.463 81.5138 124.211 77.3133L124.511 76.5842H131.108L132.139 79.049L133.149 81.493L134.459 81.5624C135.17 81.611 135.769 81.5416 135.769 81.4235C135.476 80.4237 135.1 79.4586 134.647 78.5213C134.417 78.0214 133.024 74.5916 131.505 70.9396C130.014 67.2667 128.733 64.2534 128.663 64.2534C128.593 64.2534 128.433 64.5242 128.273 64.8713L128.259 64.8644ZM129.311 72.2171C129.764 73.2377 130.154 74.2792 130.481 75.3484C130.481 75.5983 129.931 75.6678 127.869 75.6678C126.949 75.7233 126.023 75.6678 125.117 75.4872C125.793 73.3696 126.594 71.2937 127.52 69.2802C127.82 68.5928 127.799 68.5234 129.311 72.224V72.2171Z" fill="#2C2C2C"/>
<path d="M184.443 64.5451C182.36 65.3921 181.58 66.3294 181.58 67.9957C181.58 69.9398 182.312 70.8979 185.593 73.2724C188.964 75.7164 189.605 76.5357 189.605 78.2298C189.584 79.3476 189.334 79.7572 188.233 80.4446C186.833 81.2916 184.499 81.0347 182.736 79.8544C181.664 79.1462 181.566 79.1948 181.977 80.2224C182.367 81.2291 182.388 81.25 184.499 81.729C187.871 82.5067 191.305 80.9514 191.876 78.4242C192.448 75.8969 191.284 74.1542 187.021 71.1409C183.788 68.8775 183.057 67.718 184.018 66.3711C184.868 65.163 186.7 64.8644 188.693 65.6212C189.313 65.8712 189.884 65.9892 189.933 65.892C190.002 65.8017 189.793 65.4338 189.501 65.0449C188.999 64.427 188.881 64.3854 187.049 64.3368C186.178 64.2743 185.307 64.3507 184.457 64.5659L184.443 64.5451Z" fill="#2C2C2C"/>
<path d="M84.8867 73.0434V81.6528L88.6207 81.5625C91.8949 81.4931 92.4731 81.4028 93.5459 80.9446C97.5794 79.1394 97.4401 74.1404 93.316 72.3561C92.7657 72.1061 92.3059 71.8978 92.285 71.8978C92.5567 71.4951 92.8771 71.1272 93.2464 70.8008C94.2286 69.7733 94.2774 69.6622 94.2774 68.4055C94.3889 67.6209 94.1381 66.8294 93.5877 66.2601C92.4174 64.8437 91.7974 64.6424 88.1609 64.5243L84.8867 64.4341V73.0434ZM89.9025 65.5311C91.4142 65.8505 92.1248 67.2182 91.8531 69.3428C91.7904 70.0649 91.4699 70.7384 90.9335 71.2382C90.2439 71.8978 90.2021 71.9881 90.5922 72.127C91.0938 72.3422 91.5605 72.613 91.9924 72.9462C94.1032 74.4737 94.4446 77.8341 92.6333 79.4518C91.7138 80.2989 91.1704 80.4586 89.2616 80.4586H87.4085V73.0851C87.4085 69.0234 87.4782 65.6213 87.5688 65.5519C87.7499 65.3436 88.969 65.3436 89.9025 65.5311Z" fill="#2C2C2C"/>
<path d="M102.303 73.0435V81.6042H104.825V72.4672H113.992V81.625L115.323 81.5556L116.633 81.4862V64.5869L115.323 64.5174L114.013 64.448L113.944 67.9403L113.874 71.4327H104.936L104.866 67.9403L104.797 64.4688H102.31V73.0365L102.303 73.0435Z" fill="#2C2C2C"/>
<path d="M145.836 73.0157V81.6042H148.358V73.6128C148.358 67.3779 148.427 65.6213 148.657 65.6005C148.797 65.6005 149.667 65.6005 150.538 65.6213C153.192 65.6699 154.551 66.9683 154.551 69.4608C154.662 71.2799 153.603 72.9671 151.918 73.6614C151.569 73.828 151.235 74.0085 150.907 74.2099C151.695 75.2583 152.545 76.2581 153.45 77.2023C154.892 78.7992 156.362 80.4655 156.724 80.8543C157.038 81.3334 157.574 81.6181 158.146 81.6042C158.557 81.6042 158.898 81.5348 158.898 81.4653C158.898 81.3959 157.728 80.0281 156.306 78.4312C154.885 76.8552 153.485 75.2583 153.213 74.8903L152.712 74.2307L153.743 73.8627C157.247 72.6269 158.459 68.6554 156.056 66.2601C154.683 64.9131 153.624 64.6424 149.57 64.5243L145.836 64.4341V73.0226V73.0157Z" fill="#2C2C2C"/>
<path d="M165.307 73.0434V81.6041H170.371C175.067 81.6041 175.415 81.5833 175.345 81.2153C175.276 80.8473 174.885 80.8057 171.542 80.7363L167.808 80.6877L167.877 77.8757L167.947 75.0916L170.929 75.0221C173.75 74.9735 174.46 74.793 174.112 74.2445C173.053 74.0779 171.98 74.0154 170.908 74.064H167.835L167.884 69.8149L167.954 65.5657L171.388 65.5866C174.892 65.6074 175.582 65.4755 175.331 64.8367C175.192 64.5174 174.572 64.4688 170.246 64.4688H165.314V73.0295L165.307 73.0434Z" fill="#2C2C2C"/>
<path d="M197.958 64.7534C197.888 64.9131 197.819 67.0585 197.798 69.5025L197.728 73.953L196.627 74.0224C195.736 74.0918 195.527 74.1612 195.596 74.4806C195.645 74.7514 195.966 74.8903 196.697 74.9805L197.728 75.0916L197.798 78.334L197.867 81.5972H202.904C207.599 81.5972 207.941 81.5764 207.878 81.1876C207.808 80.8474 207.397 80.778 204.144 80.6877L200.48 80.5766V75.0916L203.643 75.0222C206.575 74.9736 206.784 74.9319 206.784 74.5223C206.784 74.1126 206.582 74.064 203.643 74.0224L200.48 73.953L200.41 69.7733L200.361 65.6213H203.775C205.036 65.6491 206.297 65.6005 207.551 65.4825C207.774 65.3783 207.913 65.1561 207.92 64.9131C207.92 64.5035 207.669 64.4827 202.995 64.4827C199.268 64.4827 198.028 64.559 197.958 64.7604V64.7534Z" fill="#2C2C2C"/>
<path d="M214.113 73.0157V81.6042H216.635V65.3228L218.467 65.4617C220.55 65.6213 221.421 65.9893 222.18 67.0377C222.612 67.6765 222.71 68.0653 222.71 69.5511C222.71 71.148 222.661 71.3563 221.999 72.1756C221.47 72.7657 220.843 73.2587 220.146 73.6336L219.004 74.2307L220.056 75.3485C221.686 77.0843 224.66 80.4169 225.162 81.0349C225.448 81.4306 225.914 81.6458 226.402 81.6042C226.834 81.6042 227.182 81.5556 227.182 81.4931C227.182 81.4306 225.782 79.8059 224.089 77.8827C222.396 75.9595 220.996 74.3418 220.996 74.2307C220.996 74.1404 221.156 74.071 221.337 74.071C222.118 74.071 223.992 72.8837 224.639 72.0159C225.9 70.2801 225.782 67.6973 224.389 66.3504C222.926 64.9132 221.957 64.6354 217.861 64.5243L214.127 64.4341V73.0226L214.113 73.0157Z" fill="#2C2C2C"/>
<path d="M231.529 64.6145C231.529 64.7533 236.984 78.0423 237.715 79.66C237.931 80.1321 238.119 80.6112 238.287 81.0972C238.377 81.3958 238.537 81.5971 238.677 81.5555C238.928 81.4652 245.713 65.2949 245.734 64.7464C245.72 64.5867 245.573 64.4617 245.413 64.4756C245.211 64.5034 245.023 64.6006 244.884 64.7464C244.744 64.9061 243.532 67.7388 242.181 71.0507C240.808 74.3417 239.589 77.0078 239.478 76.9661C239.366 76.9453 238.168 74.2236 236.824 70.9604C235.451 67.6694 234.281 64.8853 234.19 64.7256C234.03 64.4756 231.529 64.3576 231.529 64.6075V64.6145Z" fill="#2C2C2C"/>
<path d="M251.919 73.0433V81.604H256.956C261.839 81.604 261.992 81.5832 261.992 81.1458C261.992 80.7084 261.832 80.6876 258.217 80.6876H254.413L254.483 77.9034L254.552 75.0915L257.645 74.9804C260.327 74.8901 260.739 74.8207 260.808 74.4805C260.878 74.1125 260.578 74.0708 257.715 74.0222L254.552 73.9528L254.483 69.7731L254.434 65.6142H261.992V64.4756H251.912V73.0363L251.919 73.0433Z" fill="#2C2C2C"/>
</g>
<defs>
<clipPath id="clip0_1483_1066">
<rect width="214" height="68" fill="white" transform="translate(48 14)"/>
</clipPath>
</defs>
</svg>
