<svg width="310" height="103" viewBox="0 0 310 103" fill="none" xmlns="http://www.w3.org/2000/svg">
<rect width="310" height="103" fill="white"/>
<path d="M171.777 76.1011C180.982 76.1011 185.609 69.0804 185.609 61.9121V18H180.408V61.0919C180.408 67.7845 177.635 71.623 171.859 71.623C166.084 71.623 163.13 68.0306 163.13 60.9443V18H157.929V61.6004C157.929 68.8508 162.375 76.1175 171.761 76.1175L171.777 76.1011Z" fill="#2C2C2C"/>
<path d="M103.995 85.2214C111.871 85.2214 116.482 81.383 116.482 76.1011C116.482 65.5701 97.793 70.081 97.793 64.5859C97.793 62.7651 99.8932 61.4036 103.569 61.4036C106.67 61.4036 109.951 62.2402 113.381 64.4875L115.547 60.567C111.691 58.4018 108.327 57.0567 104.241 56.9747C97.8094 56.7942 92.69 59.8289 92.69 64.9796C92.69 74.9037 111.379 70.9176 111.379 76.4292C111.379 78.5288 108.704 80.8745 103.585 80.8745C99.401 80.8745 96.8741 79.2834 93.773 76.708L91 80.3004C93.5925 83.3022 98.5478 85.2214 103.995 85.2214Z" fill="#2C2C2C"/>
<path d="M136.992 57.0074C128.542 57.0074 122.159 62.9455 122.159 71.1308C122.159 79.3162 128.69 85.2542 137.074 85.2542C145.459 85.2542 151.907 79.4146 151.907 71.1308C151.907 62.8471 145.442 57.0074 136.992 57.0074ZM137.091 80.7925C130.806 80.7925 127.607 76.708 127.607 71.2949C127.607 65.8817 130.79 61.5184 137.091 61.5184C143.391 61.5184 146.476 65.8653 146.476 71.2949C146.476 76.7244 143.293 80.7925 137.091 80.7925Z" fill="#2C2C2C"/>
<path d="M185.576 80.2184H157.929V84.8114H185.576V80.2184Z" fill="#2C2C2C"/>
<path d="M219 84.8113V80.2184H199.655V57.4011H194.453V84.8113H219Z" fill="#2C2C2C"/>
</svg>
