<svg width="310" height="103" viewBox="0 0 310 103" fill="none" xmlns="http://www.w3.org/2000/svg">
<rect width="310" height="103" fill="white"/>
<path d="M97 66.4109H99.5277L105.334 77.2761L111.179 66.4109H113.667L105.334 81.6848L97 66.4109Z" fill="#2C2C2C"/>
<path d="M137.675 79.2978V81.3522H123.838V66.4109H137.675V68.4652H126.102V72.5739H134.285V74.6283H126.102V79.2978H137.675Z" fill="#2C2C2C"/>
<path d="M157.995 75.2998L159.845 77.1324C161.728 78.9977 163.314 79.5585 165.348 79.5194V81.5737C162.669 81.5737 160.635 81.2346 158.41 78.9585L155.171 75.6716H151.63V81.352H149.365V66.4107H156.001C158.588 66.3716 160.714 68.4194 160.747 70.9824V71.1129C160.773 72.9324 159.687 74.589 157.995 75.2933M151.623 68.4585V73.6107H155.507C157.166 73.6107 158.482 72.8281 158.482 71.0738C158.482 69.4694 157.311 68.4585 155.77 68.4585H151.623Z" fill="#2C2C2C"/>
<path d="M172.701 66.4108H180.126C184.385 66.4108 187.855 69.6586 187.855 73.8782C187.855 78.0978 184.385 81.3456 180.126 81.3456H172.701V66.4043V66.4108ZM174.966 79.2912H180.133C183.154 79.2912 185.597 76.8652 185.597 73.8782C185.597 70.8913 183.148 68.4652 180.133 68.4652H174.966V79.2978V79.2912Z" fill="#2C2C2C"/>
<path d="M213.001 79.2978V81.3522H199.164V66.4109H213.001V68.4652H201.429V72.5739H209.611V74.6283H201.429V79.2978H213.001Z" fill="#2C2C2C"/>
<path d="M154.704 37.1803L147.463 41.6934L154.697 39.1499L162.281 41.3086C162.708 40.5325 163.117 39.7173 163.498 38.876L154.71 34.9434V37.1868H154.704V37.1803Z" fill="#2C2C2C"/>
<path d="M154.702 41.9608L149.41 45.3782C149.35 45.2999 149.469 45.4564 149.41 45.3782C151.2 44.9608 154.696 43.9303 154.696 43.9303L159.705 45.3586C160.284 44.5499 160.877 43.676 161.449 42.7369L154.709 39.7173V41.9608H154.702Z" fill="#2C2C2C"/>
<path d="M154.703 46.7413L152.301 49.0891C152.34 49.1348 152.38 49.0435 152.419 49.0891L154.697 48.7108L156.573 49.213C157.264 48.45 158.1 47.4848 158.976 46.3304L154.703 44.4978V46.7413Z" fill="#2C2C2C"/>
<path d="M154.703 51.1238C154.789 51.0455 155.276 50.5955 156.013 49.8195L154.71 49.2847V51.1173H154.703V51.1238Z" fill="#2C2C2C"/>
<path d="M154.702 32.3999L145.645 38.1064L154.689 34.3629L164.175 37.239C164.464 36.489 164.721 35.7195 164.952 34.9303L154.702 30.1499V32.3934V32.3999Z" fill="#2C2C2C"/>
<path d="M154.704 13.2717L148.424 18.4108L154.697 15.2478L163.61 18.45C163.024 17.1391 162.359 15.8673 161.616 14.6413L154.704 11.0413V13.2782V13.2717Z" fill="#2C2C2C"/>
<path d="M154.703 18.0587L144.842 24.9587C144.842 24.9587 154.696 20.0348 154.696 20.0282L165.353 23.6608C165.136 22.6761 164.86 21.7108 164.524 20.7587L154.703 15.8152V18.0587Z" fill="#2C2C2C"/>
<path d="M154.696 10.4674L160.489 12.8674C158.817 10.3761 156.881 8.07391 154.703 6V8.4913L150.424 12.4304L154.689 10.4609L154.696 10.4674Z" fill="#2C2C2C"/>
<path d="M154.703 27.6195L144.203 34.3565L154.696 29.5956L165.465 32.863C165.617 32.1065 165.728 31.3369 165.807 30.5608L154.709 25.3826V27.626" fill="#2C2C2C"/>
<path d="M154.703 22.8392L144.092 29.4587L154.696 24.8087L165.907 28.4153C165.907 27.587 165.848 26.7653 165.749 25.9435L154.71 20.5957V22.8392H154.703Z" fill="#2C2C2C"/>
<path d="M161.55 93.0261C162.024 92.9022 162.353 92.4783 162.353 91.9892C162.353 91.174 161.596 90.8218 160.642 90.8218H159.549V95.9087H160.977C162.057 95.9087 162.992 95.4783 162.992 94.4935C162.992 93.7174 162.412 93.1826 161.55 93.0196M160.911 95.6218H160.306V91.1022H160.701C161.412 91.1022 161.649 91.4413 161.649 91.9566C161.649 92.0413 161.708 92.8826 161.01 93.0326C161.3 93.1044 161.563 93.2348 161.787 93.4305C162.07 93.6848 162.215 94.0435 162.195 94.4218C162.195 95.1326 161.8 95.6218 160.911 95.6218Z" fill="#2C2C2C"/>
<path d="M148.445 95.7393C148.813 95.9153 149.215 96.0001 149.623 96.0001C150.288 96.0001 151.459 95.7653 151.459 94.611C151.459 93.8023 150.867 93.3458 149.899 92.6936C149.452 92.374 148.84 92.0545 148.84 91.5392C148.84 91.1088 149.241 90.8479 149.801 90.8479C150.196 90.8479 150.577 90.9719 150.907 91.1806L150.63 90.7045C150.367 90.6066 150.09 90.561 149.807 90.5675C149.063 90.5675 148.201 90.8806 148.201 91.7545C148.201 92.4458 148.754 92.8371 149.662 93.4827C150.084 93.7827 150.755 94.2523 150.755 94.8392C150.755 95.3871 150.327 95.7262 149.636 95.7262C149.07 95.7132 148.524 95.4979 148.096 95.1262L148.451 95.7523V95.7393H148.445Z" fill="#2C2C2C"/>
<path d="M155.278 96C153.902 96 152.836 94.9109 152.836 93.3653C152.836 91.8196 153.902 90.7305 155.278 90.7305C156.654 90.7305 157.714 91.8522 157.714 93.3653C157.714 94.8783 156.647 96 155.278 96ZM156.963 93.3653C156.963 91.9892 156.285 91.0174 155.278 91.0174C154.271 91.0174 153.593 91.9892 153.593 93.3653C153.593 94.7413 154.264 95.7131 155.278 95.7131C156.292 95.7131 156.963 94.7479 156.963 93.3653Z" fill="#2C2C2C"/>
<path d="M173.637 94.4152H171.655L171.036 95.9087H170.74L172.893 90.7043L175.045 95.9087H174.255L173.637 94.4152ZM171.767 94.1283H173.518L172.643 92.0087L171.767 94.1283Z" fill="#2C2C2C"/>
<path d="M168.389 90.8218V92.9153H165.638V90.8218H164.881V95.9087H165.638V93.1957H168.389V95.9087H169.146V90.8218H168.389Z" fill="#2C2C2C"/>
<path d="M136.964 93.0261C137.438 92.9022 137.767 92.4783 137.767 91.9892C137.767 91.174 137.01 90.8218 136.056 90.8218H134.963V95.9087H136.391C137.471 95.9087 138.406 95.4783 138.406 94.4935C138.406 93.7174 137.826 93.1826 136.964 93.0196M136.326 95.6218H135.72V91.1022H136.115C136.826 91.1022 137.063 91.4413 137.063 91.9566C137.063 92.0413 137.122 92.8826 136.424 93.0326C136.714 93.1044 136.977 93.2348 137.201 93.4305C137.484 93.6848 137.629 94.0435 137.609 94.4218C137.609 95.1326 137.214 95.6218 136.326 95.6218Z" fill="#2C2C2C"/>
<path d="M139.979 90.8284H140.841L142.302 93.2805L143.75 90.8284H144.08L142.401 93.7044V95.9153H141.651V93.6131L139.979 90.8284Z" fill="#2C2C2C"/>
</svg>
