<svg width="310" height="103" viewBox="0 0 310 103" fill="none" xmlns="http://www.w3.org/2000/svg">
<rect width="310" height="103" fill="white"/>
<path d="M66.2436 34.3121V34.0995C66.8847 33.6742 67.3834 33.1072 67.6683 32.3984C67.9532 31.7605 68.0957 31.0518 68.0957 30.4139C68.0957 28.6419 67.4546 27.437 66.5286 26.5865C65.1752 25.3816 63.2519 24.9563 61.1149 24.9563H51V45.8652H61.3999C64.4628 45.8652 66.0299 45.2273 67.3834 43.9515C68.5943 42.8174 69.3066 41.1872 69.3066 39.3444C69.3066 38.1395 69.0217 37.1472 68.4518 36.2258C67.9532 35.3753 67.2409 34.7374 66.2436 34.3121ZM55.1315 28.6419H61.2574C62.2547 28.6419 63.0382 28.8546 63.3944 29.2089C63.8218 29.4925 64.0355 30.0595 64.0355 30.7683C64.0355 31.477 63.8218 31.9732 63.4656 32.3276C62.967 32.6819 62.3971 32.8946 61.756 32.8946H55.1315V28.6419ZM64.3916 41.329C63.6793 41.896 62.7533 42.1086 61.6136 42.1086H55.1315V36.4384H61.9697C63.4656 36.4384 64.1067 36.8637 64.6053 37.4307C65.0327 37.856 65.2464 38.5648 65.2464 39.2027C65.2464 40.1241 64.9615 40.9037 64.3916 41.329Z" fill="#2C2C2C"/>
<path d="M79.7067 39.1814V24.9563H75.6465V45.7943H79.3505L90.6764 31.4062V45.7943H94.6654V24.9563H90.8901L79.7067 39.1814Z" fill="#2C2C2C"/>
<path d="M128.572 24.9563H124.369V42.0378H116.961V24.9563H112.758V42.0378H105.421V24.9563H101.29V45.7943H128.572V24.9563Z" fill="#2C2C2C"/>
<path d="M139.399 36.5802H149.656V45.7943H153.788V24.9563H149.656V32.8946H139.399V24.9563H135.196V45.7943H139.399V36.5802Z" fill="#2C2C2C"/>
<path d="M177.295 41.9669H164.616V36.7928H175.514V33.0363H164.616V28.7837H176.796V24.9563H160.413V45.7234H177.295V41.9669Z" fill="#2C2C2C"/>
<path d="M198.806 34.3121V34.0995C199.447 33.6742 199.946 33.1072 200.231 32.3984C200.516 31.7605 200.658 31.0518 200.658 30.4139C200.658 28.6419 200.017 27.437 199.091 26.5865C197.738 25.3816 195.814 24.9563 193.677 24.9563H183.562V45.8652H193.962C197.025 45.8652 198.592 45.2273 199.946 43.9515C201.157 42.8174 201.869 41.1872 201.869 39.3444C201.869 38.1395 201.584 37.1472 201.014 36.2258C200.516 35.3753 199.803 34.7374 198.806 34.3121ZM187.694 28.6419H193.82C194.817 28.6419 195.601 28.8546 195.957 29.2089C196.384 29.4925 196.598 30.0595 196.598 30.7683C196.598 31.477 196.384 31.9732 196.028 32.3276C195.529 32.6819 194.96 32.8946 194.319 32.8946H187.694V28.6419ZM196.954 41.329C196.242 41.896 195.316 42.1086 194.176 42.1086H187.694V36.4384H194.532C196.028 36.4384 196.669 36.8637 197.168 37.4307C197.595 37.856 197.809 38.5648 197.809 39.2027C197.809 40.1241 197.524 40.9037 196.954 41.329Z" fill="#2C2C2C"/>
<path d="M217.825 30.3431H212.34V24.8855H208.138V45.7235H217.825C220.318 45.7235 222.384 44.9438 223.809 43.5263C225.233 42.1087 226.088 40.2659 226.088 37.9978C226.088 35.9424 225.305 34.1704 224.022 32.8238C222.527 31.2645 220.532 30.3431 217.825 30.3431ZM220.959 40.8329C220.247 41.5417 219.392 41.967 217.896 41.967H212.34V34.0996H217.683C219.321 34.0996 220.318 34.5957 220.959 35.3045C221.601 36.0133 221.885 36.9347 221.957 37.9978C221.957 39.061 221.601 40.1242 220.959 40.8329Z" fill="#2C2C2C"/>
<path d="M232.285 24.9563H228.153V45.7943H232.285V24.9563Z" fill="#2C2C2C"/>
<path d="M254.225 24.9563L242.97 39.2736V24.9563H238.91V45.7943H242.614L254.011 31.4062V45.7943H258V24.9563H254.225Z" fill="#2C2C2C"/>
<path d="M245.534 22.4049C246.46 23.1136 247.671 23.468 248.811 23.468C250.022 23.468 251.304 23.1136 252.23 22.4049C253.014 21.8378 253.797 21.0582 254.225 19.995L251.375 18.5066C251.162 19.0027 250.806 19.428 250.449 19.7115C249.951 20.1368 249.381 20.2785 248.811 20.2785C248.17 20.2785 247.6 20.0659 247.173 19.6406C246.817 19.2862 246.532 18.9319 246.318 18.5066L243.469 19.995C243.896 21.0582 244.751 21.8378 245.534 22.4049Z" fill="#2C2C2C"/>
<path d="M126.648 63.0177C128.999 63.0177 130.851 63.8683 132.774 65.6402L135.267 62.8051C132.632 60.3244 130.21 59.2612 126.648 59.2612C123.372 59.2612 120.594 60.4661 118.67 62.3798C116.747 64.3644 115.607 66.9869 115.607 70.0346C115.607 73.0823 116.747 75.9883 118.742 77.902C120.736 79.8157 123.372 80.8789 126.648 80.8789C130.21 80.8789 132.632 79.8157 135.267 77.1932L132.774 74.429C130.851 76.201 128.999 77.0515 126.648 77.0515C124.796 77.0515 123.016 76.3427 121.662 74.996C120.522 73.9329 119.739 72.1609 119.739 70.0346C119.739 68.05 120.594 66.1363 121.805 64.9314C123.087 63.7265 124.796 63.0177 126.648 63.0177Z" fill="#2C2C2C"/>
<path d="M147.662 59.6865L138.401 80.5245H142.818L144.527 76.8389H154.998L156.708 80.5245H161.196L151.935 59.6865H147.662ZM146.094 73.0115L149.585 63.9392H149.87L153.431 73.0115H146.094Z" fill="#2C2C2C"/>
<path d="M185.058 59.6865H170.029L168.176 72.8697C167.963 74.0038 167.607 75.0669 167.108 75.7048C166.681 76.201 165.968 76.768 164.188 76.768V84.4936H167.749L168.105 80.5245H183.064L183.491 84.4936H187.053V76.768H185.058V59.6865ZM180.927 76.8389H171.168C171.881 75.7048 172.023 74.9252 172.165 73.7203L173.661 63.443V63.5139H180.927V76.8389Z" fill="#2C2C2C"/>
</svg>
