<svg width="310" height="103" viewBox="0 0 310 103" fill="none" xmlns="http://www.w3.org/2000/svg">
<rect width="310" height="103" fill="white"/>
<path d="M35.53 47.43V32L25.27 39.84L15 32V47.43L25.27 55.26L35.53 47.43V62.85L45.8 70.69L56.06 62.85V47.43L45.8 55.26L35.53 47.43Z" fill="#2C2C2C"/>
<path d="M95.2609 46.32L90.6809 32H86.4909H86.0109H81.8509L77.2109 46.32L72.6309 32H67.9609L74.6309 52.4H79.7009L86.2509 32.74L92.6809 52.4H97.7509L104.541 32H99.9009L95.2609 46.32Z" fill="#2C2C2C"/>
<path d="M122.5 32H114.25V52.4H122.5C125.67 52.4 128.11 51.52 129.82 49.76C131.53 48 132.38 45.48 132.38 42.2C132.38 38.92 131.53 36.4 129.82 34.64C128.11 32.88 125.67 32 122.5 32ZM121.96 48.67H118.69V35.72H121.96C123.95 35.72 125.43 36.28 126.41 37.4C127.39 38.52 127.89 40.12 127.89 42.2C127.89 46.52 125.91 48.67 121.96 48.67Z" fill="#2C2C2C"/>
<path d="M145.02 47.8099C144.45 49.2399 143.44 49.9599 142.01 49.9599C140.92 49.9599 140.08 49.6299 139.48 48.9599C138.88 48.2899 138.57 47.3199 138.55 46.0399H149.15V45.6399C149.15 43.0399 148.49 40.9899 147.17 39.4699C145.85 37.9499 144.08 37.1899 141.84 37.1899C139.6 37.1899 137.91 37.9299 136.51 39.4199C135.12 40.9099 134.42 42.7999 134.42 45.0899C134.42 47.3799 135.11 49.2899 136.5 50.6999C137.88 52.1099 139.71 52.8199 141.98 52.8199C143.68 52.8199 145.15 52.3799 146.38 51.4999C147.61 50.6199 148.46 49.3899 148.92 47.7999H145.02V47.8099ZM139.61 41.0199C140.2 40.4299 140.95 40.1299 141.84 40.1299C142.8 40.1299 143.54 40.4399 144.08 41.0599C144.61 41.6799 144.93 42.4799 145.02 43.4499H138.55C138.67 42.4199 139.02 41.6099 139.61 41.0199Z" fill="#2C2C2C"/>
<path d="M164.701 37.6101H160.661L157.511 47.7001L154.351 37.6101H150.061L155.131 52.4001H159.681L164.701 37.6101Z" fill="#2C2C2C"/>
<path d="M173.17 37.1899C171.01 37.1899 169.24 37.9299 167.84 39.4199C166.44 40.9099 165.75 42.7999 165.75 45.0899C165.75 47.3799 166.44 49.2899 167.83 50.6999C169.21 52.1099 171.04 52.8199 173.32 52.8199C175.02 52.8199 176.49 52.3799 177.72 51.4999C178.95 50.6199 179.8 49.3899 180.26 47.7999H176.36C175.79 49.2299 174.78 49.9499 173.35 49.9499C172.26 49.9499 171.42 49.6199 170.82 48.9499C170.22 48.2799 169.91 47.3099 169.89 46.0299H180.49V45.6299C180.49 43.0299 179.83 40.9699 178.51 39.4599C177.19 37.9399 175.42 37.1799 173.18 37.1799L173.17 37.1899ZM169.88 43.4599C169.99 42.4299 170.35 41.6199 170.94 41.0299C171.53 40.4399 172.28 40.1399 173.17 40.1399C174.13 40.1399 174.87 40.4499 175.4 41.0699C175.93 41.6899 176.25 42.4899 176.35 43.4599H169.88Z" fill="#2C2C2C"/>
<path d="M186.98 32H182.91V52.4H186.98V32Z" fill="#2C2C2C"/>
<path d="M197.47 37.1799C195.16 37.1799 193.3 37.8999 191.88 39.3299C190.47 40.7599 189.76 42.6499 189.76 44.9999C189.76 47.3499 190.46 49.2699 191.85 50.6999C193.24 52.1299 195.1 52.8499 197.41 52.8499C199.72 52.8499 201.57 52.1399 202.95 50.6999C204.33 49.2699 205.03 47.3699 205.03 44.9999C205.03 42.6299 204.34 40.7599 202.95 39.3299C201.56 37.8999 199.74 37.1799 197.46 37.1799H197.47ZM200.03 48.5099C199.41 49.3599 198.54 49.7799 197.41 49.7799C196.28 49.7799 195.4 49.3599 194.77 48.5199C194.14 47.6799 193.82 46.5099 193.82 44.9999C193.82 43.4899 194.13 42.3699 194.77 41.5299C195.4 40.6899 196.26 40.2699 197.35 40.2699C198.44 40.2699 199.36 40.6899 200 41.5199C200.64 42.3499 200.96 43.4999 200.96 44.9699C200.96 46.4399 200.65 47.6599 200.03 48.5099Z" fill="#2C2C2C"/>
<path d="M220.939 50.66C222.109 49.26 222.699 47.4 222.699 45.09C222.699 42.78 222.099 40.79 220.899 39.36C219.699 37.93 218.099 37.21 216.119 37.21C214.139 37.21 212.609 37.95 211.539 39.44V37.61H207.699V57.63H211.739V50.55C212.789 52.02 214.309 52.76 216.289 52.76C218.269 52.76 219.769 52.06 220.949 50.65L220.939 50.66ZM217.699 48.38C217.079 49.18 216.219 49.58 215.139 49.58C214.059 49.58 213.159 49.18 212.529 48.38C211.899 47.58 211.589 46.46 211.589 45.03C211.589 43.6 211.899 42.48 212.519 41.68C213.139 40.88 213.999 40.48 215.109 40.48C216.219 40.48 217.059 40.89 217.689 41.71C218.319 42.53 218.639 43.66 218.639 45.09C218.639 46.52 218.329 47.58 217.709 48.38H217.699Z" fill="#2C2C2C"/>
<path d="M247.97 52.4V42.46C247.97 40.86 247.54 39.58 246.67 38.64C245.8 37.7 244.56 37.22 242.93 37.22C240.89 37.22 239.27 38.03 238.09 39.65C237.35 38.03 235.95 37.22 233.91 37.22C231.87 37.22 230.38 38.03 229.21 39.65V37.62H225.34V52.4H229.41V44.38C229.41 41.8 230.39 40.51 232.36 40.51C233.24 40.51 233.83 40.76 234.14 41.27C234.44 41.78 234.6 42.49 234.6 43.4V52.39H238.67V44.08C238.67 41.71 239.62 40.53 241.51 40.53C242.46 40.53 243.09 40.79 243.4 41.32C243.71 41.85 243.86 42.6 243.86 43.57V52.39H247.98L247.97 52.4Z" fill="#2C2C2C"/>
<path d="M257.959 37.1899C255.799 37.1899 254.029 37.9299 252.629 39.4199C251.239 40.9099 250.539 42.7999 250.539 45.0899C250.539 47.3799 251.229 49.2899 252.619 50.6999C254.009 52.1099 255.829 52.8199 258.109 52.8199C259.809 52.8199 261.269 52.3799 262.509 51.4999C263.739 50.6199 264.589 49.3899 265.039 47.7999H261.149C260.579 49.2299 259.569 49.9499 258.139 49.9499C257.049 49.9499 256.209 49.6199 255.609 48.9499C255.009 48.2799 254.699 47.3099 254.679 46.0299H265.279V45.6299C265.279 43.0299 264.619 40.9699 263.299 39.4599C261.979 37.9399 260.209 37.1799 257.969 37.1799L257.959 37.1899ZM254.669 43.4599C254.779 42.4299 255.139 41.6199 255.729 41.0299C256.319 40.4399 257.069 40.1399 257.959 40.1399C258.919 40.1399 259.659 40.4499 260.189 41.0699C260.719 41.6899 261.039 42.4899 261.139 43.4599H254.669Z" fill="#2C2C2C"/>
<path d="M276.379 37.21C274.339 37.21 272.699 38.03 271.479 39.67V37.61H267.609V52.39H271.649V44.46C271.649 41.86 272.719 40.56 274.859 40.56C275.849 40.56 276.519 40.83 276.869 41.38C277.209 41.92 277.389 42.72 277.389 43.77V52.39H281.509V42.51C281.509 40.81 281.049 39.5 280.129 38.59C279.209 37.67 277.959 37.21 276.379 37.21Z" fill="#2C2C2C"/>
<path d="M292.709 40.3599V37.6099H289.699V33.1499H285.659V37.6199H283.199V40.3699H285.659V48.0499C285.659 49.8299 285.979 51.0199 286.619 51.6399C287.259 52.2599 288.469 52.5699 290.239 52.5699C290.889 52.5699 291.709 52.5299 292.699 52.4599V49.3699C292.379 49.4099 291.959 49.4299 291.469 49.4299C291.029 49.4299 290.689 49.3999 290.449 49.3299C290.209 49.2599 290.029 49.1299 289.919 48.9199C289.809 48.7099 289.739 48.4999 289.719 48.2999C289.699 48.0999 289.689 47.7799 289.689 47.3399V40.3799H292.699L292.709 40.3599Z" fill="#2C2C2C"/>
<path d="M75.1991 67.71H78.5891V66.77H75.1991V64.99H78.8491V64H74.0391V70.69H78.9091V69.69H75.1991V67.71Z" fill="#2C2C2C"/>
<path d="M87.3202 69.8501C86.9802 69.8501 86.6702 69.7801 86.4102 69.6301C86.1502 69.4901 85.9502 69.2901 85.8002 69.0501C85.6502 68.8101 85.5402 68.5401 85.4602 68.2601C85.3802 67.9701 85.3502 67.6701 85.3502 67.3401C85.3502 66.9101 85.4102 66.5101 85.5402 66.1401C85.6702 65.7701 85.8901 65.4701 86.2001 65.2101C86.5101 64.9601 86.8902 64.8301 87.3302 64.8301C87.7702 64.8301 88.1302 64.9401 88.4202 65.1701C88.7102 65.4001 88.9002 65.7101 88.9802 66.1101H90.1502C90.0402 65.3701 89.7301 64.8101 89.2001 64.4101C88.6801 64.0201 88.0602 63.8201 87.3502 63.8201C86.6902 63.8201 86.1201 63.9801 85.6301 64.3001C85.1401 64.6201 84.7802 65.0501 84.5302 65.5701C84.2902 66.0901 84.1602 66.6701 84.1602 67.3101C84.1602 68.3701 84.4402 69.2201 85.0102 69.8501C85.5802 70.4901 86.3402 70.8101 87.2802 70.8101C88.1102 70.8101 88.7902 70.5601 89.3102 70.0701C89.8302 69.5801 90.1302 68.9201 90.1902 68.1001H89.0201C88.8801 69.2401 88.3102 69.8101 87.3102 69.8101L87.3202 69.8501Z" fill="#2C2C2C"/>
<path d="M98.6402 63.8401C97.6402 63.8401 96.8602 64.1701 96.2802 64.8301C95.7002 65.4901 95.4102 66.3301 95.4102 67.3401C95.4102 68.3501 95.7102 69.2301 96.3002 69.8701C96.8902 70.5201 97.6701 70.8401 98.6301 70.8401C99.5901 70.8401 100.35 70.5201 100.95 69.8701C101.55 69.2201 101.84 68.3801 101.84 67.3401C101.84 66.3001 101.54 65.4601 100.95 64.8101C100.36 64.1601 99.5902 63.8401 98.6502 63.8401H98.6402ZM100.1 69.1701C99.7302 69.6301 99.2502 69.8601 98.6402 69.8601C98.0302 69.8601 97.5102 69.6301 97.1402 69.1801C96.7702 68.7201 96.5901 68.1101 96.5901 67.3301C96.5901 66.5501 96.7702 65.9701 97.1402 65.5101C97.5102 65.0601 98.0002 64.8301 98.6202 64.8301C99.2402 64.8301 99.7302 65.0601 100.1 65.5101C100.47 65.9601 100.65 66.5701 100.65 67.3401C100.65 68.1101 100.47 68.7201 100.1 69.1801V69.1701Z" fill="#2C2C2C"/>
<path d="M115.68 67.71H119.07V66.77H115.68V64.99H119.33V64H114.51V70.69H119.39V69.69H115.68V67.71Z" fill="#2C2C2C"/>
<path d="M127.789 69.8501C127.449 69.8501 127.139 69.7801 126.879 69.6301C126.619 69.4901 126.409 69.2901 126.269 69.0501C126.119 68.8101 126.009 68.5401 125.929 68.2601C125.849 67.9701 125.819 67.6701 125.819 67.3401C125.819 66.9101 125.879 66.5101 126.009 66.1401C126.139 65.7701 126.359 65.4701 126.669 65.2101C126.979 64.9601 127.359 64.8301 127.799 64.8301C128.239 64.8301 128.599 64.9401 128.889 65.1701C129.179 65.4001 129.369 65.7101 129.449 66.1101H130.609C130.499 65.3701 130.189 64.8101 129.659 64.4101C129.129 64.0201 128.519 63.8201 127.809 63.8201C127.149 63.8201 126.579 63.9801 126.089 64.3001C125.599 64.6201 125.229 65.0501 124.989 65.5701C124.749 66.0901 124.619 66.6701 124.619 67.3101C124.619 68.3701 124.899 69.2201 125.469 69.8501C126.039 70.4901 126.799 70.8101 127.739 70.8101C128.569 70.8101 129.249 70.5601 129.769 70.0701C130.289 69.5801 130.589 68.9201 130.649 68.1001H129.479C129.339 69.2401 128.769 69.8101 127.769 69.8101L127.789 69.8501Z" fill="#2C2C2C"/>
<path d="M139.121 63.8401C138.121 63.8401 137.341 64.1701 136.761 64.8301C136.181 65.4901 135.891 66.3301 135.891 67.3401C135.891 68.3501 136.191 69.2301 136.781 69.8701C137.371 70.5201 138.151 70.8401 139.111 70.8401C140.071 70.8401 140.831 70.5201 141.431 69.8701C142.031 69.2201 142.321 68.3801 142.321 67.3401C142.321 66.3001 142.031 65.4601 141.431 64.8101C140.841 64.1601 140.071 63.8401 139.131 63.8401H139.121ZM140.581 69.1701C140.211 69.6301 139.731 69.8601 139.121 69.8601C138.511 69.8601 137.991 69.6301 137.621 69.1801C137.251 68.7201 137.071 68.1101 137.071 67.3301C137.071 66.5501 137.251 65.9701 137.621 65.5101C137.991 65.0601 138.481 64.8301 139.101 64.8301C139.721 64.8301 140.211 65.0601 140.581 65.5101C140.951 65.9601 141.131 66.5701 141.131 67.3401C141.131 68.1101 140.951 68.7201 140.581 69.1801V69.1701Z" fill="#2C2C2C"/>
<path d="M152.169 68.93L149.089 64H147.859V70.69H148.969V65.77L152.089 70.69H153.299V64H152.169V68.93Z" fill="#2C2C2C"/>
<path d="M162.05 63.8401C161.05 63.8401 160.27 64.1701 159.69 64.8301C159.11 65.4901 158.82 66.3301 158.82 67.3401C158.82 68.3501 159.12 69.2301 159.71 69.8701C160.3 70.5201 161.08 70.8401 162.04 70.8401C163 70.8401 163.76 70.5201 164.36 69.8701C164.96 69.2201 165.25 68.3801 165.25 67.3401C165.25 66.3001 164.96 65.4601 164.36 64.8101C163.77 64.1601 163 63.8401 162.06 63.8401H162.05ZM163.51 69.1701C163.14 69.6301 162.66 69.8601 162.05 69.8601C161.44 69.8601 160.92 69.6301 160.55 69.1801C160.18 68.7201 160 68.1101 160 67.3301C160 66.5501 160.18 65.9701 160.55 65.5101C160.92 65.0601 161.41 64.8301 162.03 64.8301C162.65 64.8301 163.14 65.0601 163.51 65.5101C163.88 65.9601 164.06 66.5701 164.06 67.3401C164.06 68.1101 163.88 68.7201 163.51 69.1801V69.1701Z" fill="#2C2C2C"/>
<path d="M174.321 69.24L172.461 64H170.811V70.69H171.921V65.54L173.831 70.69H174.781L176.641 65.54V70.69H177.761V64H176.131L174.321 69.24Z" fill="#2C2C2C"/>
<path d="M184.86 64H183.68V70.69H184.86V64Z" fill="#2C2C2C"/>
<path d="M193.631 69.8501C193.291 69.8501 192.981 69.7801 192.721 69.6301C192.461 69.4901 192.261 69.2901 192.111 69.0501C191.961 68.8101 191.851 68.5401 191.771 68.2601C191.691 67.9701 191.661 67.6701 191.661 67.3401C191.661 66.9101 191.721 66.5101 191.851 66.1401C191.981 65.7701 192.201 65.4701 192.511 65.2101C192.821 64.9601 193.201 64.8301 193.641 64.8301C194.081 64.8301 194.431 64.9401 194.731 65.1701C195.021 65.4001 195.211 65.7101 195.291 66.1101H196.461C196.351 65.3701 196.041 64.8101 195.511 64.4101C194.981 64.0201 194.371 63.8201 193.661 63.8201C193.001 63.8201 192.431 63.9801 191.941 64.3001C191.451 64.6201 191.091 65.0501 190.841 65.5701C190.601 66.0901 190.471 66.6701 190.471 67.3101C190.471 68.3701 190.761 69.2201 191.321 69.8501C191.891 70.4901 192.651 70.8101 193.591 70.8101C194.421 70.8101 195.101 70.5601 195.621 70.0701C196.141 69.5801 196.441 68.9201 196.501 68.1001H195.331C195.181 69.2401 194.621 69.8101 193.621 69.8101L193.631 69.8501Z" fill="#2C2C2C"/>
<path d="M210.35 67.71H213.74V66.77H210.35V64.99H214V64H209.18V70.69H214.06V69.69H210.35V67.71Z" fill="#2C2C2C"/>
<path d="M219.619 70.69H220.799V67.77H223.819V66.82H220.799V65H224.249V64H219.619V70.69Z" fill="#2C2C2C"/>
<path d="M229.689 70.69H230.879V67.77H233.899V66.82H230.879V65H234.319V64H229.689V70.69Z" fill="#2C2C2C"/>
<path d="M240.959 64H239.779V70.69H240.959V64Z" fill="#2C2C2C"/>
<path d="M249.731 69.8501C249.391 69.8501 249.081 69.7801 248.821 69.6301C248.561 69.4901 248.361 69.2901 248.211 69.0501C248.061 68.8101 247.951 68.5401 247.871 68.2601C247.791 67.9701 247.761 67.6701 247.761 67.3401C247.761 66.9101 247.831 66.5101 247.951 66.1401C248.081 65.7701 248.301 65.4701 248.611 65.2101C248.921 64.9601 249.301 64.8301 249.741 64.8301C250.181 64.8301 250.541 64.9401 250.831 65.1701C251.121 65.4001 251.311 65.7101 251.391 66.1101H252.551C252.441 65.3701 252.131 64.8101 251.601 64.4101C251.081 64.0201 250.461 63.8201 249.751 63.8201C249.091 63.8201 248.521 63.9801 248.031 64.3001C247.541 64.6201 247.181 65.0501 246.931 65.5701C246.691 66.0901 246.561 66.6701 246.561 67.3101C246.561 68.3701 246.841 69.2201 247.411 69.8501C247.981 70.4901 248.741 70.8101 249.681 70.8101C250.511 70.8101 251.191 70.5601 251.711 70.0701C252.231 69.5801 252.531 68.9201 252.591 68.1001H251.421C251.271 69.2401 250.711 69.8101 249.711 69.8101L249.731 69.8501Z" fill="#2C2C2C"/>
<path d="M259.369 64H258.189V70.69H259.369V64Z" fill="#2C2C2C"/>
<path d="M266.449 67.71H269.839V66.77H266.449V64.99H270.099V64H265.289V70.69H270.159V69.69H266.449V67.71Z" fill="#2C2C2C"/>
<path d="M280.009 68.93L276.929 64H275.699V70.69H276.809V65.77L279.929 70.69H281.139V64H280.009V68.93Z" fill="#2C2C2C"/>
<path d="M286.369 65.02H288.499V70.69H289.679V65.02H291.809V64H286.369V65.02Z" fill="#2C2C2C"/>
</svg>
