<svg width="310" height="103" viewBox="0 0 310 103" fill="none" xmlns="http://www.w3.org/2000/svg">
<rect width="310" height="103" fill="white"/>
<path d="M116.381 64.7522H119.063C121.445 64.7522 121.445 68.3344 119.063 68.3344H116.381V64.7522ZM115.383 63.8239V71.8453H116.381V69.2508H119.063C122.792 69.2508 122.792 63.812 119.063 63.812H115.383V63.8239ZM135.708 63.8239V68.6439C135.708 70.2148 134.662 71.0836 133.411 71.0836C132.16 71.0836 131.078 70.2505 131.078 68.6558V63.8358H130.08V68.6558C130.08 70.9051 131.679 72 133.411 72C135.143 72 136.695 70.8694 136.695 68.6558V63.8358H136.682L135.696 63.8239H135.708ZM145.654 63.8239V71.8453H151.078V70.917H146.665V63.8239H145.654ZM159.245 63.8239V71.8453H165.126V70.8932H160.231V68.1797H164.741V67.2514H160.231V64.7403H164.933V63.8239H159.232H159.245ZM179.341 63.8239V69.9649L174.374 63.8239H173.664V71.8453H174.663V65.7281L179.642 71.8453H180.339V63.8239H179.341ZM204.489 63.8239V71.8453H210.37V70.8932H205.475V68.1797H209.985V67.2514H205.475V64.7403H210.177V63.8239H204.477H204.489ZM188.878 67.8822C188.89 70.0125 190.249 71.9762 193.112 71.9762C194.218 71.9762 195.3 71.5835 196.118 70.7861L195.409 70.0958C194.795 70.7028 193.929 71.0241 193.1 71.0241C190.911 71.0241 189.9 69.5007 189.876 67.8703C189.864 66.2041 190.923 64.645 193.1 64.645C193.917 64.645 194.747 64.9307 195.373 65.5376L196.07 64.895C195.252 64.0976 194.182 63.6929 193.112 63.6929C190.261 63.6929 188.854 65.7519 188.878 67.8822ZM99.6163 67.8584C99.6163 66.1089 100.687 64.5974 102.743 64.5974C104.86 64.6212 105.846 66.2279 105.834 67.8584C105.834 69.4412 104.872 71.0717 102.743 71.0717C100.615 71.0717 99.6163 69.4888 99.6163 67.8584ZM98.6061 67.8584C98.6061 69.9649 99.9531 72.0119 102.731 72.0119C105.509 72.0119 106.832 69.9649 106.844 67.8584C106.844 65.74 105.485 63.6929 102.743 63.681C100.182 63.681 98.6061 65.5257 98.6061 67.8584ZM210.274 52.7795H210.37V52.6843L210.274 52.7795ZM187.134 52.7795H188.65C188.157 52.6724 187.652 52.5534 187.134 52.4106V52.7795ZM209.275 52.7795H209.744C209.949 52.5653 210.153 52.3511 210.37 52.125V51.6489C210.009 52.0417 209.648 52.4106 209.275 52.7795ZM208.205 52.7795H208.722C209.275 52.244 209.817 51.6727 210.37 51.0539V50.5421C209.648 51.3633 208.939 52.1012 208.205 52.7795ZM208.385 51.5299C207.94 51.9702 207.495 52.3868 207.038 52.7795H207.628C208.301 52.1726 208.951 51.5061 209.624 50.7563C209.877 50.4707 210.129 50.1851 210.37 49.8875V49.352C209.72 50.1375 209.059 50.8515 208.385 51.5299ZM208.253 50.5302C207.435 51.3752 206.606 52.125 205.764 52.7795H206.413C207.459 51.9107 208.446 50.9348 209.468 49.7447C209.781 49.3758 210.081 49.0187 210.37 48.6498V48.0904C209.672 48.9711 208.975 49.7685 208.253 50.5302ZM187.134 48.0547V48.2571C189.143 48.4713 190.947 48.4237 192.763 48.1143L193.039 48.0547H187.134ZM195.264 48.0547C194.747 48.2095 194.23 48.3404 193.701 48.4475C192.113 48.7569 190.502 48.864 188.794 48.7688C188.241 48.7331 187.688 48.6855 187.134 48.6141V49.114L187.399 49.1497C189.48 49.4234 191.32 49.4234 193.172 49.1378C194.495 48.9354 195.782 48.5784 197.032 48.0666H195.264V48.0547ZM198.439 48.0547C197.153 48.6736 195.818 49.1259 194.447 49.3996C192.558 49.7804 190.706 49.8518 188.614 49.6257C188.121 49.5781 187.627 49.5067 187.134 49.4234V49.8994C187.603 49.9827 188.072 50.0541 188.541 50.1018C190.55 50.3398 192.342 50.3041 194.146 49.9946C196.046 49.6733 197.874 49.0068 199.606 48.0428H198.439V48.0547ZM200.749 48.0547C198.764 49.3044 196.635 50.1137 194.41 50.4588C192.703 50.7206 191.043 50.7563 189.179 50.5421C188.493 50.4588 187.82 50.3636 187.134 50.2208V50.6849C187.712 50.8039 188.277 50.8991 188.854 50.9824C190.875 51.2562 192.667 51.2562 194.483 50.9824C197.044 50.6016 199.462 49.6138 201.675 48.0547H200.749ZM202.649 48.0547C202.12 48.4594 201.578 48.8283 201.025 49.1616C199.077 50.3398 197.044 51.0777 194.819 51.399C193.148 51.637 191.5 51.6489 189.66 51.4228C188.818 51.3157 187.976 51.1729 187.122 50.9824V51.4466C187.796 51.6013 188.469 51.7322 189.131 51.8274C191.199 52.1369 193.015 52.1726 194.855 51.9107C197.826 51.5061 200.604 50.2922 203.106 48.3047L203.406 48.0547H202.625H202.649ZM204.272 48.0547C204.128 48.1738 203.996 48.3047 203.839 48.4237C201.963 49.9708 199.955 51.0896 197.85 51.7203C196.515 52.125 195.168 52.363 193.725 52.4225C192.354 52.482 190.983 52.4106 189.528 52.1845C188.734 52.0655 187.94 51.8988 187.122 51.6965V52.1488C187.531 52.2559 187.928 52.3511 188.337 52.4344C189.047 52.5772 189.72 52.6962 190.394 52.7795H195.373L195.661 52.7438C198.692 52.2916 201.518 50.9824 204.068 48.8402C204.369 48.5903 204.669 48.3285 204.958 48.0547H204.272ZM205.716 48.0547C204.681 49.0663 203.623 49.9351 202.468 50.673C200.929 51.6608 199.341 52.363 197.646 52.7914H199.329C201.218 52.0893 203.01 51.03 204.681 49.6019C205.247 49.114 205.788 48.6022 206.329 48.0547H205.716ZM207.026 48.0547C206.425 48.6974 205.824 49.2806 205.198 49.828C203.743 51.0896 202.18 52.0774 200.556 52.7914H201.675C202.913 52.1488 204.092 51.3514 205.222 50.3874C206.04 49.6852 206.81 48.9235 207.58 48.0547H207.026ZM208.229 48.0547C207.532 48.8521 206.822 49.5781 206.088 50.2565C204.97 51.28 203.839 52.1131 202.637 52.7914H203.503C204.393 52.2321 205.247 51.5775 206.076 50.8277C207.002 49.9946 207.868 49.0901 208.734 48.0547H208.229ZM209.348 48.0547C208.422 49.1854 207.495 50.1613 206.509 51.0539C205.8 51.6965 205.066 52.2797 204.308 52.7914H205.054C205.74 52.2797 206.413 51.7203 207.087 51.0777C208.037 50.1732 208.927 49.1973 209.829 48.0547H209.36H209.348ZM209.72 44.7581H210.37V43.8536C210.153 44.163 209.937 44.4606 209.72 44.7581ZM208.614 44.7581H209.083C209.54 44.1511 209.961 43.5561 210.358 42.961V42.3184C209.793 43.1633 209.215 43.9726 208.614 44.7581ZM209.877 41.4258C209.083 42.6278 208.265 43.7227 207.423 44.7581H207.94C208.77 43.6989 209.564 42.5921 210.358 41.3663V40.676C210.201 40.9259 210.033 41.1639 209.877 41.4139M187.122 40.0214V40.676C187.844 40.4975 188.566 40.2713 189.275 40.0214H187.122ZM191.211 40.0214C189.876 40.5689 188.517 40.9854 187.122 41.2829V41.9851C187.7 41.878 188.277 41.7471 188.854 41.5924C190.237 41.2115 191.596 40.6879 192.943 40.0333H191.211V40.0214ZM194.519 40.0214C193.845 40.3904 193.16 40.7236 192.462 41.0211C190.718 41.759 188.962 42.2588 187.122 42.5326V43.199C187.676 43.1157 188.241 43.0205 188.806 42.9015C191.247 42.3779 193.617 41.4139 195.866 40.0095H194.519V40.0214ZM197.201 40.0214C195.733 41.0092 194.23 41.7947 192.667 42.4017C190.863 43.0919 189.047 43.5204 187.11 43.7108V44.3416C187.784 44.2821 188.457 44.2106 189.131 44.0916C191.079 43.7465 192.895 43.1514 194.699 42.2469C195.926 41.64 197.117 40.8902 198.283 40.0214H197.189H197.201ZM199.438 40.0214L199.113 40.2832C197.345 41.6876 195.409 42.7825 193.376 43.5442C191.62 44.2106 189.828 44.6034 187.916 44.7581H191.741C193.388 44.3297 194.976 43.6751 196.527 42.7825L196.587 42.7468C197.898 41.9851 199.137 41.1044 200.364 40.0333H199.426L199.438 40.0214ZM201.41 40.0214C201.109 40.2951 200.821 40.557 200.508 40.8188C198.391 42.604 196.13 43.925 193.773 44.7581H195.505C197.417 43.9012 199.209 42.723 200.977 41.1639C201.386 40.795 201.795 40.4142 202.204 40.0214H201.41ZM203.142 40.0214C202.168 41.0211 201.206 41.9018 200.183 42.6873C199.149 43.4966 198.067 44.1749 196.96 44.7462H198.223C198.536 44.5677 198.836 44.3654 199.137 44.163C200.46 43.2586 201.723 42.1993 202.986 40.914C203.286 40.6165 203.563 40.307 203.839 40.0095H203.154L203.142 40.0214ZM204.681 40.0214C203.683 41.1639 202.685 42.1636 201.639 43.0562C200.917 43.687 200.159 44.2464 199.402 44.7462H200.412C201.494 43.9488 202.541 43.0205 203.599 41.9256C204.176 41.3187 204.741 40.6879 205.307 40.0095H204.693L204.681 40.0214ZM206.088 40.0214C204.705 41.759 203.382 43.1276 201.939 44.3416C201.771 44.4844 201.602 44.6153 201.434 44.7581H202.276C203.022 44.1154 203.755 43.4014 204.513 42.5802C205.307 41.7114 206.016 40.8545 206.642 40.0214H206.088ZM207.375 40.0214L207.159 40.3189C205.824 42.0922 204.549 43.5085 203.19 44.7581H203.9C204.501 44.1749 205.09 43.5442 205.691 42.8301C206.449 41.9375 207.183 41.0092 207.892 40.0214H207.363H207.375ZM208.566 40.0214C208.145 40.6284 207.7 41.2353 207.267 41.8185C206.437 42.9134 205.619 43.8774 204.753 44.7581H205.367C205.752 44.3416 206.088 43.9726 206.389 43.6037C207.327 42.4731 208.217 41.2829 209.071 40.0214H208.566ZM209.708 40.0214C209.528 40.2832 209.36 40.5451 209.179 40.8188C208.361 42.0208 207.375 43.3776 206.136 44.7581H206.714C206.846 44.5915 206.99 44.4368 207.123 44.2702C208.181 42.961 209.167 41.5924 210.165 40.0333H209.708V40.0214ZM209.648 36.7248H210.081C210.177 36.5582 210.262 36.4034 210.358 36.2487V35.6061C210.129 35.975 209.889 36.3558 209.648 36.7367M208.506 36.7367H208.963C209.444 36.0107 209.913 35.2728 210.358 34.535V33.8923C209.769 34.8206 209.167 35.7727 208.506 36.7367ZM156.623 32.5475C154.795 32.5475 152.979 32.5475 151.151 32.5475H150.838C150.886 32.6546 150.922 32.7379 150.958 32.8093C154.314 39.474 157.681 46.1267 161.024 52.7914C161.121 52.9818 161.229 53.0414 161.445 53.0414C163.069 53.0414 164.681 53.0414 166.304 53.0414C166.521 53.0414 166.629 52.9699 166.725 52.7795C167.916 50.4112 169.106 48.0428 170.297 45.6745C172.462 41.3901 174.615 37.1056 176.779 32.8331L176.912 32.5713H176.791C176.322 32.5475 175.853 32.5475 175.384 32.5594C174.001 32.5594 172.618 32.5594 171.235 32.5594C171.043 32.5594 170.995 32.6546 170.922 32.7974C168.818 37.2722 166.701 41.7471 164.584 46.2101C164.392 46.6147 164.2 47.0074 163.995 47.4478C163.923 47.305 163.863 47.1979 163.815 47.1026C161.566 42.3541 159.329 37.5936 157.08 32.845C156.984 32.6308 156.863 32.5594 156.623 32.5594M99.917 32.5594C99.6644 32.5594 99.5802 32.6546 99.4961 32.8688C97.8604 37.4151 96.2248 41.9494 94.5892 46.4838C94.5411 46.6028 94.493 46.7218 94.4208 46.8884C94.3486 46.7218 94.3005 46.6266 94.2645 46.5195C92.4725 41.9613 90.6685 37.3913 88.8885 32.8212C88.8043 32.607 88.7081 32.5594 88.4917 32.5594C87.0124 32.5594 85.5451 32.5713 84.0779 32.5594C83.8133 32.5594 83.693 32.6189 83.5968 32.8807C81.8048 37.4508 80.0008 42.0327 78.2089 46.6028C78.1728 46.6861 78.1367 46.7694 78.0766 46.9003C78.0164 46.7456 77.9683 46.6385 77.9322 46.5314C76.2846 41.9613 74.6369 37.4032 72.9893 32.8331C72.9171 32.6189 72.8209 32.5594 72.5924 32.5594C71.3176 32.5594 70.0427 32.5594 68.7679 32.5594H67.2886C67.1924 32.5594 67.1082 32.5594 67 32.5713L67.0601 32.7617C69.7661 39.4502 72.4721 46.1267 75.1661 52.8152C75.2383 52.9818 75.3225 53.0414 75.5149 53.0414C77.0543 53.0414 78.5937 53.0414 80.1331 53.0414C80.3376 53.0414 80.4218 52.9699 80.4819 52.7914C82.2378 48.3761 84.0057 43.9726 85.7736 39.5573C85.8819 39.2835 85.9901 39.0217 86.1224 38.7004C86.1825 38.8551 86.2306 38.9503 86.2667 39.0455C88.1068 43.6156 89.9469 48.1857 91.7749 52.7557C91.8711 52.9818 91.9794 53.0533 92.2199 53.0414C93.6992 53.0414 95.1785 53.0295 96.6698 53.0414C96.9584 53.0414 97.0667 52.9461 97.1629 52.6962C99.4239 47.0669 101.709 41.4496 103.982 35.8322C104.415 34.7492 104.86 33.6662 105.305 32.5475H105.052C103.333 32.5475 101.625 32.5475 99.905 32.5475M130.958 32.4165C129.166 32.4284 127.374 32.4284 125.582 32.4284C125.389 32.4284 125.281 32.4879 125.197 32.6546C124.499 34.0232 123.778 35.368 123.08 36.7367C120.386 42.0208 117.704 47.3169 115.022 52.601C114.974 52.6962 114.938 52.7914 114.878 52.9104C114.998 52.9104 115.083 52.9104 115.167 52.9104H116.538C117.765 52.9104 118.979 52.9104 120.206 52.9104C120.422 52.9104 120.531 52.839 120.627 52.6486C121.361 51.161 122.106 49.6852 122.852 48.1976C124.03 45.8411 125.209 43.4847 126.4 41.1401C127.013 39.9262 127.614 38.7123 128.252 37.4746C128.348 37.6531 128.432 37.8078 128.504 37.9625C130.946 42.8539 133.375 47.7453 135.817 52.6486C135.913 52.8509 136.021 52.9223 136.25 52.9223C137.2 52.9104 138.162 52.9223 139.112 52.9223H141.77C141.698 52.7676 141.65 52.6486 141.589 52.5415C139.617 48.6974 137.645 44.8533 135.66 41.0092C134.241 38.2481 132.822 35.4871 131.415 32.7141C131.319 32.5356 131.246 32.4165 130.994 32.4165M207.339 36.7248H207.832C208.746 35.4156 209.588 34.1065 210.406 32.7974V32.1666C209.516 33.5829 208.494 35.1419 207.339 36.7248ZM227.352 32.4879C225.62 32.7855 223.984 33.4043 222.601 34.5112C220.869 35.8917 220.124 37.6412 220.629 39.831C220.965 41.2949 221.952 42.2469 223.238 42.9253C224.633 43.6632 226.149 44.0559 227.7 44.3297C229.613 44.6748 231.549 44.9366 233.461 45.2699C234.255 45.4008 235.049 45.5793 235.77 45.9601C236.648 46.4362 236.768 47.4597 235.975 48.0785C235.686 48.3047 235.325 48.4832 234.976 48.6141C233.966 48.983 232.896 49.0544 231.837 49.0663C228.879 49.114 226.029 48.5427 223.274 47.4835C222.565 47.2098 221.879 46.8884 221.158 46.5909C220.556 47.9119 219.955 49.2449 219.342 50.5778C220.605 51.2086 221.855 51.7203 223.166 52.1131C227.015 53.2794 230.935 53.6602 234.916 52.9461C236.648 52.6367 238.284 52.0655 239.715 51.0062C241.856 49.4234 242.433 47.2455 241.735 44.9961C241.327 43.687 240.352 42.8658 239.162 42.2588C237.61 41.4853 235.951 41.0925 234.255 40.795C232.499 40.4856 230.731 40.2237 228.987 39.9143C228.169 39.7715 227.364 39.593 226.63 39.1764C225.836 38.7123 225.764 37.8078 226.474 37.2365C226.738 37.0223 227.063 36.8557 227.388 36.7367C228.338 36.3796 229.336 36.3082 230.346 36.2844C233.245 36.2368 236.011 36.8676 238.669 37.9744C239.066 38.141 239.462 38.3195 239.871 38.51C240.485 37.2127 241.086 35.9274 241.699 34.6302L241.567 34.5469C238.308 32.9164 234.916 32.1071 231.405 32.1071C230.07 32.1071 228.723 32.2261 227.352 32.4641M187.158 31.9643V32.6546C187.579 32.4284 188 32.2023 188.433 31.9643H187.158ZM190.153 31.9643C190.021 32.0357 189.888 32.119 189.756 32.1904C188.89 32.6665 188.036 33.1187 187.17 33.5472V34.4516C187.988 34.0589 188.806 33.6424 189.612 33.1901C190.309 32.8093 190.995 32.4046 191.704 31.9762H190.153V31.9643ZM193.304 31.9643C191.464 33.1306 189.672 34.1184 187.868 34.9634C187.639 35.0705 187.399 35.1776 187.158 35.2728V36.1416C188.361 35.6299 189.552 35.0467 190.742 34.3802C192.017 33.6662 193.304 32.8688 194.615 31.9643H193.316H193.304ZM196.07 31.9643C194.038 33.4281 192.065 34.6421 190.081 35.6299C189.299 36.0226 188.517 36.3677 187.724 36.701H189.648C191.596 35.7846 193.521 34.6421 195.481 33.2496C196.058 32.8331 196.623 32.4165 197.189 31.9762H196.082L196.07 31.9643ZM198.488 31.9643C197.574 32.7141 196.672 33.3924 195.757 34.0351C194.314 35.0467 192.847 35.9393 191.356 36.6891H192.919C194.158 35.975 195.385 35.1657 196.623 34.2374C197.549 33.5353 198.463 32.7855 199.414 31.9643H198.488ZM200.592 31.9643C199.209 33.2377 197.874 34.3326 196.503 35.3204C195.83 35.8084 195.144 36.2725 194.447 36.6891H195.721C196.094 36.4392 196.455 36.1773 196.816 35.9036C198.343 34.7611 199.822 33.4876 201.374 31.9524H200.58L200.592 31.9643ZM202.456 31.9643C201.025 33.4281 199.69 34.654 198.283 35.7727C197.874 36.094 197.477 36.4034 197.068 36.701H198.127C199.786 35.3799 201.386 33.8685 203.142 31.9643H202.456ZM204.116 31.9643C203.96 32.1428 203.803 32.3213 203.647 32.4879C202.132 34.1541 200.749 35.499 199.329 36.6891H200.219C200.52 36.4153 200.809 36.1416 201.109 35.856C202.336 34.6659 203.527 33.3805 204.729 31.9524H204.104L204.116 31.9643ZM205.607 31.9643C205.198 32.4641 204.79 32.964 204.357 33.4519C203.286 34.6897 202.288 35.7489 201.29 36.6891H202.059C203.671 35.0467 204.982 33.44 206.004 32.1428L206.149 31.9643H205.607ZM206.966 31.9643C206.425 32.6903 205.86 33.4162 205.271 34.1422C204.525 35.0586 203.791 35.9036 203.046 36.701H203.719C204.994 35.2728 206.221 33.7138 207.459 31.9643H206.966ZM208.229 31.9643C207.315 33.2496 206.389 34.5112 205.379 35.7608C205.114 36.0821 204.862 36.3915 204.597 36.701H205.198C205.283 36.5939 205.367 36.4868 205.463 36.3796C206.63 34.9039 207.676 33.44 208.674 31.9643H208.229ZM209.408 31.9643C208.446 33.4281 207.327 35.0467 206.028 36.701H206.569C206.894 36.2606 207.195 35.8441 207.471 35.4633C208.289 34.3088 209.071 33.1306 209.817 31.9643H209.396H209.408Z" fill="#2C2C2C"/>
</svg>
